<ttFont>
          <CharString index="0">
            rmoveto
            10 30 17 11 2 hvcurveto
            10 -33 181 -41 -36 -184 -172 -9 -11 17 -25 10 vhcurveto
            46 35 61 38 45 23 28 -30 26 -35 19 -33 rrcurveto
            return
          </CharString>
          <CharString index="1">
            rmoveto
            -40 -22 -27 -22 -47 hhcurveto
            -37 -48 24 40 -44 hvcurveto
            -78 -12 -69 -88 -40 vvcurveto
            -14 8 -7 17 -3 vhcurveto
            31 23 43 21 47 hhcurveto
            -29 28 32 -25 53 hhcurveto
            94 53 100 40 14 -7 7 -19 3 hvcurveto
            return
          </CharString>
          <CharString index="2">
            -41 -43 21 47 -3 hvcurveto
            -101 hlineto
            -84 -109 -82 -33 -42 hvcurveto
            -17 -11 -6 -20 12 -17 46 -83 13 -37 24 -1 rrcurveto
            21 29 26 48 65 hvcurveto
            -14 -401 rlineto
            -36 -5 19 -14 28 hhcurveto
            443 50 rmoveto
            -28 3 -12 -5 -19 hhcurveto
            -415 hlineto
            -19 -9 5 28 3 hvcurveto
            14 434 -120 -87 rlineto
            -2 -3 -3 -1 -3 hhcurveto
            -20 -32 76 37 -20 hvcurveto
            -6 8 3 11 8 6 rrcurveto
            36 45 104 76 78 hhcurveto
            87 hlineto
            -48 11 42 -19 48 hhcurveto
            47 42 19 48 14 hvcurveto
            84 hlineto
            79 103 -76 -36 45 hvcurveto
            11 -6 0 -11 -5 -8 -59 -107 rcurveline
            -4 -2 -4 -4 -5 hhcurveto
            -5 -6 2 4 -5 hvcurveto
            -116 86 rlineto
            return
          </CharString>
          <CharString index="3">
            rmoveto
            -37 -37 -56 -45 -40 -23 -34 30 -33 44 -26 33 rrcurveto
            -10 -26 -17 -11 -9 75 -182 40 32 147 173 13 11 -22 20 -10 hvcurveto
            return
          </CharString>
          <CharString index="4">
            rmoveto
            -32 -59 -71 -99 -61 vvcurveto
            -33 17 -15 37 44 21 34 0 103 53 115 56 86 vhcurveto
            0 31 22 23 vvcurveto
            22 -34 21 -21 -25 -31 -20 -35 -13 vhcurveto
            -21 -19 -45 -25 -79 hhcurveto
            0 -14 -17 -21 vvcurveto
            -19 17 -27 33 32 26 13 13 17 vhcurveto
            return
          </CharString>
          <CharString index="5">
            735 422 rmoveto
            -8 15 -16 2 0 vvcurveto
            -48 -28 -70 -52 -63 hhcurveto
            -21 -19 6 13 -18 hvcurveto
            1 9 0 8 8 vvcurveto
            81 -45 38 -71 -48 -16 -19 -34 -34 24 -57 39 -33 vhcurveto
            -111 -85 -135 -77 -34 -21 41 59 89 56 128 76 38 vhcurveto
            16 -11 24 -16 3 vhcurveto
            -141 -75 -88 -177 -121 vvcurveto
            return
          </CharString>
          <CharString index="6">
            rmoveto
            7 13 14 3 13 hhcurveto
            30 24 -18 -42 -24 -36 -67 -161 -15 hvcurveto
            32 92 71 64 0 vvcurveto
            -114 -204 rmoveto
            282 9 49 116 74 vvcurveto
            -46 callgsubr
            37 callgsubr
          </CharString>
          <CharString index="7">
            rmoveto
            -106 callgsubr
            -96 -275 rmoveto
            hintmask 10011100
            -96 callgsubr
            -15 callgsubr
            vhcurveto
            85 callsubr
            hintmask 00111100
            -73 callgsubr
          </CharString>
          <CharString index="8">
            78 callsubr
            185 callsubr
            return
          </CharString>
          <CharString index="9">
            1 22 6 16 39 45 -16 -86 -89 -79 -147 -83 vhcurveto
            -68 -88 rmoveto
            148 200 205 198 77 -39 31 -89 -173 -158 -235 -163 -81 46 -32 65 hvcurveto
            endchar
          </CharString>
          <CharString index="10">
            rmoveto
            61 4 49 21 54 vvcurveto
            10 -6 14 -12 2 vhcurveto
            -21 -16 -23 -12 -27 hhcurveto
            -6 hlineto
            16 39 18 39 8 15 rrcurveto
            11 9 18 7 16 vvcurveto
            1 vlineto
            18 -1 -37 9 -14 hhcurveto
            -22 -17 -27 -23 -14 hvcurveto
            -16 -26 -15 -36 -18 -36 -26 5 -38 9 -23 8 15 20 rcurveline
            54 71 65 85 59 vvcurveto
            31 -30 11 -34 -34 -21 -11 -6 vhcurveto
            1 -13 15 -1 -29 vvcurveto
            -45 -43 -72 -42 -69 vhcurveto
            -8 -13 rlineto
            2 -7 -6 1 -5 hhcurveto
            -29 -3 -18 -35 -32 vvcurveto
            -31 15 -8 17 22 11 3 24 20 vhcurveto
            29 -18 43 -11 28 -3 rrcurveto
            -14 -33 -8 -43 -14 vvcurveto
            -21 12 -14 28 vhcurveto
            return
          </CharString>
          <CharString index="11">
            rmoveto
            0 128 137 83 -83 callsubr
            hintmask 1010101010000000
            -99 callsubr
            hintmask 1010100110000000
            34 callgsubr
            hintmask 1010110010000000
            -76 -123 -163 -102 vvcurveto
            -70 callgsubr
            hintmask 0110110010000000
            -54 callsubr
            hintmask 1010110010000000
            -65 callgsubr
            endchar
          </CharString>
          <CharString index="12">
            -20 -18 -32 -57 -37 -69 rrcurveto
            1 -11 -9 1 -6 hhcurveto
            -76 -16 -49 -19 -14 8 -20 17 hvcurveto
            16 6 14 16 21 hhcurveto
            6 6 0 -1 6 hvcurveto
            -48 -102 -43 -108 -33 vvcurveto
            -57 35 -23 52 37 60 12 24 24 vhcurveto
            1 218 callgsubr
            vvcurveto
            10 -13 29 -7 vhcurveto
            -1 hlineto
            -8 -13 -25 -3 -16 hhcurveto
            -12 -4 12 10 56 30 85 36 69 hvcurveto
            return
          </CharString>
          <CharString index="13">
            -141 -180 -249 -141 -67 34 -47 63 return
          </CharString>
          <CharString index="14">
            -16 -4 -7 -10 -13 5 -20 17 5 11 6 8 6 hvcurveto
            22 -2 13 -20 -19 vvcurveto
            -30 -25 -37 -37 -12 -5 7 9 vhcurveto
            14 8 6 8 vvcurveto
            10 -3 -8 5 -7 hhcurveto
            -12 -39 -23 -36 -25 27 -24 35 84 74 63 55 33 -23 30 -54 11 hvcurveto
            0 return
          </CharString>
          <CharString index="15">
            14 -12 -3 18 vvcurveto
            29 15 47 37 72 vhcurveto
            -3 16 24 -3 20 hhcurveto
            25 18 26 19 4 0 9 -2 3 hvcurveto
            return
          </CharString>
          <CharString index="16">
            -109 77 80 -74 86 hhcurveto
            104 66 135 53 20 -10 12 -24 3 hvcurveto
            -63 -39 -21 -16 -58 hhcurveto
            -53 -87 53 59 -67 hvcurveto
            102 106 97 111 80 116 rrcurveto
            74 35 53 55 51 vvcurveto
            34 -34 41 -24 -42 -17 -29 -61 -22 vhcurveto
            25 -88 -99 67 -97 hhcurveto
            -79 -35 -50 -67 -51 10 -37 11 -50 hvcurveto
            endchar
          </CharString>
          <CharString index="17">
            24 -15 -37 26 -82 callgsubr
            return
          </CharString>
          <CharString index="18">
            rmoveto
            -62 -14 -44 -26 -46 hhcurveto
            -54 -56 36 52 -9 hvcurveto
            -41 -18 -18 -35 -29 vvcurveto
            -67 68 -34 75 92 103 52 108 25 -23 -4 -33 2 vhcurveto
            return
          </CharString>
          <CharString index="19">
            -122 5 16 -88 64 hhcurveto
            71 72 49 36 27 hvcurveto
            16 -10 11 -3 vhcurveto
            -2 -34 -25 -35 hhcurveto
            -45 -43 106 42 -4 hvcurveto
            98 32 118 48 121 vvcurveto
            18 callsubr
            return
          </CharString>
          <CharString index="20">
            -8 6 -15 12 23 vvcurveto
            35 13 32 18 25 vhcurveto
            10 17 15 4 13 hhcurveto
            34 14 -27 -35 -115 -47 -169 -101 -30 -15 16 26 hvcurveto
            26 12 15 8 vvcurveto
            return
          </CharString>
          <CharString index="21">
            3 -15 -21 2 -17 hhcurveto
            -66 -36 -26 -34 -15 7 -16 15 -16 hvcurveto
            15 11 23 8 21 hhcurveto
            15 13 -2 -3 13 hvcurveto
            48 callsubr
            return
          </CharString>
          <CharString index="22">
            vvcurveto
            -51 32 -18 40 47 59 25 26 28 vhcurveto
            12 -9 17 -7 6 vhcurveto
            -12 -20 -28 -15 -22 hhcurveto
            -19 -14 11 32 return
          </CharString>
          <CharString index="23">
            vvcurveto
            21 -24 36 -25 -65 -59 -98 -179 -54 vhcurveto
            return
          </CharString>
          <CharString index="24">
            -84 callsubr
            -31 callsubr
            118 callsubr
            vvcurveto
            return
          </CharString>
          <CharString index="25">
            rmoveto
            -107 callgsubr
            196 hmoveto
            -107 callgsubr
            endchar
          </CharString>
          <CharString index="26">
            -2 -44 -32 -31 hhcurveto
            -25 -13 26 44 52 8 33 0 hvcurveto
            -36 callsubr
            return
          </CharString>
          <CharString index="27">
            708 3 rmoveto
            31 16 14 36 -5 hvcurveto
            -14 401 rlineto
            -48 67 28 -26 21 hhcurveto
            24 13 39 82 46 hvcurveto
            11 17 -6 20 -14 11 rrcurveto
            33 -45 -109 82 -84 hhcurveto
            -98 hlineto
            return
          </CharString>
          <CharString index="28">
            -87 -8 67 0 hvcurveto
            -93 hlineto
            -84 -103 -78 -34 -45 hvcurveto
            -14 -11 -3 -14 9 -14 58 -104 rcurveline
            9 -14 16 3 9 6 109 75 rcurveline
            -17 -417 rlineto
            -34 -2 14 -8 25 hhcurveto
            return
          </CharString>
          <CharString index="29">
            19 callsubr
            -37 49 119 94 135 7 5 vhcurveto
            -1 -2 -17 -26 vvcurveto
            -102 52 -83 83 81 10 45 21 6 -1 5 0 vhcurveto
            0 -24 -9 -14 return
          </CharString>
          <CharString index="30">
            31 -4 56 -27 -57 -64 -47 -8 -7 11 -21 8 4 145 callsubr
            -1 -1 rlineto
            3 7 8 4 5 hhcurveto
            3 3 -8 -14 -25 -5 -49 -11 -34 hvcurveto
            0 -81 -103 -58 vvcurveto
            -24 45 -9 21 26 52 76 111 25 vhcurveto
            return
          </CharString>
          <CharString index="31">
            rmoveto
            143 callsubr
            -117 -185 -19 -9 21 -16 16 hvcurveto
            56 68 69 59 48 36 rrcurveto
            -194 hmoveto
            143 callsubr
            -113 -184 -20 -9 21 -16 16 hvcurveto
            55 68 66 59 48 36 rrcurveto
            return
          </CharString>
          <CharString index="32">
            69 133 73 152 70 vvcurveto
            5 -7 15 -6 vhcurveto
            -2 -12 -28 -19 -52 -57 -55 4 -3 hhcurveto
            169 callgsubr
            return
          </CharString>
          <CharString index="33">
            rmoveto
            176 callgsubr
            96 147 244 48 vvcurveto
            return
          </CharString>
          <CharString index="34">
            -71 callgsubr
            endchar
          </CharString>
          <CharString index="35">
            rmoveto
            23 callsubr
            -91 -213 -547 -100 52 callsubr
            94 callsubr
            -2 -50 -32 -35 hhcurveto
            -12 -8 5 12 61 39 95 53 113 hvcurveto
            endchar
          </CharString>
          <CharString index="36">
            rmoveto
            61 4 49 21 54 vvcurveto
            10 -6 14 -12 2 vhcurveto
            -24 -18 -24 -9 -30 hhcurveto
            17 41 19 45 9 9 rrcurveto
            10 6 16 11 13 vvcurveto
            19 -38 9 -14 -41 -27 -80 -68 -34 vhcurveto
            hintmask 11110000
            -26 5 -38 9 -23 8 rrcurveto
            45 57 89 100 78 vvcurveto
            31 -30 11 -34 -34 -21 -11 -6 vhcurveto
            1 -13 15 -1 -29 vvcurveto
            -54 -64 -107 -29 -38 vhcurveto
            2 -7 -6 1 -5 hhcurveto
            -29 -3 -18 -35 -32 vvcurveto
            -31 15 -8 17 22 11 3 24 20 vhcurveto
            29 -18 43 -11 28 -3 rrcurveto
            -14 -33 -8 -43 -14 vvcurveto
            hintmask 11101000
            -21 12 -14 28 29 48 8 15 vhcurveto
            27 callsubr
          </CharString>
          <CharString index="37">
            134 callsubr
            43 69 55 -12 65 hhcurveto
            38 29 29 41 14 -4 21 -9 19 hvcurveto
            endchar
          </CharString>
          <CharString index="38">
            231 callgsubr
            vhcurveto
            hintmask 1000011010000000
            -23 -24 -13 -19 -14 hvcurveto
            11 -38 -56 25 -37 hhcurveto
            hintmask 1001001010000000
            -73 -3 -59 -46 hvcurveto
            hintmask 1000100100000000
            -25 7 -15 39 vhcurveto
            114 callgsubr
            42 -4 callgsubr
            hintmask 1010001010000000
            100 callgsubr
            17 22 -1 -34 -40 -40 -58 -55 -21 -7 15 18 hvcurveto
            hintmask 0110001010000000
            174 callgsubr
            hvcurveto
            hintmask 1010000100000000
            -37 41 -30 56 126 95 84 88 48 -43 32 -55 3 vhcurveto
            endchar
          </CharString>
          <CharString index="39">
            -73 -106 -51 -10 -8 10 -26 8 hvcurveto
            11 27 19 19 hhcurveto
            6 2 -3 -7 hvcurveto
            -77 -125 -174 -116 vvcurveto
            return
          </CharString>
          <CharString index="40">
            224 callsubr
            10 -38 5 -1 230 callgsubr
            hintmask 1000100110000000
            132 callsubr
            vhcurveto
            hintmask 1010011110000000
            129 callgsubr
            hvcurveto
            0 21 2 11 vhcurveto
            hintmask 1001011110000000
            38 15 -21 -35 -69 -43 -41 -47 -35 -9 18 17 22 9 11 1 14 hvcurveto
            7 -8 -13 6 -8 hhcurveto
            hintmask 0110011110000000
            -23 -51 -36 -51 -37 25 -30 87 124 93 76 150 callgsubr
          </CharString>
          <CharString index="41">
            0 21 2 11 38 15 -21 -35 -69 -59 -49 -47 -35 -9 18 17 22 9 11 1 14 vhcurveto
            return
          </CharString>
          <CharString index="42">
            -26 -53 -56 -24 -45 -2 rrcurveto
            return
          </CharString>
          <CharString index="43">
            -35 callsubr
            -53 25 -37 hhcurveto
            -56 -19 -34 -37 -6 hvcurveto
            -18 8 -12 33 31 vvcurveto
            4 0 4 1 4 vhcurveto
            88 117 rlineto
            14 21 6 17 14 vvcurveto
            20 -20 38 -39 -59 -49 -81 -115 -11 vhcurveto
            -306 -436 rlineto
            -23 callsubr
            54 105 -22 callgsubr
            -58 19 46 -28 56 hhcurveto
            6 4 13 12 3 11 rrcurveto
            -4 7 -2 6 6 vvcurveto
            15 12 10 13 12 36 -5 -13 38 vhcurveto
            -109 -102 rlineto
            103 callgsubr
            return
          </CharString>
          <CharString index="44">
            -96 -51 -77 -79 -96 vvcurveto
            -117 82 -43 108 113 117 57 68 43 vhcurveto
            endchar
          </CharString>
          <CharString index="45">
            -2 37 20 -4 31 hhcurveto
            45 46 20 52 17 hvcurveto
            11 -5 7 0 -53 3 -1 -1 -111 vhcurveto
            28 71 31 64 39 51 rrcurveto
            return
          </CharString>
          <CharString index="46">
            -68 -61 -60 -32 -47 hhcurveto
            -43 -22 29 53 169 178 237 100 63 40 -28 -40 -14 -7 -17 -12 -20 hvcurveto
            -2 -2 0 -2 -2 vvcurveto
            -9 10 -12 10 -2 vhcurveto
            return
          </CharString>
          <CharString index="47">
            125 -182 91 110 vvcurveto
            26 8 37 27 30 vhcurveto
            3 11 11 1 11 hhcurveto
            57 36 -39 -47 return
          </CharString>
          <CharString index="48">
            -60 21 -38 71 128 vvcurveto
            75 11 111 11 69 vhcurveto
            return
          </CharString>
          <CharString index="49">
            136 -2 215 -148 -52 -43 -36 -68 -7 0 -6 1 -7 vhcurveto
            76 86 -45 -272 18 hvcurveto
            -48 -59 -41 -95 -43 vvcurveto
            -44 72 -8 26 39 25 109 122 2 vhcurveto
            174 84 102 152 72 27 25 -24 9 hhcurveto
            return
          </CharString>
          <CharString index="50">
            -3 callsubr
            -106 -105 -156 40 callsubr
            return
          </CharString>
          <CharString index="51">
            rmoveto
            -27 19 -21 21 33 vvcurveto
            17 6 17 17 17 vhcurveto
            0 17 4 10 28 30 -12 -31 -36 -29 -28 -31 -21 vhcurveto
            hintmask 11101000
            -73 -80 rmoveto
            41 -26 44 -14 -35 vvcurveto
            -28 -32 -32 -44 -27 -32 15 44 27 19 29 31 20 vhcurveto
            109 56 rmoveto
            68 39 42 47 46 vvcurveto
            hintmask 11010100
            58 -49 22 -52 -89 -97 -67 -86 -40 14 -28 20 -19 vhcurveto
            -63 -35 -46 -48 -55 vvcurveto
            hintmask 11101000
            -63 51 -24 68 107 97 70 93 44 -34 24 -37 22 vhcurveto
            endchar
          </CharString>
          <CharString index="52">
            184 callsubr
            6 vvcurveto
            8 -5 15 -15 5 vhcurveto
            -14 -14 -39 -16 -32 hhcurveto
            -25 -20 10 30 return
          </CharString>
          <CharString index="53">
            -53 17 -69 69 82 75 63 -30 callgsubr
            return
          </CharString>
          <CharString index="54">
            rmoveto
            -41 -29 -31 -19 -38 hhcurveto
            -22 -25 7 13 -28 hvcurveto
            83 61 156 80 116 vvcurveto
            hintmask 10101100
            57 -50 29 -67 -95 -91 -61 -52 -34 20 -31 61 vhcurveto
            5 1 15 12 4 11 rrcurveto
            -7 17 -2 18 39 245 callgsubr
            -96 -72 -78 -49 vhcurveto
            7 -10 -12 8 -12 hhcurveto
            -45 -27 -58 -36 -27 10 -15 25 hvcurveto
            hintmask 01011100
            20 48 36 0 0 55 -62 70 72 65 84 37 17 -11 10 -23 2 hvcurveto
            endchar
          </CharString>
          <CharString index="55">
            rmoveto
            -89 -21 -55 -72 -57 hhcurveto
            -30 -15 16 26 hvcurveto
            26 12 15 8 vvcurveto
            hintmask 01111010
            4 -2 -13 6 -4 hhcurveto
            -23 -50 -36 -51 -36 27 -30 81 165 98 193 129 88 -64 43 -68 -98 -88 -84 -87 -71 58 -36 48 hvcurveto
            hintmask 10110110
            35 39 16 22 25 hvcurveto
            12 70 rmoveto
            -26 -18 -32 -20 -27 hhcurveto
            -24 -20 16 39 35 13 32 18 25 hvcurveto
            10 17 15 4 13 hhcurveto
            34 14 -27 -35 -20 -1 -14 -2 -19 hvcurveto
            endchar
          </CharString>
          <CharString index="56">
            -66 46 -63 87 31 callgsubr
            61 callsubr
            -50 -33 44 39 hvcurveto
            return
          </CharString>
          <CharString index="57">
            -7 8 -6 12 48 105 83 81 55 -30 32 -52 -67 -68 -77 -78 -44 vhcurveto
            return
          </CharString>
          <CharString index="58">
            56 19 26 13 vvcurveto
            6 -4 8 -12 -47 -92 -52 -93 -75 63 -35 115 214 174 101 248 58 -9 57 -8 45 vhcurveto
            33 38 40 54 41 vvcurveto
            33 -44 26 -35 -55 -31 -63 -122 -4 vhcurveto
            endchar
          </CharString>
          <CharString index="59">
            -106 callsubr
            endchar
          </CharString>
          <CharString index="60">
            -13 callsubr
            44 -25 27 -42 -48 -50 -51 return
          </CharString>
          <CharString index="61">
            -9 2 -7 5 122 82 9 17 80 vhcurveto
            return
          </CharString>
          <CharString index="62">
            -76 -123 -163 -102 vvcurveto
            return
          </CharString>
          <CharString index="63">
            -39 -22 -37 -25 -43 hhcurveto
            -27 -40 7 13 -32 hvcurveto
            85 40 163 107 116 vvcurveto
            57 -50 29 -67 -95 -91 -61 -52 -34 30 -30 61 vhcurveto
            5 1 15 12 4 11 rrcurveto
            -12 29 -7 25 19 vvcurveto
            return
          </CharString>
          <CharString index="64">
            -102 77 57 -53 88 hhcurveto
            93 49 76 84 27 hvcurveto
            15 -1 -10 10 -18 hhcurveto
            -38 -34 -38 -20 -46 hhcurveto
            return
          </CharString>
          <CharString index="65">
            -59 callsubr
            25 41 38 53 39 vvcurveto
            24 -52 43 -35 -39 -35 -83 -111 -23 vhcurveto
            return
          </CharString>
          <CharString index="66">
            415 -10 rmoveto
            -16 callgsubr
            hvcurveto
            -2 -44 -32 -31 hhcurveto
            -25 -13 26 44 81 20 48 0 hvcurveto
            97 133 119 182 63 vvcurveto
            46 -53 19 -25 -41 -62 -108 -132 -59 vhcurveto
            20 -18 -26 14 -36 hhcurveto
            -141 -180 -249 -142 -67 34 -46 63 104 90 131 0 -65 17 -66 77 hvcurveto
            -8 414 rmoveto
            -18 -43 -42 -107 -17 -68 rrcurveto
            return
          </CharString>
          <CharString index="67">
            -6 rmoveto
            -79 callgsubr
            return
          </CharString>
          <CharString index="68">
            rmoveto
            68 4 20 30 47 hhcurveto
            53 82 -35 -17 59 hvcurveto
            -67 -94 -79 -97 -102 -107 rrcurveto
            11 -18 -15 9 -20 hhcurveto
            -62 -34 -87 -59 return
          </CharString>
          <CharString index="69">
            -20 -54 -37 -49 -53 -21 hvcurveto
            10 -13 -11 12 -14 hhcurveto
            -24 -32 -35 -21 -19 13 -2 14 -5 hvcurveto
            return
          </CharString>
          <CharString index="70">
            2 -2 4 -3 -3 -4 -4 -6 -3 vhcurveto
            3 -2 -4 2 -4 hhcurveto
            -14 -18 -25 -14 -6 3 -5 7 10 8 12 1 1 hvcurveto
            -7 2 -6 7 9 7 6 1 1 -2 2 0 vhcurveto
            return
          </CharString>
          <CharString index="71">
            84 102 72 115 66 callsubr
            return
          </CharString>
          <CharString index="72">
            46 7 33 44 26 vvcurveto
            19 -25 20 -17 -23 -24 -13 -19 -14 vhcurveto
            11 -38 return
          </CharString>
          <CharString index="73">
            rmoveto
            -18 -10 11 19 32 29 46 40 19 10 -11 -21 -33 -33 -43 -37 hvcurveto
            return
          </CharString>
          <CharString index="74">
            rmoveto
            -5 -8 -5 -4 -6 hvcurveto
            -11 -14 -23 -17 -36 -4 -4 1 -2 hhcurveto
            0 -3 18 10 vvcurveto
            35 5 23 1 4 vhcurveto
            62 76 55 89 36 vvcurveto
            23 -17 31 -24 -22 -28 -28 -42 -28 vhcurveto
            15 -15 -28 18 -28 100 callsubr
            28 -38 50 62 59 62 24 20 hvcurveto
            0 13 -86 53 92 48 70 29 8 -7 9 0 vhcurveto
            return
          </CharString>
          <CharString index="75">
            -56 -64 -47 -8 -7 10 -22 8 5 145 callsubr
            -1 hlineto
            3 6 6 4 8 hhcurveto
            3 3 -8 -14 -53 -11 -46 -3 -10 hvcurveto
            0 -81 -101 -58 vvcurveto
            -25 45 -8 20 24 58 106 99 26 vhcurveto
            40 69 66 42 0 0 10 -3 -14 vvcurveto
            -50 -11 -47 -3 -10 vhcurveto
            0 -80 -101 -58 vvcurveto
            -25 44 -8 21 23 47 75 91 27 vhcurveto
            return
          </CharString>
          <CharString index="76">
            -60 -112 -99 -40 0 return
          </CharString>
          <CharString index="77">
            6 -11 16 -5 vhcurveto
            -2 -13 -32 -14 -59 -54 -60 7 254 callgsubr
            -20 -13 -7 3 -9 6 21 58 -17 -18 return
          </CharString>
          <CharString index="78">
            -25 callgsubr
            36 110 -41 callgsubr
            return
          </CharString>
          <CharString index="79">
            589 370 rmoveto
            83 callsubr
            -47 callsubr
            -55 -34 vhcurveto
            6 vlineto
            69 -18 33 -17 -21 -99 -53 -13 -26 vhcurveto
            0 -9 61 -69 -139 -131 -167 -117 -74 46 -41 61 100 77 83 13 7 -13 16 -9 return
          </CharString>
          <CharString index="80">
            192 rmoveto
            -78 23 7 -138 92 hhcurveto
            27 72 24 36 7 -15 1 -12 3 hvcurveto
            -57 14 -13 54 -50 113 rrcurveto
            64 88 98 126 59 10 8 -1 6 hhcurveto
            9 0 8 7 38 -48 33 -33 -95 -73 -170 -44 -59 hvcurveto
            6 -14 -12 2 -11 hhcurveto
            -24 -39 -39 -26 -21 20 -20 25 4 3 0 1 4 hvcurveto
            return
          </CharString>
          <CharString index="81">
            91 callgsubr
            vhcurveto
            return
          </CharString>
          <CharString index="82">
            rmoveto
            -34 -21 41 59 129 95 102 0 hvcurveto
            return
          </CharString>
          <CharString index="83">
            -61 177 hhcurveto
            87 72 44 83 25 hvcurveto
            return
          </CharString>
          <CharString index="84">
            -25 37 -10 22 41 return
          </CharString>
          <CharString index="85">
            -14 42 41 -9 40 hhcurveto
            69 41 44 63 59 -25 77 -28 -7 -5 -2 -4 -4 hvcurveto
            -74 -17 -30 -44 vhcurveto
            -119 -140 76 -155 hhcurveto
            -63 -39 -36 -53 return
          </CharString>
          <CharString index="86">
            88 -88 185 -167 70 -70 216 -145 68 124 98 return
          </CharString>
          <CharString index="87">
            219 callgsubr
            230 -125 26 -26 139 return
          </CharString>
          <CharString index="88">
            131 108 128 7 return
          </CharString>
          <CharString index="89">
            rmoveto
            -10 6 10 -7 7 hhcurveto
            23 25 51 35 18 -7 13 -16 -5 -1 0 -2 -3 hvcurveto
            88 -42 -109 93 -66 hhcurveto
            -29 -31 -40 -26 -18 11 -3 20 -5 hvcurveto
            33 -9 60 -15 70 -109 rrcurveto
            -66 -95 -115 -67 -63 hhcurveto
            -7 -7 -18 -22 -26 11 -33 37 79 109 95 83 95 hvcurveto
            endchar
          </CharString>
          <CharString index="90">
            13 24 27 10 22 hhcurveto
            25 22 -9 -35 -77 -56 -39 -29 -28 -15 22 48 23 3 19 5 25 hvcurveto
            return
          </CharString>
          <CharString index="91">
            vvcurveto
            27 -20 38 -28 return
          </CharString>
          <CharString index="92">
            hhcurveto
            193 131 255 141 79 -34 35 -63 -85 -82 -115 -36 -32 hvcurveto
            137 callsubr
            -9 -29 -21 -11 -67 hhcurveto
            -25 -38 1 3 -27 hvcurveto
            -6 -3 -5 -15 -12 vvcurveto
            -8 2 -7 8 27 31 -14 -8 9 vhcurveto
            return
          </CharString>
          <CharString index="93">
            -104 callgsubr
            endchar
          </CharString>
          <CharString index="94">
            6 -1 3 -8 -18 -39 -23 -22 -12 vvcurveto
            -8 7 -7 13 37 84 67 64 return
          </CharString>
          <CharString index="95">
            1 9 11 1 9 hhcurveto
            79 55 -54 -126 -204 -164 -143 -108 -32 -22 11 36 return
          </CharString>
          <CharString index="96">
            2 24 19 31 hhcurveto
            return
          </CharString>
          <CharString index="97">
            -429 -119 4 callsubr
            return
          </CharString>
          <CharString index="98">
            35 callsubr
            -109 245 return
          </CharString>
          <CharString index="99">
            754 -102 callgsubr
            return
          </CharString>
          <CharString index="100">
            rmoveto
            -57 callsubr
            vhcurveto
            return
          </CharString>
          <CharString index="101">
            rmoveto
            40 -25 43 -14 -33 vvcurveto
            -26 -31 -31 -43 -26 -31 15 41 26 18 28 30 19 vhcurveto
            return
          </CharString>
          <CharString index="102">
            364 233 rmoveto
            -31 callsubr
            118 callsubr
            vvcurveto
            return
          </CharString>
          <CharString index="103">
            -84 -42 -56 -60 -72 64 -51 119 141 125 69 136 return
          </CharString>
          <CharString index="104">
            -19 callgsubr
            -1 -30 return
          </CharString>
          <CharString index="105">
            144 114 92 0 vhcurveto
            5 16 13 2 11 hhcurveto
            20 callgsubr
          </CharString>
          <CharString index="106">
            -45 -88 rmoveto
            -15 0 -26 34 118 83 139 92 6 -2 9 -5 3 vhcurveto
            4 -13 -15 2 -15 hhcurveto
            -31 -32 -9 -18 -21 hvcurveto
            -11 -10 -20 -30 -38 vvcurveto
            -7 1 -8 2 -6 vhcurveto
            -8 12 21 -1 21 hhcurveto
            -65 callsubr
            return
          </CharString>
          <CharString index="107">
            -15 0 -26 34 118 83 139 92 6 -2 9 -5 3 vhcurveto
            4 -13 -15 2 -15 hhcurveto
            -31 -32 -9 -18 -21 hvcurveto
            -11 -10 -20 -30 -38 vvcurveto
            -7 1 -8 2 -6 vhcurveto
            -8 12 21 -1 21 hhcurveto
            -65 callsubr
            endchar
          </CharString>
          <CharString index="108">
            -56 callgsubr
            32 return
          </CharString>
          <CharString index="109">
            7 -10 -12 8 -12 hhcurveto
            -31 -26 -52 -34 -24 10 -14 17 20 26 13 17 22 hvcurveto
            return
          </CharString>
          <CharString index="110">
            0 -9 17 19 vvcurveto
            56 21 53 39 97 vhcurveto
            113 98 28 0 hvcurveto
            -22 -88 -51 -105 -96 vvcurveto
            -6 13 -16 5 vhcurveto
            return
          </CharString>
          <CharString index="111">
            93 callsubr
            -24 22 30 -7 32 39 40 10 29 hhcurveto
            27 10 -12 -16 return
          </CharString>
          <CharString index="112">
            16 vvcurveto
            5 -9 14 -4 vhcurveto
            -26 -8 -19 -10 -50 -2 rrcurveto
            14 -29 -42 6 -43 hhcurveto
            83 callgsubr
            hvcurveto
            return
          </CharString>
          <CharString index="113">
            60 -14 24 -17 12 callsubr
            return
          </CharString>
          <CharString index="114">
            -35 callgsubr
            117 callgsubr
            return
          </CharString>
          <CharString index="115">
            -114 -145 -7 -426 -72 hhcurveto
            -47 -50 48 39 hvcurveto
            36 22 22 9 vvcurveto
            return
          </CharString>
          <CharString index="116">
            76 113 171 93 callgsubr
            return
          </CharString>
          <CharString index="117">
            -4 -12 -19 -17 -7 3 -9 6 -1 hvcurveto
            40 -4 28 -3 -28 return
          </CharString>
          <CharString index="118">
            hintmask 00111110
            25 15 10 29 hhcurveto
            hintmask 01011110
            21 25 -9 22 hhcurveto
            103 112 99 124 96 -51 74 -116 -40 -34 -8 -15 -24 hvcurveto
            4 41 13 35 13 25 rrcurveto
            9 90 58 65 58 hhcurveto
            45 30 -36 -16 5 hvcurveto
            return
          </CharString>
          <CharString index="119">
            -57 -64 -47 -8 -7 11 -21 8 4 145 callsubr
            -1 -1 rlineto
            3 7 8 4 5 hhcurveto
            3 3 -8 -14 -52 -11 -46 -3 -10 hvcurveto
            0 -80 -101 -58 vvcurveto
            -25 44 -9 21 26 58 99 107 24 vhcurveto
            return
          </CharString>
          <CharString index="120">
            rmoveto
            -196 -165 -22 -525 -103 hhcurveto
            -68 -37 42 26 hvcurveto
            45 21 41 10 vvcurveto
            6 -7 6 -11 -45 -97 -60 -91 -68 65 -33 83 301 71 388 384 73 vhcurveto
            -7 15 31 -13 18 hhcurveto
            return
          </CharString>
          <CharString index="121">
            11 17 17 19 hhcurveto
            1 callsubr
            return
          </CharString>
          <CharString index="122">
            112 97 91 87 69 -49 29 -62 -35 -39 -11 -18 -32 return
          </CharString>
          <CharString index="123">
            45 24 45 42 35 vvcurveto
            22 -31 29 -23 -36 -15 -25 -36 -20 vhcurveto
            24 -96 -83 40 -81 hhcurveto
            -60 -39 -42 -59 -43 10 -23 15 -48 hvcurveto
            39 hlineto
            61 7 15 35 36 hhcurveto
            21 79 -20 -10 84 hvcurveto
            return
          </CharString>
          <CharString index="124">
            -2 -38 -32 -31 hhcurveto
            -5 -5 5 7 hvcurveto
            76 113 171 102 vvcurveto
            return
          </CharString>
          <CharString index="125">
            55 -28 38 -59 -90 -70 -69 -92 -77 vhcurveto
            return
          </CharString>
          <CharString index="126">
            -45 callsubr
            -46 27 return
          </CharString>
          <CharString index="127">
            24 callgsubr
            vhcurveto
            endchar
          </CharString>
          <CharString index="128">
            -28 callgsubr
            155 callgsubr
            return
          </CharString>
          <CharString index="129">
            88 73 81 78 70 88 rrcurveto
            48 24 60 48 39 vvcurveto
            return
          </CharString>
          <CharString index="130">
            85 101 106 140 64 vvcurveto
            46 -69 8 -25 return
          </CharString>
          <CharString index="131">
            vvcurveto
            19 -12 16 -26 -22 -23 -12 -18 -11 vhcurveto
            return
          </CharString>
          <CharString index="132">
            346 rmoveto
            -75 callsubr
            return
          </CharString>
          <CharString index="133">
            rmoveto
            0 -19 13 -10 vhcurveto
            return
          </CharString>
          <CharString index="134">
            12 -12 5 17 vvcurveto
            17 2 22 7 23 vhcurveto
            endchar
          </CharString>
          <CharString index="135">
            -101 -68 42 -90 hhcurveto
            -75 -45 -70 -62 -51 19 -69 2 -7 hvcurveto
            -163 -33 -138 -194 -138 vvcurveto
            20 callsubr
          </CharString>
          <CharString index="136">
            -24 callgsubr
            35 callgsubr
            hvcurveto
            return
          </CharString>
          <CharString index="137">
            204 callgsubr
            -68 -71 17 -52 hhcurveto
            -56 -26 return
          </CharString>
          <CharString index="138">
            134 callsubr
            45 70 80 -13 48 hhcurveto
            36 29 return
          </CharString>
          <CharString index="139">
            32 74 129 140 31 return
          </CharString>
          <CharString index="140">
            -1 106 -45 45 -45 79 return
          </CharString>
          <CharString index="141">
            67 89 rlineto
            14 21 6 17 14 vvcurveto
            20 -20 38 -39 -59 -45 -79 -106 -7 vhcurveto
            endchar
          </CharString>
          <CharString index="142">
            143 callgsubr
            53 109 return
          </CharString>
          <CharString index="143">
            91 48 62 36 18 -10 7 0 return
          </CharString>
          <CharString index="144">
            rmoveto
            0 -5 -3 -3 -2 -2 2 5 5 1 3 0 vhcurveto
            9 10 7 12 5 vvcurveto
            return
          </CharString>
          <CharString index="145">
            11 17 17 19 hhcurveto
            return
          </CharString>
          <CharString index="146">
            -20 hstemhm
            45 253 callgsubr
            230 -105 234 callsubr
            return
          </CharString>
          <CharString index="147">
            -76 vvcurveto
            86 callgsubr
            return
          </CharString>
          <CharString index="148">
            62 81 36 126 58 136 rrcurveto
            35 43 23 32 24 vvcurveto
            28 -21 14 -51 -66 -32 -69 -86 -30 vhcurveto
            -4 -16 -13 -2 -12 hhcurveto
            -41 -22 27 36 return
          </CharString>
          <CharString index="149">
            49 callgsubr
            vhcurveto
            return
          </CharString>
          <CharString index="150">
            127 -29 171 387 170 -76 76 return
          </CharString>
          <CharString index="151">
            0 -6 17 21 vvcurveto
            42 14 39 1 4 vhcurveto
            73 100 90 137 50 vvcurveto
            39 -43 14 -20 -34 -45 -76 -99 -45 vhcurveto
            12 -14 -20 9 -24 hhcurveto
            return
          </CharString>
          <CharString index="152">
            -214 -281 -150 -166 -81 -5 -29 -2 rcurveline
            65 callgsubr
            -39 32 -22 43 40 37 30 44 36 vhcurveto
            71 87 rlineto
            endchar
          </CharString>
          <CharString index="153">
            -2 170 callsubr
            hvcurveto
            -17 -19 -40 -20 -43 hhcurveto
            -37 -17 22 34 109 84 80 -8 callgsubr
            19 8 8 21 17 -13 -28 vhcurveto
            -8 vlineto
            return
          </CharString>
          <CharString index="154">
            0 34 186 128 vvcurveto
            157 -54 54 -64 -86 -58 -37 -13 -10 7 -10 8 -6 vhcurveto
            5 14 19 4 20 hhcurveto
            29 24 -88 -164 return
          </CharString>
          <CharString index="155">
            -59 -114 -53 -131 -62 -11 callgsubr
            return
          </CharString>
          <CharString index="156">
            21 13 22 19 hhcurveto
            13 16 -1 -34 -40 -50 -71 -49 -21 -7 15 18 hvcurveto
            return
          </CharString>
          <CharString index="157">
            25 13 10 8 vvcurveto
            36 callgsubr
            return
          </CharString>
          <CharString index="158">
            141 -13 154 callsubr
            return
          </CharString>
          <CharString index="159">
            -54 28 -14 35 95 82 60 11 return
          </CharString>
          <CharString index="160">
            19 17 2 4 13 hvcurveto
            return
          </CharString>
          <CharString index="161">
            530 402 rmoveto
            -277 -104 -55 -341 -126 hhcurveto
            -43 -13 38 52 hvcurveto
            28 7 13 5 vvcurveto
            2 -6 12 -3 164 callgsubr
            return
          </CharString>
          <CharString index="162">
            673 156 callgsubr
            -683 -26 vlineto
            683 71 callgsubr
            -683 -26 vlineto
            683 54 callgsubr
            -683 -742 vlineto
            return
          </CharString>
          <CharString index="163">
            50 callsubr
            -28 -57 -42 42 -25 63 128 105 97 88 48 -39 38 -49 3 hvcurveto
            endchar
          </CharString>
          <CharString index="164">
            -77 160 226 121 -121 177 -22 136 -41 callgsubr
            return
          </CharString>
          <CharString index="165">
            117 callgsubr
            -116 -93 -59 -34 59 callsubr
            return
          </CharString>
          <CharString index="166">
            vhcurveto
            1 18 1 14 15 vvcurveto
            return
          </CharString>
          <CharString index="167">
            70 145 311 141 return
          </CharString>
          <CharString index="168">
            -8 -68 -66 -75 hhcurveto
            return
          </CharString>
          <CharString index="169">
            156 callgsubr
            -723 -26 vlineto
            723 71 callgsubr
            -723 -26 vlineto
            723 54 callgsubr
            -723 -742 vlineto
            return
          </CharString>
          <CharString index="170">
            21 58 -17 -18 -61 -83 -190 -56 -127 hvcurveto
            -59 -65 -49 -54 -32 vvcurveto
            -46 68 -10 25 53 54 106 102 45 vhcurveto
            endchar
          </CharString>
          <CharString index="171">
            -1 rrcurveto
            -2 -1 -2 -6 -10 8 -23 19 -14 hvcurveto
            return
          </CharString>
          <CharString index="172">
            -23 -10 -17 -15 -12 vvcurveto
            return
          </CharString>
          <CharString index="173">
            49 -16 callsubr
            return
          </CharString>
          <CharString index="174">
            59 -59 154 44 87 -60 60 -60 230 -105 86 25 -20 hstemhm
            3 93 134 102 -41 callgsubr
            hintmask 1010011110000000
            209 return
          </CharString>
          <CharString index="175">
            -9 31 32 -6 43 hhcurveto
            -37 -54 -28 -73 -54 vvcurveto
            -64 39 -36 52 113 145 144 151 47 -31 51 -70 vhcurveto
            return
          </CharString>
          <CharString index="176">
            -14 callgsubr
            hvcurveto
            return
          </CharString>
          <CharString index="177">
            19 -19 15 -55 -63 -41 -10 -22 -31 vhcurveto
            -53 17 -43 26 30 vvcurveto
            return
          </CharString>
          <CharString index="178">
            37 36 vhcurveto
            -47 9 33 -17 45 hhcurveto
            113 153 157 150 62 -32 24 -69 -102 -85 -83 -127 -49 hvcurveto
            return
          </CharString>
          <CharString index="179">
            137 -135 39 -329 -142 -133 -170 -117 -52 38 -34 48 95 35 95 0 0 -15 14 -7 vhcurveto
            return
          </CharString>
          <CharString index="180">
            24 56 45 56 39 -32 30 -78 return
          </CharString>
          <CharString index="181">
            -16 -14 88 -75 -21 169 50 return
          </CharString>
          <CharString index="182">
            -206 26 74 return
          </CharString>
          <CharString index="183">
            hhcurveto
            -8 -8 7 15 79 73 108 67 43 hvcurveto
            4 17 -1 -16 15 hvcurveto
            -14 -35 -30 -75 -13 -50 rrcurveto
            endchar
          </CharString>
          <CharString index="184">
            118 callsubr
            78 callsubr
            return
          </CharString>
          <CharString index="185">
            -45 callgsubr
            34 -21 20 -44 return
          </CharString>
          <CharString index="186">
            -133 144 -31 207 330 157 return
          </CharString>
          <CharString index="187">
            -101 -10 93 118 106 6 192 -70 70 return
          </CharString>
          <CharString index="188">
            -39 22 -71 23 9 6 2 4 6 return
          </CharString>
          <CharString index="189">
            hstem
            111 callgsubr
            vstem
            return
          </CharString>
          <CharString index="190">
            36 67 46 51 10 9 rrcurveto
            return
          </CharString>
          <CharString index="191">
            hstemhm
            35 152 0 132 return
          </CharString>
          <CharString index="192">
            24 -15 -37 26 -43 hhcurveto
            return
          </CharString>
          <CharString index="193">
            hhcurveto
            18 24 -14 -12 19 hvcurveto
            -23 -27 -74 -95 -93 vvcurveto
            -54 27 -37 51 90 132 153 115 61 vhcurveto
            return
          </CharString>
          <CharString index="194">
            95 70 60 11 return
          </CharString>
          <CharString index="195">
            11 -15 20 -3 return
          </CharString>
          <CharString index="196">
            131 7 -21 22 -21 30 -21 311 73 152 134 hstemhm
            254 143 167 56 hintmask 10011110
            return
          </CharString>
          <CharString index="197">
            38 callgsubr
            130 callgsubr
            return
          </CharString>
          <CharString index="198">
            rmoveto
            45 30 -38 -44 -44 -22 -24 -24 -25 hvcurveto
            9 32 3 20 25 vvcurveto
            42 -17 44 -32 12 vhcurveto
            endchar
          </CharString>
          <CharString index="199">
            36 -271 62 -62 234 49 -21 435 70 14 -20 return
          </CharString>
          <CharString index="200">
            rmoveto
            22 callgsubr
            return
          </CharString>
          <CharString index="201">
            16 -15 15 -3 vhcurveto
            return
          </CharString>
          <CharString index="202">
            55 160 61 26 151 -53 53 hstemhm
            13 99 128 108 -34 91 hintmask 00000000
            hintmask 11011010
            304 return
          </CharString>
          <CharString index="203">
            208 -80 80 97 100 -100 177 -123 58 -58 100 hstemhm
            35 121 159 60 -11 123 return
          </CharString>
          <CharString index="204">
            152 callgsubr
            hintmask 00000000
            return
          </CharString>
          <CharString index="205">
            -55 -21 73 -21 146 58 -58 227 return
          </CharString>
          <CharString index="206">
            -76 59 -59 154 -81 -21 154 87 return
          </CharString>
          <CharString index="207">
            hhcurveto
            -108 -138 -189 -108 -53 return
          </CharString>
          <CharString index="208">
            37 -3 28 -6 -23 vvcurveto
            return
          </CharString>
          <CharString index="209">
            129 callsubr
            -6 return
          </CharString>
          <CharString index="210">
            105 -15 84 485 106 return
          </CharString>
          <CharString index="211">
            52 -52 153 22 62 161 55 hstemhm
            15 80 -27 96 124 98 hintmask 00000000
            hintmask 10110110
            273 return
          </CharString>
          <CharString index="212">
            rmoveto
            21 52 63 182 37 107 rrcurveto
            23 67 18 34 15 vvcurveto
            20 -39 17 -19 -73 -106 -51 -10 return
          </CharString>
          <CharString index="213">
            213 callgsubr
            -7 -34 -40 -51 -71 -56 -31 -5 15 18 hvcurveto
            return
          </CharString>
          <CharString index="214">
            rmoveto
            -23 -14 29 41 95 72 76 -8 callgsubr
            13 3 10 27 31 -11 -61 -65 -57 -107 -59 vhcurveto
            return
          </CharString>
          <CharString index="215">
            110 callsubr
            -20 return
          </CharString>
          <CharString index="216">
            6 -5 6 -9 -33 -90 -56 -68 return
          </CharString>
          <CharString index="217">
            69 -50 -21 437 70 14 return
          </CharString>
          <CharString index="218">
            rmoveto
            24 44 5 10 21 33 return
          </CharString>
          <CharString index="219">
            -149 176 -97 -86 vvcurveto
            return
          </CharString>
          <CharString index="220">
            35 124 154 180 return
          </CharString>
          <CharString index="221">
            206 callgsubr
            114 return
          </CharString>
          <CharString index="222">
            70 152 307 134 return
          </CharString>
          <CharString index="223">
            -25 -12 -11 -10 vvcurveto
            return
          </CharString>
          <CharString index="224">
            0 -9 24 28 vvcurveto
            return
          </CharString>
          <CharString index="225">
            0 -21 1 30 return
          </CharString>
          <CharString index="226">
            67 callgsubr
            -14 -14 11 24 108 100 150 93 57 vhcurveto
            0 32 0 25 -28 vhcurveto
            return
          </CharString>
          <CharString index="227">
            0 vvcurveto
            -9 1 -20 23 rlineto
            -6 hlineto
            20 -23 -8 -1 -20 24 rlineto
            -6 hlineto
            20 -24 -8 -2 return
          </CharString>
          <CharString index="228">
            -23 -64 -16 -32 -19 11 -9 10 -3 vhcurveto
            -129 -20 -99 -91 -41 hhcurveto
            -26 -8 19 19 return
          </CharString>
          <CharString index="229">
            rmoveto
            -5 12 11 -2 11 hhcurveto
            39 31 40 35 21 -24 9 -25 hvcurveto
            -4 -4 -1 -4 hhcurveto
            return
          </CharString>
          <CharString index="230">
            9 callsubr
            endchar
          </CharString>
          <CharString index="231">
            -14 43 67 27 151 callsubr
            return
          </CharString>
          <CharString index="232">
            -3 5 -6 4 45 72 37 54 60 return
          </CharString>
          <CharString index="233">
            235 callsubr
            -38 38 -38 103 return
          </CharString>
          <CharString index="234">
            -35 -35 -33 -37 -26 27 -34 33 -19 return
          </CharString>
          <CharString index="235">
            -70 -10 93 343 74 return
          </CharString>
          <CharString index="236">
            10 vvcurveto
            5 -2 3 return
          </CharString>
          <CharString index="237">
            hlineto
            12 7 11 14 1 vhcurveto
            -22 9 rlineto
            14 -17 -23 5 -34 hhcurveto
            -29 -49 -19 -39 return
          </CharString>
          <CharString index="238">
            -6 6 -6 10 11 12 6 11 vhcurveto
            9 -17 4 9 vvcurveto
            1 1 2 1 2 vhcurveto
            return
          </CharString>
          <CharString index="239">
            70 callgsubr
            -16 23 -22 27 return
          </CharString>
          <CharString index="240">
            46 -27 36 -49 return
          </CharString>
          <CharString index="241">
            18 25 40 5 return
          </CharString>
          <CharString index="242">
            62 343 60 hstemhm
            14 93 -18 93 60 95 -47 86 hintmask 00000000
            hintmask 11010100
            230 return
          </CharString>
          <CharString index="243">
            517 rmoveto
            0 -3 11 15 vvcurveto
            35 15 58 103 128 109 -68 0 vhcurveto
            return
          </CharString>
          <CharString index="244">
            1 -7 4 1 vvcurveto
            116 210 14 120 16 vvcurveto
            5 -9 14 -4 vhcurveto
            return
          </CharString>
          <CharString index="245">
            hstemhm
            45 132 -7 234 callsubr
            hintmask 11010000
            return
          </CharString>
          <CharString index="246">
            91 -67 170 -103 131 0 92 -49 87 return
          </CharString>
          <CharString index="247">
            132 -280 57 246 95 488 66 return
          </CharString>
          <CharString index="248">
            vvcurveto
            -52 25 -35 50 74 66 91 6 7 vhcurveto
            return
          </CharString>
          <CharString index="249">
            106 1 235 callsubr
            return
          </CharString>
          <CharString index="250">
            43 -17 -34 23 -25 hhcurveto
            -17 return
          </CharString>
          <CharString index="251">
            60 -60 198 244 69 return
          </CharString>
          <CharString index="252">
            6 2 4 6 vhcurveto
            return
          </CharString>
          <CharString index="253">
            81 -77 -21 258 84 101 -20 hstemhm
            11 213 215 callgsubr
            316 return
          </CharString>
          <CharString index="254">
            43 callgsubr
            hvcurveto
            -77 -23 -36 -61 -59 vvcurveto
            return
          </CharString>
          <CharString index="255">
            -74 -266 76 197 -21 486 243 -229 130 -34 133 return
          </CharString>
          <CharString index="256">
            rmoveto
            26 -803 -26 vlineto
            803 71 callgsubr
            -803 -26 vlineto
            endchar
          </CharString>
          <CharString index="257">
            -97 68 40 -21 436 70 14 return
          </CharString>
          <CharString index="258">
            41 0 vhcurveto
            0 -9 17 19 vvcurveto
            return
          </CharString>
          <CharString index="259">
            rmoveto
            26 -733 -26 vlineto
            733 return
          </CharString>
          <CharString index="260">
            -397 rmoveto
            -36 397 36 hlineto
            return
          </CharString>
          <CharString index="261">
            76 -76 114 -97 -21 return
          </CharString>
          <CharString index="262">
            -13 -19 -24 -16 -36 hhcurveto
            return
          </CharString>
          <CharString index="263">
            54 26 hstemhm
            -10 return
          </CharString>
          <CharString index="264">
            258 388 rmoveto
            34 60 65 43 13 8 rrcurveto
            0 10 -3 -15 vvcurveto
            return
          </CharString>
          <CharString index="265">
            37 26 31 38 27 vvcurveto
            21 -39 29 -41 -76 -30 -126 -54 -13 vhcurveto
            return
          </CharString>
          <CharString index="266">
            -224 -39 16 -183 hhcurveto
            -79 -22 -38 -31 -28 20 -19 16 -4 hvcurveto
            return
          </CharString>
          <CharString index="267">
            -20 hstemhm
            80 101 336 92 81 118 return
          </CharString>
          <CharString index="268">
            14 12 8 57 vhcurveto
            return
          </CharString>
          <CharString index="269">
            -1 -1 -1 -2 return
          </CharString>
          <CharString index="270">
            rmoveto
            19 15 16 return
          </CharString>
          <CharString index="271">
            37 1 37 47 22 vvcurveto
            19 -20 21 -16 -14 -24 -14 -2 -4 vhcurveto
            return
          </CharString>
          <CharString index="272">
            2 5 vhcurveto
            3 1 2 1 vvcurveto
            1 0 0 -1 -8 -3 -4 -4 return
          </CharString>
          <CharString index="273">
            -92 vvcurveto
            -102 57 -43 75 65 60 57 32 6 -2 5 -5 4 vhcurveto
            return
          </CharString>
          <CharString index="274">
            1 -10 hhcurveto
            -2 -3 -1 -4 -1 -5 rrcurveto
            -1 -3 0 -4 -4 vvcurveto
            return
          </CharString>
          <CharString index="275">
            152 callsubr
            71 callgsubr
            -733 -26 vlineto
            return
          </CharString>
          <CharString index="276">
            hintmask 00000000
            hintmask 10111100
            return
          </CharString>
          <CharString index="277">
            -2 0 -1 -1 return
          </CharString>
          <CharString index="278">
            -47 -119 43 callsubr
            hstemhm
            return
          </CharString>
          <CharString index="279">
            2 -1 1 0 vhcurveto
            -1 -3 -3 -3 hhcurveto
            -1 0 0 1 hvcurveto
            return
          </CharString>
          <CharString index="280">
            vhcurveto
            -6 -11 -10 -4 0 0 -2 0 3 11 12 15 7 vvcurveto
            return
          </CharString>
          <CharString index="281">
            5 2 3 1 4 2 3 hvcurveto
            13 7 15 14 5 hhcurveto
            9 return
          </CharString>
          <CharString index="282">
            3 9 16 16 23 17 9 4 -3 -7 -20 -20 -21 -15 hvcurveto
            return
          </CharString>
          <CharString index="283">
            3 2 vhcurveto
            7 -2 7 -9 0 0 return
          </CharString>
          <CharString index="284">
            86 callgsubr
            87 callsubr
            vhcurveto
            return
          </CharString>
          <CharString index="285">
            175 11 -21 31 -21 273 81 return
          </CharString>
          <CharString index="286">
            vvcurveto
            16 -3 20 -25 24 vhcurveto
            return
          </CharString>
          <CharString index="287">
            22 -271 62 197 92 return
          </CharString>
          <CharString index="288">
            31 -24 90 540 61 return
          </CharString>
          <CharString index="289">
            -45 -8 -34 -23 -47 hhcurveto
            return
          </CharString>
          <CharString index="290">
            57 -97 68 19 92 return
          </CharString>
          <CharString index="291">
            1 4 1 4 return
          </CharString>
          <CharString index="292">
            -87 -65 -47 -11 -16 16 -15 3 vhcurveto
            -11 callsubr
            return
          </CharString>
          <CharString index="293">
            85 144 226 callgsubr
            return
          </CharString>
          <CharString index="294">
            4 -8 -8 -4 -4 -6 -7 4 -6 7 -4 vhcurveto
            -9 -3 return
          </CharString>
          <CharString index="295">
            6 -3 -10 7 -9 hhcurveto
            -25 -81 -52 -78 -55 59 -46 81 return
          </CharString>
          <CharString index="296">
            -51 30 vhcurveto
            -9 5 5 -9 10 hhcurveto
            24 50 51 54 53 return
          </CharString>
          <CharString index="297">
            60 -51 32 -27 -35 -30 -37 -37 -26 27 -34 33 -19 vhcurveto
            return
          </CharString>
          <CharString index="298">
            2 0 -2 1 hvcurveto
            -2 -11 -7 -26 0 vvcurveto
            12 hlineto
            return
          </CharString>
          <CharString index="299">
            6 7 9 7 vvcurveto
            5 -6 3 -3 -2 -5 -8 -3 return
          </CharString>
          <CharString index="300">
            -26 -21 21 23 hvcurveto
            3 vlineto
            1 19 33 19 0 vvcurveto
            return
          </CharString>
          <CharString index="301">
            -9 -13 -17 -12 vvcurveto
            -3 2 -2 5 9 7 6 1 return
          </CharString>
          <CharString index="302">
            hvcurveto
            41 38 28 52 27 vvcurveto
            16 -9 9 -21 3 vhcurveto
            return
          </CharString>
          <CharString index="303">
            vvcurveto
            -63 50 -24 68 230 276 203 262 return
          </CharString>
          <CharString index="304">
            0 vvcurveto
            75 9 48 69 39 vvcurveto
            25 -26 26 -21 -35 return
          </CharString>
          <CharString index="305">
            -17 -24 -8 -8 -19 hvcurveto
            56 -89 -111 59 -94 hhcurveto
            return
          </CharString>
          <CharString index="306">
            12 -3 8 -3 4 -1 3 -1 0 -1 2 rrcurveto
            6 return
          </CharString>
          <CharString index="307">
            -1 0 163 callgsubr
            5 -8 12 0 vvcurveto
            endchar
          </CharString>
          <CharString index="308">
            85 hhcurveto
            45 13 -19 -16 5 hvcurveto
            return
          </CharString>
          <CharString index="309">
            152 36 164 -2 142 return
          </CharString>
          <CharString index="310">
            rmoveto
            26 -643 -26 vlineto
            643 return
          </CharString>
          <CharString index="311">
            -40 -49 31 113 return
          </CharString>
          <CharString index="312">
            0 -8 -67 -87 vhcurveto
            return
          </CharString>
          <CharString index="313">
            vhcurveto
            84 112 rlineto
            return
          </CharString>
          <CharString index="314">
            0 -8 -8 vvcurveto
            return
          </CharString>
          <CharString index="315">
            6 8 10 0 vhcurveto
            2 6 2 6 5 9 rrcurveto
            return
          </CharString>
          <CharString index="316">
            -28 36 -26 36 vhcurveto
            14 2 16 16 17 26 rrcurveto
            return
          </CharString>
          <CharString index="317">
            477 rmoveto
            32 callgsubr
            return
          </CharString>
          <CharString index="318">
            hstemhm
            12 118 -16 99 -99 197 28 118 return
          </CharString>
          <CharString index="319">
            -23 vvcurveto
            -25 19 -17 18 16 20 16 17 15 vhcurveto
            return
          </CharString>
          <CharString index="320">
            -17 -9 11 15 hvcurveto
            71 128 53 87 vvcurveto
            54 return
          </CharString>
          <CharString index="321">
            -3 -2 -1 hvcurveto
            -2 0 -3 -1 -4 vhcurveto
            endchar
          </CharString>
          <CharString index="322">
            4 1 3 1 4 vhcurveto
            return
          </CharString>
          <CharString index="323">
            106 65 50 86 33 hvcurveto
            return
          </CharString>
          <CharString index="324">
            -1 238 callgsubr
            1 return
          </CharString>
          <CharString index="325">
            -48 -28 -11 0 return
          </CharString>
          <CharString index="326">
            -40 -37 23 48 return
          </CharString>
          <CharString index="327">
            hstemhm
            314 108 callgsubr
            return
          </CharString>
          <CharString index="328">
            rrcurveto
            8 -15 5 -17 -17 -28 -4 -11 -23 vhcurveto
            return
          </CharString>
          <CharString index="329">
            -2 -3 -2 217 callsubr
            1 11 return
          </CharString>
          <CharString index="330">
            vvcurveto
            29 -38 6 -18 -30 -35 -8 -10 -31 vhcurveto
            return
          </CharString>
          <CharString index="331">
            rmoveto
            0 101 -15 33 33 23 49 47 10 vhcurveto
            return
          </CharString>
          <CharString index="332">
            -30 hlineto
            32 callgsubr
            return
          </CharString>
          <CharString index="333">
            -7 -6 -1 -5 hhcurveto
            -18 -5 -10 -8 0 vvcurveto
            return
          </CharString>
          <CharString index="334">
            85 112 332 112 167 112 return
          </CharString>
          <CharString index="335">
            hlineto
            -5 -11 -1 -8 -10 vvcurveto
            -17 11 -20 27 return
          </CharString>
          <CharString index="336">
            hhcurveto
            36 29 26 39 13 252 callsubr
            hvcurveto
            return
          </CharString>
          <CharString index="337">
            hhcurveto
            -52 -14 -25 -20 -18 13 -23 11 -2 hvcurveto
            return
          </CharString>
          <CharString index="338">
            -1 hhcurveto
            -1 -1 3 0 1 return
          </CharString>
          <CharString index="339">
            -106 -114 -60 -113 hvcurveto
            return
          </CharString>
          <CharString index="340">
            59 -10 70 -47 -21 431 return
          </CharString>
          <CharString index="341">
            154 hintmask 00000000
            return
          </CharString>
          <CharString index="342">
            115 37 126 return
          </CharString>
          <CharString index="343">
            -16 84 hstemhm
            258 return
          </CharString>
          <CharString index="344">
            137 43 142 return
          </CharString>
          <CharString index="345">
            hstemhm
            -260 105 return
          </CharString>
          <CharString index="346">
            -4 -9 -18 -13 return
          </CharString>
          <CharString index="347">
            49 47 vvcurveto
            45 -30 24 -44 vhcurveto
            -108 return
          </CharString>
          <CharString index="348">
            0 -4 hhcurveto
            -12 -12 3 7 -9 hvcurveto
            1 return
          </CharString>
          <CharString index="349">
            -40 -38 -20 -19 -33 vvcurveto
            -30 43 -14 35 return
          </CharString>
          <CharString index="350">
            -18 -42 -17 -39 -28 vvcurveto
            -28 18 -17 36 return
          </CharString>
          <CharString index="351">
            16 58 hvcurveto
            0 99 133 68 20 vhcurveto
            return
          </CharString>
          <CharString index="352">
            -165 -301 121 -105 -20 99 26 return
          </CharString>
          <CharString index="353">
            -31 -21 8 51 90 78 352 4 17 return
          </CharString>
          <CharString index="354">
            -20 177 callgsubr
            return
          </CharString>
          <CharString index="355">
            164 callgsubr
            170 callgsubr
            279 return
          </CharString>
          <CharString index="356">
            -22 13 -31 32 47 90 50 86 22 vhcurveto
            return
          </CharString>
          <CharString index="357">
            -10 -12 -7 -17 -15 vvcurveto
            -14 10 -21 19 return
          </CharString>
          <CharString index="358">
            -69 -41 -44 -63 return
          </CharString>
          <CharString index="359">
            -3 15 -8 16 return
          </CharString>
          <CharString index="360">
            147 141 return
          </CharString>
          <CharString index="361">
            hhcurveto
            -71 -27 46 return
          </CharString>
        <CharString name=".notdef">
          -292 endchar
        </CharString>
        <CharString name="A">
          74 callsubr
          523 -20 191 callgsubr
          312 197 -85 callgsubr
          47 72 20 32 6 -2 5 -5 4 hvcurveto
          hintmask 10111000
          -42 callsubr
          45 callsubr
        </CharString>
        <CharString name="A.alt">
          428 -96 72 9 68 99 58 497 -20 hstem
          0 91 589 147 vstem
          406 134 rmoveto
          -93 -120 -106 -65 -54 hhcurveto
          -17 -18 12 25 81 81 58 84 33 58 -7 -11 59 hvcurveto
          150 40 rmoveto
          63 58 62 62 57 63 rrcurveto
          -34 -100 -24 -102 -75 vvcurveto
          -57 34 -38 87 83 89 39 17 -1 vhcurveto
          -1 10 -3 18 -9 11 rrcurveto
          0 -47 -27 -29 -29 -25 8 44 -2 vhcurveto
          97 72 262 0 vhcurveto
          46 51 85 81 54 vvcurveto
          30 -66 27 -27 vhcurveto
          -40 -16 -56 -88 -50 -112 -91 -100 -115 -110 -111 -92 rrcurveto
          12 -76 -74 9 -48 hhcurveto
          -154 -122 -116 -100 -57 35 -33 57 101 149 89 124 148 hvcurveto
          40 -8 36 -9 24 -8 rrcurveto
          29 39 42 20 hvcurveto
          endchar
        </CharString>
        <CharString name="A.alt2">
          395 -59 111 -72 72 107 55 500 -20 hstemhm
          674 133 215 callgsubr
          545 214 rmoveto
          68 66 63 70 50 60 -16 -69 -14 -69 -9 -58 rrcurveto
          -8 -55 rmoveto
          -3 -29 -2 -25 -17 vvcurveto
          -69 34 -39 70 72 64 33 29 40 vhcurveto
          14 -5 15 -15 11 vhcurveto
          0 -47 -27 -28 246 callsubr
          vhcurveto
          158 callsubr
          hintmask 01111000
          -311 -234 -227 -171 -136 hhcurveto
          -53 -40 27 54 -20 hvcurveto
          -36 -5 -12 -26 -39 vvcurveto
          -74 52 -48 62 100 141 98 120 132 vhcurveto
          endchar
        </CharString>
        <CharString name="A.smcp">
          -40 -12 61 -46 -21 131 49 371 -20 hstemhm
          267 118 251 callgsubr
          265 162 rmoveto
          -103 hlineto
          111 143 rlineto
          -3 -33 -5 -55 -32 vvcurveto
          2 -72 rmoveto
          -77 3 20 -54 74 hhcurveto
          52 55 19 40 3 0 4 -1 4 hvcurveto
          hintmask 10111000
          -2 -6 -6 -1 -6 hhcurveto
          -47 -20 74 87 56 11 101 9 53 hvcurveto
          13 15 24 16 25 vvcurveto
          21 -56 36 -31 -35 -20 -18 -87 -15 vhcurveto
          -163 -212 -119 -143 -58 -6 rrcurveto
          -17 -12 6 -8 callgsubr
          -10 -13 -19 vvcurveto
          -33 29 -20 39 37 30 26 34 28 vhcurveto
          54 65 rlineto
          endchar
        </CharString>
        <CharString name="A.smcp.titl">
          183 75 callsubr
          88 -88 219 -104 -21 545 103 54 26 hstemhm
          -8 37 479 234 -177 177 -41 callgsubr
          hintmask 1101111100000000
          742 156 callgsubr
          -750 -26 vlineto
          750 71 callgsubr
          -750 -26 vlineto
          750 54 callgsubr
          -750 -742 vlineto
          396 268 rmoveto
          23 vlineto
          32 5 55 3 33 vhcurveto
          -111 -143 rlineto
          -93 -114 rmoveto
          hintmask 1010111100000000
          -34 -28 -30 -26 -37 hhcurveto
          -39 -29 20 33 19 10 13 0 hvcurveto
          hintmask 1101111010000000
          0 12 -6 17 vhcurveto
          58 6 119 143 163 212 rrcurveto
          87 15 20 18 35 hhcurveto
          31 56 -36 -21 -25 -24 -16 -13 -15 hvcurveto
          -9 -53 -11 -101 -56 vvcurveto
          -87 20 -74 47 6 6 1 2 6 vhcurveto
          hintmask 1101111100000000
          1 -4 0 -4 -3 vvcurveto
          -40 -55 -19 -52 -74 -20 54 77 -3 vhcurveto
          -144 hlineto
          endchar
        </CharString>
        <CharString name="AE">
          175 -24 96 -65 -21 161 50 94 126 187 67 hstemhm
          269 137 306 105 hintmask 00000000
          hintmask 10111110
          147 197 rmoveto
          232 249 rlineto
          -2 -5 0 -6 -7 vvcurveto
          -21 7 -25 11 -18 vhcurveto
          -71 -33 -43 -93 -8 -41 rrcurveto
          -4 -50 rmoveto
          -117 1 86 -54 108 hhcurveto
          113 111 57 68 35 hvcurveto
          -9 29 -29 5 0 vvcurveto
          hintmask 01111110
          -55 -43 -60 -14 -53 hhcurveto
          -89 -34 46 71 42 22 55 31 30 hvcurveto
          hintmask 10111110
          -13 20 27 -6 27 hhcurveto
          63 68 32 52 32 -30 10 -37 -32 -37 -8 -8 -25 hvcurveto
          0 -26 1 53 vvcurveto
          51 47 61 51 31 vhcurveto
          4 15 18 2 17 hhcurveto
          45 42 -14 -36 -15 -7 -18 -17 -22 hvcurveto
          -13 11 -14 12 -2 vhcurveto
          61 16 45 52 47 vvcurveto
          53 -56 33 -115 -103 -82 -54 -123 -118 vhcurveto
          -278 -266 -139 -144 -79 hhcurveto
          -29 hlineto
          -3 -5 -7 -8 -12 vvcurveto
          -44 34 -17 39 47 39 30 131 121 vhcurveto
          endchar
        </CharString>
        <CharString name="Aacute">
          74 callsubr
          620 111 hstemhm
          314 127 251 callgsubr
          641 817 -104 callgsubr
          -329 -620 -85 callgsubr
          -64 callgsubr
          hintmask 10111000
          45 callsubr
        </CharString>
        <CharString name="Abreve">
          74 callsubr
          572 95 191 callgsubr
          618 952 -89 callsubr
          -306 -755 -85 callgsubr
          47 72 20 32 6 -2 5 -5 4 hvcurveto
          hintmask 10111000
          -42 callsubr
          45 callsubr
        </CharString>
        <CharString name="Acircumflex">
          203 callgsubr
          523 216 220 callsubr
          hintmask 10111000
          552 717 -107 callsubr
          -240 -520 -85 callgsubr
          hintmask 01111000
          -64 callgsubr
          hintmask 10111000
          -214 -281 -150 -166 -81 -5 -29 -2 rcurveline
          65 callgsubr
          hintmask 10110100
          -39 32 -22 43 40 37 30 44 36 vhcurveto
          71 87 rlineto
          endchar
        </CharString>
        <CharString name="Adieresis">
          74 callsubr
          554 141 hstemhm
          312 129 -129 234 251 callgsubr
          433 761 rmoveto
          -107 callgsubr
          196 hmoveto
          -107 callgsubr
          -317 -564 -85 callgsubr
          hintmask 10110100
          47 72 20 32 6 -2 5 -5 4 hvcurveto
          hintmask 10111000
          -42 callsubr
          45 callsubr
        </CharString>
        <CharString name="Agrave">
          74 callsubr
          726 -20 hstemhm
          301 140 -140 225 -212 108 callgsubr
          hintmask 01111000
          373 923 -102 callgsubr
          -61 -726 -85 callgsubr
          hintmask 10110001
          47 72 20 32 6 -2 5 -5 4 hvcurveto
          hintmask 10110010
          -59 callsubr
          hintmask 10110100
          25 41 38 53 39 vvcurveto
          24 -52 43 -35 -39 -35 -83 -111 -23 vhcurveto
          45 callsubr
        </CharString>
        <CharString name="Amacron">
          203 callgsubr
          560 93 11 -20 220 callsubr
          hintmask 10110100
          624 783 -78 callgsubr
          hintmask 10101100
          -54 callgsubr
          hintmask 10110100
          -46 callsubr
          -312 -586 -85 callgsubr
          hintmask 01110100
          -64 callgsubr
          hintmask 10110100
          -214 -281 -150 -166 -81 -5 -29 -2 rcurveline
          65 callgsubr
          hintmask 10110010
          -39 32 -22 43 40 37 30 44 36 vhcurveto
          71 87 rlineto
          endchar
        </CharString>
        <CharString name="Aogonek">
          -16 -200 59 127 88 -75 -21 169 50 523 -20 hstemhm
          314 127 -57 162 hintmask 10111100
          314 147 rmoveto
          -98 5 21 -71 87 hhcurveto
          2 hlineto
          hintmask 11011010
          -28 -32 -17 -38 -39 -85 callsubr
          30 12 31 20 29 hvcurveto
          24 8 19 14 16 vvcurveto
          6 -2 5 -5 4 vhcurveto
          hintmask 11011100
          -42 callsubr
          -214 -281 -150 -166 -81 -5 -29 -2 rcurveline
          65 callgsubr
          -39 32 -22 43 40 37 30 44 36 vhcurveto
          71 87 rlineto
          193 50 rmoveto
          -152 hlineto
          161 198 rlineto
          -6 -54 -3 -56 -52 vvcurveto
          endchar
        </CharString>
        <CharString name="Aring">
          203 callgsubr
          561 51 0 108 0 50 hstemhm
          314 127 -43 83 0 98 0 79 -41 callgsubr
          hintmask 1010101010000000
          509 809 -34 callsubr
          hintmask 1011010101000000
          149 91 -34 callgsubr
          -346 -703 -85 callgsubr
          -64 callgsubr
          hintmask 0110101010000000
          45 callsubr
        </CharString>
        <CharString name="Atilde">
          74 callsubr
          581 102 64 -20 220 callsubr
          hintmask 01111010
          653 942 -106 callsubr
          -341 -745 -85 callgsubr
          47 72 20 32 6 -2 5 -5 4 hvcurveto
          hintmask 10111100
          -42 callsubr
          45 callsubr
        </CharString>
        <CharString name="B">
          82 -14 76 226 109 195 69 hstemhm
          75 148 8 152 77 150 -98 98 -98 142 hintmask 00000000
          hintmask 11111100
          419 307 rmoveto
          28 -22 13 -34 -36 vvcurveto
          -96 -88 -57 -95 -33 -21 12 36 vhcurveto
          100 160 310 70 vvcurveto
          hintmask 11111010
          1 9 11 1 9 hhcurveto
          56 44 -33 -68 -49 -22 -34 -27 -28 hvcurveto
          7 -17 -30 10 -26 hhcurveto
          -22 -33 -48 -32 -19 10 -10 17 hvcurveto
          hintmask 11111100
          15 36 15 4 6 hvcurveto
          87 53 rmoveto
          79 38 69 48 86 vvcurveto
          94 -73 35 -96 vhcurveto
          -62 -64 -9 -67 hhcurveto
          hintmask 11111001
          -53 -67 9 -2 hhcurveto
          10 callsubr
          -125 -156 -280 -95 vvcurveto
          -65 59 -22 99 161 216 100 144 68 -47 41 -57 21 vhcurveto
          endchar
        </CharString>
        <CharString name="B.alt">
          158 -37 136 -118 72 235 109 -89 77 236 93 hstemhm
          47 116 381 151 -94 94 -94 134 -41 callgsubr
          hintmask 0110111000000000
          598 360 rmoveto
          95 45 42 69 66 vvcurveto
          91 -83 83 -146 -199 -260 -119 -185 vhcurveto
          hintmask 1001110010000000
          -57 37 -45 74 25 29 5 12 34 vhcurveto
          123 callgsubr
          53 26 14 24 40 hvcurveto
          -13 37 48 -7 50 hhcurveto
          168 208 78 170 68 -43 41 -54 22 hvcurveto
          hintmask 0101111000000000
          -89 -53 rmoveto
          24 -22 11 -34 -37 vvcurveto
          -112 -113 -49 -105 -28 -26 3 6 -19 vhcurveto
          41 callsubr
          hvcurveto
          hintmask 1010110100000000
          112 137 61 121 98 82 -37 -83 -53 -25 -36 -29 -29 vhcurveto
          6 -15 -26 8 -22 hhcurveto
          -21 -38 -48 -32 -19 8 -10 18 hvcurveto
          hintmask 1010111000000000
          15 36 15 4 7 hvcurveto
          endchar
        </CharString>
        <CharString name="B.smcp">
          18 -12 69 165 94 140 64 hstemhm
          32 134 97 233 -136 136 -96 129 hintmask 11110010
          421 282 rmoveto
          58 30 50 39 64 vvcurveto
          76 -60 29 -80 vhcurveto
          -48 -77 -8 -54 hhcurveto
          -33 -44 6 2 -12 hvcurveto
          -11 -16 -18 -15 -8 6 -8 7 -2 hvcurveto
          27 -2 18 -2 -18 vvcurveto
          -52 -33 -84 -32 -80 vhcurveto
          -29 -70 -26 -67 -32 vvcurveto
          -55 81 -19 81 vhcurveto
          hintmask 11110100
          129 173 80 114 48 -34 34 -41 18 hvcurveto
          -85 -49 rmoveto
          15 -15 9 -24 -24 vvcurveto
          -71 -63 -42 -68 -20 -43 9 23 43 38 87 32 83 vhcurveto
          25 65 26 61 3 28 rrcurveto
          42 hlineto
          hintmask 11110010
          38 30 -23 -50 -33 -14 -26 -17 -18 hvcurveto
          5 -14 -20 5 -19 hhcurveto
          hintmask 11111000
          -22 -31 -40 -26 -19 13 -9 18 11 21 6 5 10 hvcurveto
          endchar
        </CharString>
        <CharString name="B.smcp.titl">
          218 75 callsubr
          94 69 165 94 140 56 124 54 26 hstemhm
          -23 155 134 194 136 184 -151 151 hintmask 1111111110000000
          780 -106 rmoveto
          742 -803 -742 vlineto
          544 388 rmoveto
          41 -18 34 -34 -48 vvcurveto
          -114 -173 -80 -129 -81 -81 19 55 32 26 67 29 70 vhcurveto
          32 80 33 84 52 vvcurveto
          18 -18 2 -27 2 vhcurveto
          -7 2 -6 8 8 vvcurveto
          15 16 18 11 vhcurveto
          -2 12 44 -6 33 54 77 8 48 hhcurveto
          hintmask 1111111101000000
          80 60 -29 -76 -64 -50 -39 -58 -30 hvcurveto
          -85 -49 rmoveto
          -5 -10 -21 -6 -11 hhcurveto
          -18 -13 9 19 26 31 40 22 19 20 -5 -5 14 hvcurveto
          17 18 14 26 33 vvcurveto
          50 -30 23 -38 vhcurveto
          -42 hlineto
          -3 -28 -26 -61 -25 -65 rrcurveto
          -32 -83 -38 -87 -43 vvcurveto
          -23 43 -9 20 68 63 42 71 24 -9 24 -15 15 vhcurveto
          344 -439 149 callsubr
        </CharString>
        <CharString name="B_c_n">
          1175 -66 75 -48 69 -40 93 -93 139 -121 -21 26 -21 266 100 -23 86 -86 231 -163 77 136 92 hstemhm
          0 112 424 148 -88 88 33 22 -22 121 170 161 -126 126 95 110 44 131 1 139 hintmask 010000010011011010111000
          183 16 rmoveto
          -24 33 59 -31 69 hhcurveto
          159 181 109 137 85 -112 35 -3 1 hvcurveto
          8 3 162 70 131 vvcurveto
          72 callsubr
          244 callgsubr
          228 callgsubr
          -59 0 hvcurveto
          hintmask 010000100111101010111000
          0 -35 10 -22 -26 -28 -41 -32 -19 9 -13 17 25 42 22 0 vhcurveto
          0 28 -29 -54 vvcurveto
          -91 -73 -71 -114 -45 -41 14 15 -32 vhcurveto
          83 94 64 170 56 167 rrcurveto
          13 39 12 16 0 vvcurveto
          hintmask 000100001011101010111000
          0 -29 21 -36 -68 -26 -63 -50 -13 vhcurveto
          -45 -177 -20 -111 -58 -57 rrcurveto
          17 -28 -28 4 -23 hhcurveto
          -20 -51 -45 -28 hvcurveto
          hintmask 000010100111101010111000
          -27 32 -42 51 29 31 13 16 26 vhcurveto
          1172 245 rmoveto
          53 92 121 80 0 0 21 -1 -30 -106 -132 -195 -76 vvcurveto
          hintmask 100000100111100110111000
          -63 37 -28 52 136 109 113 11 16 -19 16 -6 vhcurveto
          -6 -78 -81 -60 hhcurveto
          -20 -14 14 25 hvcurveto
          76 140 215 102 vvcurveto
          117 callgsubr
          -103 -89 -83 -67 59 callsubr
          74 -17 32 -19 -39 -75 -40 -39 -62 vhcurveto
          37 -13 -34 18 -50 hhcurveto
          -182 -166 -199 -151 hvcurveto
          hintmask 001000100111100101111000
          -80 47 -60 88 31 callgsubr
          61 callsubr
          -60 -22 48 46 hvcurveto
          3 vlineto
          3 144 101 72 0 vvcurveto
          5 16 13 2 11 hhcurveto
          40 19 -21 -36 2 hvcurveto
          hintmask 010000100111101010111000
          -24 -15 -11 -24 -19 vvcurveto
          -17 11 -13 21 40 84 53 66 5 vhcurveto
          23 35 36 23 9 hhcurveto
          8 7 -14 -22 -81 -20 -68 -8 callgsubr
          -106 88 callgsubr
          hintmask 000001100111101010111000
          -28 55 -10 25 32 callsubr
          vhcurveto
          endchar
        </CharString>
        <CharString name="B_s_A_s">
          1658 -243 71 -71 120 -120 208 -30 80 -24 60 -60 167 -167 198 -192 -21 25 -21 243 96 16 86 12 69 114 92 6 -20 hstemhm
          -205 105 109 112 443 139 -98 98 -98 143 -120 52 51 142 callsubr
          -38 38 38 27 363 133 94 117 -31 31 -31 126 callsubr
          hintmask 00000000000000000000000000000000
          hintmask 10000010011110111000110111100100
          1554 187 rmoveto
          -25 4 -27 11 -26 14 41 60 40 66 39 68 -14 -60 -18 -100 -10 -63 rrcurveto
          -488 148 rmoveto
          29 callsubr
          91 callgsubr
          -14 callgsubr
          vhcurveto
          hintmask 10001000011110111000111011100100
          -74 callgsubr
          hintmask 10000010011110111000111011100100
          116 callsubr
          -605 212 rmoveto
          2 -7 -7 1 -7 hhcurveto
          -33 -37 -18 -32 -20 hvcurveto
          hintmask 00101000011110111000111011100100
          -226 -145 -64 -446 -181 hhcurveto
          -30 -30 25 52 hvcurveto
          28 5 17 5 vvcurveto
          2 -4 8 -3 164 callgsubr
          -60 50 -43 81 vhcurveto
          hintmask 10010000011110110100111011100100
          302 151 473 317 82 hvcurveto
          -258 -103 rmoveto
          244 callgsubr
          hvcurveto
          hintmask 10010000011110110010011011100100
          228 callgsubr
          -89 0 vhcurveto
          0 -35 10 -22 -26 -28 -41 -32 -19 9 -13 17 25 36 19 0 vhcurveto
          0 53 -25 -74 vvcurveto
          -71 -55 -57 -106 -25 -27 3 7 -30 vhcurveto
          -4 1 -12 -16 -18 vvcurveto
          -25 14 -32 76 170 138 111 122 105 -122 24 -3 1 vhcurveto
          8 5 162 98 131 vvcurveto
          hintmask 10010000011110111000111011100100
          72 callsubr
          1346 -293 rmoveto
          -4 -26 -1 -22 -15 vvcurveto
          -69 34 -39 70 59 53 22 24 40 vhcurveto
          -20 22 36 -15 52 hhcurveto
          hintmask 10000000111110111000111011100100
          114 callsubr
          hvcurveto
          53 callgsubr
          hintmask 10001000011110111000111011001010
          121 callgsubr
          29 callsubr
          hintmask 10010000011110111000111011010001
          78 callgsubr
          -47 -23 17 0 vhcurveto
          hintmask 10001000011110111000111011100100
          6 9 19 11 32 vvcurveto
          25 -30 13 -28 -51 -8 -51 -29 -4 0 -4 1 -4 vhcurveto
          hintmask 01000100011101110001111011100100
          -6 -14 -17 -5 -12 hhcurveto
          246 callsubr
          hvcurveto
          158 callsubr
          -64 -90 -65 -103 -73 -98 rrcurveto
          37 -61 -63 39 -55 hhcurveto
          -79 -14 -51 -31 -29 21 -22 15 hvcurveto
          16 2 17 21 36 hhcurveto
          33 49 -19 -19 54 hvcurveto
          -169 -136 -167 -139 -233 hhcurveto
          -114 -51 51 42 4 -2 2 -4 -11 -35 -44 -43 -68 53 -55 123 hvcurveto
          hintmask 10000001011110110001111011100100
          253 208 161 239 176 hvcurveto
          -9 32 33 -6 30 hhcurveto
          endchar
        </CharString>
        <CharString name="C">
          181 callsubr
          hstem
          115 callsubr
          vstem
          531 101 21 callsubr
          -71 -27 46 64 253 callsubr
          245 91 38 hvcurveto
          55 -1 20 -23 -29 vvcurveto
          -17 -7 -20 -11 -19 vhcurveto
          13 callgsubr
          72 14 61 64 51 vvcurveto
          38 -34 32 -90 -244 -225 -310 -205 -101 55 -75 133 113 117 57 68 43 vhcurveto
          endchar
        </CharString>
        <CharString name="C.alt">
          21 -126 90 642 61 hstem
          115 callsubr
          vstem
          541 21 -28 callgsubr
          -39 -36 -60 -52 -81 hhcurveto
          -78 -30 45 127 204 141 228 91 38 hvcurveto
          55 -1 20 -23 -29 vvcurveto
          -17 -7 -20 -11 -19 vhcurveto
          13 callgsubr
          72 14 61 64 51 vvcurveto
          38 -34 32 -90 -244 -225 -294 -261 -175 80 -63 118 120 108 78 69 45 vhcurveto
          endchar
        </CharString>
        <CharString name="C.smcp">
          -81 -19 79 464 -20 hstem
          19 137 237 123 vstem
          406 98 rmoveto
          -6 27 -34 6 0 vvcurveto
          -34 -32 -55 -37 -58 hhcurveto
          -48 -17 33 47 112 105 184 67 31 hvcurveto
          32 -2 33 -15 -19 vvcurveto
          -12 -6 -15 -7 -13 vhcurveto
          207 callgsubr
          -2 vvcurveto
          -10 14 -15 11 -1 vhcurveto
          61 12 51 52 40 vvcurveto
          33 -50 26 -75 -193 -179 -243 -160 -80 45 -60 109 92 107 62 55 34 vhcurveto
          endchar
        </CharString>
        <CharString name="C.smcp.titl">
          119 75 callsubr
          87 543 112 54 26 hstem
          -10 129 497 57 vstem
          55 callsubr
          476 237 rmoveto
          0 34 -6 6 -27 vhcurveto
          -55 -34 -107 -62 -92 hhcurveto
          -109 -45 60 80 160 179 243 193 75 50 -26 -33 -40 -51 -52 -61 -12 hvcurveto
          -11 1 -14 15 10 vvcurveto
          2 0 1 1 1 vhcurveto
          7 13 6 15 12 vvcurveto
          19 -33 15 -32 2 vhcurveto
          -67 -31 -105 -184 -112 vvcurveto
          -47 17 -33 48 58 55 37 34 32 vhcurveto
          endchar
        </CharString>
        <CharString name="C_h">
          568 -24 90 -74 74 -55 -21 616 61 54 -20 hstemhm
          115 callsubr
          87 156 -80 -20 callsubr
          hintmask 1001111100100000
          764 25 callsubr
          -74 -37 -182 -53 -129 vhcurveto
          -77 -68 -124 -99 -148 254 callsubr
          64 253 callsubr
          245 91 38 hvcurveto
          55 -1 20 -23 -29 vvcurveto
          -17 -7 -20 -11 -19 vhcurveto
          13 callgsubr
          72 14 61 64 51 vvcurveto
          38 -34 32 -90 -244 -225 -310 -205 -101 55 -75 133 116 111 52 76 85 vhcurveto
          -12 -24 -9 -26 -24 vvcurveto
          hintmask 0101111100100000
          -28 45 -10 25 32 callsubr
          vhcurveto
          -3 callsubr
          vvcurveto
          hintmask 0011111001000000
          8 callgsubr
          -2 -38 -32 -31 hhcurveto
          hintmask 1001111010000000
          -5 -5 5 7 hvcurveto
          hintmask 1001111100010000
          123 callsubr
        </CharString>
        <CharString name="Cacute">
          181 callsubr
          135 111 hstem
          70 152 vstem
          745 802 -104 callgsubr
          -214 -701 21 callsubr
          -71 -27 46 64 253 callsubr
          245 91 38 hvcurveto
          55 -1 20 -23 -29 vvcurveto
          -17 -7 -20 -11 -19 vhcurveto
          13 callgsubr
          72 14 61 64 51 vvcurveto
          38 -34 32 -90 -244 -225 -310 -205 -101 55 -75 133 113 117 57 68 43 vhcurveto
          endchar
        </CharString>
        <CharString name="Ccaron">
          181 callsubr
          -61 101 219 -20 hstemhm
          115 callsubr
          169 callsubr
          735 924 -104 callsubr
          -204 -823 21 callsubr
          -71 -27 46 64 253 callsubr
          245 91 38 hvcurveto
          55 -1 20 -23 -29 vvcurveto
          -17 -7 -20 -11 -19 vhcurveto
          33 callgsubr
          hintmask 11011100
          -33 callgsubr
          72 14 61 64 51 vvcurveto
          38 -34 32 -90 -244 -225 -310 -205 -101 55 -75 133 113 117 57 68 43 vhcurveto
          endchar
        </CharString>
        <CharString name="Ccedilla">
          31 -249 49 176 90 -90 167 463 61 hstemhm
          70 152 -90 61 79 80 177 134 hintmask 10111011
          531 101 rmoveto
          13 -9 29 -20 -28 -57 -34 -41 -57 vhcurveto
          hintmask 11011011
          -1 -12 -14 -1 -14 254 callsubr
          64 253 callsubr
          245 91 38 hvcurveto
          55 -1 20 -23 -29 vvcurveto
          -17 -7 -20 -11 -19 vhcurveto
          13 callgsubr
          72 14 61 64 51 vvcurveto
          38 -34 32 -90 -244 -225 -310 -205 -98 51 -73 124 -5 vhcurveto
          -14 -12 -11 -12 -7 -8 rrcurveto
          hintmask 11010111
          -93 callsubr
          18 17 29 22 vhcurveto
          91 16 83 48 35 55 rrcurveto
          endchar
        </CharString>
        <CharString name="Ccircumflex">
          181 callsubr
          255 -20 hstem
          115 callsubr
          vstem
          652 703 -107 callsubr
          -121 -602 21 callsubr
          -71 -27 46 64 253 callsubr
          245 91 38 hvcurveto
          55 -1 20 -23 -29 vvcurveto
          -17 -7 -20 -11 -19 vhcurveto
          13 callgsubr
          72 14 61 64 51 vvcurveto
          38 -34 32 -90 -244 -225 -310 -205 -101 55 -75 133 113 117 57 68 43 vhcurveto
          endchar
        </CharString>
        <CharString name="Cdotaccent">
          181 callsubr
          58 141 hstem
          115 callsubr
          vstem
          585 735 163 callsubr
          66 32 vvcurveto
          11 -2 7 -4 -65 -84 -25 -23 -15 vhcurveto
          1 -8 0 -9 -10 vvcurveto
          -18 62 callgsubr
          -3 10 28 -3 29 hhcurveto
          30 31 3 7 14 hvcurveto
          -54 -634 21 callsubr
          -71 -27 46 64 253 callsubr
          245 91 38 hvcurveto
          55 -1 20 -23 -29 vvcurveto
          -17 -7 -20 -11 -19 vhcurveto
          13 callgsubr
          72 14 61 64 51 vvcurveto
          38 -34 32 -90 -244 -225 -310 -205 -101 55 -75 133 113 117 57 68 43 vhcurveto
          endchar
        </CharString>
        <CharString name="D">
          127 -14 79 527 69 hstem
          75 145 11 152 163 153 vstem
          383 590 rmoveto
          -12 callsubr
          hvcurveto
          100 163 308 70 vvcurveto
          316 -139 rmoveto
          136 -80 74 -110 vhcurveto
          -96 -44 -9 -67 -53 -77 9 -2 hhcurveto
          10 callsubr
          -125 -156 -280 -95 196 callsubr
          vhcurveto
          endchar
        </CharString>
        <CharString name="D.alt">
          179 -37 136 -118 72 255 77 236 93 hstemhm
          47 116 474 124 hintmask 00000000
          hintmask 01111100
          253 62 rmoveto
          41 callsubr
          112 137 61 120 112 105 -54 -131 -167 -114 -216 -197 -28 -26 3 6 -19 hvcurveto
          -69 -61 rmoveto
          -13 37 48 -7 50 hhcurveto
          279 163 265 213 173 -120 82 -150 -178 -266 -119 -185 -57 37 -45 74 25 29 5 12 34 hvcurveto
          hintmask 10111100
          123 callgsubr
          hvcurveto
          hintmask 01111100
          53 26 14 24 40 hvcurveto
          endchar
        </CharString>
        <CharString name="D.smcp">
          26 -12 72 396 64 hstem
          34 132 248 137 vstem
          109 469 rmoveto
          26 -2 19 -2 -18 vvcurveto
          -51 -34 -86 -31 -79 vhcurveto
          -28 -69 -27 -68 -32 vvcurveto
          -54 62 -20 59 198 198 160 205 107 -66 60 -90 vhcurveto
          -50 -66 -8 -59 hhcurveto
          -35 -50 6 2 -13 hvcurveto
          -10 -16 -18 -15 -8 4 -8 9 -2 hvcurveto
          182 -13 rmoveto
          29 hlineto
          55 39 -30 -94 -154 -101 -118 -95 -19 -33 8 23 42 36 89 34 81 hvcurveto
          28 64 24 61 3 28 rrcurveto
          endchar
        </CharString>
        <CharString name="D.smcp.titl">
          226 75 callsubr
          94 524 124 54 26 hstem
          -13 147 132 248 137 139 vstem
          790 -106 rmoveto
          742 -803 -742 vlineto
          222 575 rmoveto
          -9 2 -4 8 8 vvcurveto
          15 16 18 10 vhcurveto
          -2 13 50 -6 35 59 66 8 50 hhcurveto
          90 66 -60 -107 -205 -198 -160 -198 -59 -62 20 54 32 27 68 28 69 hvcurveto
          31 79 34 86 51 vvcurveto
          18 -19 2 -26 2 vhcurveto
          182 -13 rmoveto
          -3 -28 -24 -61 -28 -64 rrcurveto
          -34 -81 -36 -89 -42 vvcurveto
          -23 33 -8 19 95 101 118 154 94 -39 30 -55 vhcurveto
          370 -662 149 callsubr
        </CharString>
        <CharString name="Dcaron">
          127 -14 79 527 60 -60 122 219 -20 hstemhm
          75 145 11 152 163 153 hintmask 00000000
          hintmask 10111110
          622 931 -104 callsubr
          -239 -341 rmoveto
          -12 callsubr
          hvcurveto
          100 163 308 70 vvcurveto
          316 -139 rmoveto
          136 -80 74 -110 vhcurveto
          -96 -44 -9 -67 -53 -77 9 -2 hhcurveto
          hintmask 11011110
          10 callsubr
          -125 -156 -280 -95 196 callsubr
          vhcurveto
          endchar
        </CharString>
        <CharString name="Dcroat">
          -84 callgsubr
        </CharString>
        <CharString name="Delta">
          42 -32 106 -92 -21 39 -21 768 -20 hstemhm
          362 87 hintmask 00000000
          hintmask 10011000
          399 54 rmoveto
          -1 -41 -45 -1 -45 -77 -60 3 -61 hhcurveto
          73 75 103 140 118 237 rrcurveto
          -1 -37 -1 -43 -44 vvcurveto
          -118 7 -130 30 -81 vhcurveto
          63 -75 rmoveto
          -13 22 20 -5 17 hhcurveto
          39 24 28 28 22 -15 23 -36 10 hvcurveto
          -66 69 -18 172 134 vvcurveto
          52 3 46 3 32 vhcurveto
          25 41 39 23 39 vvcurveto
          24 -54 43 -36 -54 2 -106 -32 -11 vhcurveto
          -108 -216 -244 -318 -81 -1 rrcurveto
          hintmask 00111000
          -43 -1 -20 -24 -26 vvcurveto
          hintmask 01011000
          -27 23 -28 39 17 20 5 13 23 vhcurveto
          0 431 -7 39 vhcurveto
          endchar
        </CharString>
        <CharString name="E">
          60 callgsubr
          190 62 44 callgsubr
          hintmask 00000000
          hintmask 11110100
          498 101 21 callsubr
          -76 -24 46 71 81 72 41 -8 callgsubr
          19 -19 45 72 60 40 49 25 -18 15 -33 218 callsubr
          vhcurveto
          117 callsubr
          -88 callgsubr
          hintmask 11101100
          13 callgsubr
          -86 callgsubr
          hintmask 11110100
          -63 callsubr
        </CharString>
        <CharString name="E.smcp">
          -47 -19 93 -69 90 358 55 6 116 callgsubr
          hintmask 10100000
          98 37 rmoveto
          -4 47 73 -52 108 hhcurveto
          56 38 48 42 10 -2 10 -4 8 hvcurveto
          0 -40 -25 -57 -44 -65 6 8 -56 vhcurveto
          37 32 25 41 23 56 rrcurveto
          -2 21 25 -1 24 hhcurveto
          19 38 0 2 16 hvcurveto
          23 15 7 21 16 vvcurveto
          8 -2 6 -2 5 vhcurveto
          -46 -4 -65 -6 -37 -2 19 52 18 67 14 54 rrcurveto
          4 17 44 1 21 hhcurveto
          hintmask 10010000
          22 14 -25 -37 hvcurveto
          hintmask 10100000
          -5 0 -6 -1 -6 vhcurveto
          hintmask 01010000
          -7 9 12 -3 12 hhcurveto
          4 3 0 1 4 hvcurveto
          30 32 33 84 33 vvcurveto
          -5 -63 -93 -1 -57 hhcurveto
          -117 -57 5 1 -12 223 callgsubr
          hintmask 10100000
          92 callgsubr
        </CharString>
        <CharString name="E.smcp.titl">
          153 75 callsubr
          87 -87 111 503 128 54 26 hstemhm
          -16 104 -104 225 311 187 hintmask 00000000
          hintmask 11011101
          707 62 callsubr
          530 205 rmoveto
          4 -8 2 -10 -10 vvcurveto
          -42 -38 -48 -56 -108 -73 52 4 -47 vhcurveto
          -3 -3 -32 -29 -34 hhcurveto
          hintmask 10111101
          165 callgsubr
          41 -63 -27 33 vvcurveto
          hintmask 11011011
          14 15 17 10 vhcurveto
          -1 12 57 -5 117 hhcurveto
          57 93 1 5 63 hvcurveto
          -33 -33 -84 -30 -32 vhcurveto
          -1 -4 -3 241 callsubr
          6 0 6 5 vvcurveto
          37 -14 25 -22 -21 -44 -1 -4 -17 vhcurveto
          -14 -54 -18 -67 -19 -52 37 2 65 6 46 4 rrcurveto
          2 -5 2 -6 -8 vvcurveto
          -16 -7 -21 -23 -15 vhcurveto
          -2 -16 -38 0 -19 hhcurveto
          -24 -25 1 2 -21 hvcurveto
          -23 -56 -25 -41 -37 -32 rrcurveto
          -8 56 65 -6 44 hhcurveto
          57 40 25 0 hvcurveto
          endchar
        </CharString>
        <CharString name="Eacute">
          60 callgsubr
          190 62 120 111 84 callsubr
          hintmask 00000000
          hintmask 11111000
          715 787 -104 callgsubr
          -217 -686 21 callsubr
          -76 -24 46 71 81 72 41 -8 callgsubr
          19 -19 45 72 60 40 49 25 -18 15 -33 218 callsubr
          vhcurveto
          117 callsubr
          -88 callgsubr
          hintmask 11110100
          13 callgsubr
          -86 callgsubr
          hintmask 11111000
          -63 callsubr
        </CharString>
        <CharString name="Ecaron">
          60 callgsubr
          55 197 -62 62 -62 106 219 -20 44 callgsubr
          -41 callgsubr
          hintmask 1100111010000000
          695 928 -104 callsubr
          -197 -827 21 callsubr
          hintmask 1110011010000000
          -76 -24 46 71 81 72 41 -8 callgsubr
          19 -19 45 72 60 40 49 25 -18 15 -33 218 callsubr
          vhcurveto
          117 callsubr
          -88 callgsubr
          13 callgsubr
          hintmask 1101010110000000
          -86 callgsubr
          -96 -51 -77 -79 -96 vvcurveto
          -117 82 -43 108 vhcurveto
          hintmask 1110011010000000
          113 117 57 68 43 hvcurveto
          endchar
        </CharString>
        <CharString name="Ecircumflex">
          60 callgsubr
          0 190 -135 197 0 245 44 callgsubr
          hintmask 00000000
          hintmask 11001101
          588 693 -107 callsubr
          -90 -592 21 callsubr
          -76 -24 46 71 81 72 41 -8 callgsubr
          19 -19 45 72 60 40 49 25 -18 15 -33 218 callsubr
          vhcurveto
          117 callsubr
          hintmask 11010101
          -88 callgsubr
          13 callgsubr
          hintmask 10101011
          -86 callgsubr
          hintmask 11010101
          -63 callsubr
        </CharString>
        <CharString name="Edieresis">
          60 callgsubr
          190 62 46 141 44 callgsubr
          hintmask 00000000
          hintmask 11111010
          461 723 rmoveto
          -107 callgsubr
          196 hmoveto
          -107 callgsubr
          -159 -622 21 callsubr
          -76 -24 46 71 81 72 41 -8 callgsubr
          19 -19 45 72 60 40 49 25 -18 15 -33 218 callsubr
          vhcurveto
          117 callsubr
          -88 callgsubr
          hintmask 11110110
          13 callgsubr
          -86 callgsubr
          hintmask 11111010
          -63 callsubr
        </CharString>
        <CharString name="Edotaccent">
          60 callgsubr
          190 62 67 141 44 callgsubr
          -130 166 hintmask 00000000
          hintmask 11111001
          628 744 163 callsubr
          66 32 vvcurveto
          11 -2 7 -4 -65 -84 -25 -23 -15 vhcurveto
          1 -8 0 -9 -10 vvcurveto
          -18 62 callgsubr
          -3 10 28 -3 29 hhcurveto
          30 31 3 7 14 hvcurveto
          -130 -643 21 callsubr
          -76 -24 46 71 81 72 41 -8 callgsubr
          19 -19 45 72 60 40 49 25 -18 15 -33 218 callsubr
          vhcurveto
          117 callsubr
          -88 callgsubr
          hintmask 11110110
          13 callgsubr
          -86 callgsubr
          hintmask 11111010
          -63 callsubr
        </CharString>
        <CharString name="Egrave">
          60 callgsubr
          190 62 0 26 201 -20 44 callgsubr
          hintmask 00000000
          hintmask 11011101
          404 894 -102 callgsubr
          94 -793 21 callsubr
          -76 -24 46 71 81 72 41 -8 callgsubr
          19 -19 45 72 60 40 49 25 -18 15 -33 218 callsubr
          vhcurveto
          117 callsubr
          -88 callgsubr
          hintmask 11101011
          13 callgsubr
          -86 callgsubr
          hintmask 11101101
          -63 callsubr
        </CharString>
        <CharString name="Emacron">
          60 callgsubr
          0 190 -135 197 41 93 11 -20 84 callsubr
          -132 186 124 130 -41 callgsubr
          hintmask 1101101001000000
          664 734 -78 callgsubr
          hintmask 1101010011000000
          -54 callgsubr
          hintmask 1101101001000000
          -46 callsubr
          -166 -633 21 callsubr
          -76 -24 46 71 81 72 41 -8 callgsubr
          19 -19 45 72 60 40 49 25 -18 15 -33 218 callsubr
          vhcurveto
          117 callsubr
          hintmask 1010100101000000
          -88 callgsubr
          13 callgsubr
          hintmask 1101101001000000
          -86 callgsubr
          -63 callsubr
        </CharString>
        <CharString name="Eng">
          180 -274 62 -62 191 64 88 509 119 hstemhm
          207 120 -120 151 hintmask 00000000
          hintmask 10110100
          486 -47 rmoveto
          -105 -18 -36 -60 -55 hhcurveto
          -29 -21 22 30 hvcurveto
          22 9 35 10 vvcurveto
          5 -6 5 -10 -44 -67 -41 -58 -47 48 -45 81 130 78 79 228 26 vhcurveto
          469 53 110 76 60 hhcurveto
          8 6 -1 -2 6 hvcurveto
          2 10 1 11 9 vvcurveto
          58 -43 34 -49 -34 -37 -16 -35 -28 vhcurveto
          -47 -58 -9 -153 -54 -305 -79 134 -42 122 -60 152 rrcurveto
          11 33 11 27 33 vvcurveto
          28 -24 25 -68 51 callgsubr
          vhcurveto
          hintmask 01111000
          -205 -59 -94 -178 -49 hhcurveto
          -1 -11 -10 -1 -7 hhcurveto
          -4 -5 -4 -10 -11 vvcurveto
          -24 24 -36 49 86 48 151 222 71 vhcurveto
          59 -147 72 -141 87 -113 rrcurveto
          endchar
        </CharString>
        <CharString name="Eogonek">
          -15 -200 59 117 90 220 129 190 62 84 callsubr
          -48 87 139 130 hintmask 11110101
          498 101 21 callsubr
          -76 -24 46 71 81 72 41 -8 callgsubr
          19 -19 45 72 60 40 49 25 -18 15 -33 218 callsubr
          vhcurveto
          117 callsubr
          -88 callgsubr
          13 callgsubr
          -86 callgsubr
          hintmask 11111011
          -96 -51 -77 -79 -96 vvcurveto
          -117 82 -43 108 34 35 5 10 33 vhcurveto
          -34 -36 -22 -41 -45 4 callgsubr
          29 49 40 36 hvcurveto
          31 20 24 23 16 24 rrcurveto
          endchar
        </CharString>
        <CharString name="Eth">
          -84 callgsubr
        </CharString>
        <CharString name="Euro">
          0 -16 115 77 58 220 117 hstem
          180 246 rmoveto
          16 2 16 3 16 vhcurveto
          106 2 116 6 16 179 callsubr
          -45 -6 -59 -7 -62 -5 rrcurveto
          56 35 61 38 73 hhcurveto
          70 52 -32 -53 8 hvcurveto
          48 21 22 41 34 vvcurveto
          58 -63 48 -104 -137 -96 -101 -116 -46 vhcurveto
          -35 -3 -35 -2 -33 64 callsubr
          59 hlineto
          -5 -20 -3 -20 -2 -19 -25 -2 -24 -1 -24 64 callsubr
          47 hlineto
          -129 8 78 -62 89 hhcurveto
          76 80 49 91 55 hvcurveto
          0 -7 15 -12 6 vhcurveto
          -28 -47 -53 -18 -46 hhcurveto
          -57 -53 22 55 -23 hvcurveto
          104 3 111 5 16 179 callsubr
          -53 -7 -72 -8 -74 -6 rrcurveto
          endchar
        </CharString>
        <CharString name="F">
          25 -74 53 -53 202 140 95 119 243 -194 155 -93 132 hstemhm
          -20 112 18 69 hintmask 00000000
          hintmask 10110011
          435 363 rmoveto
          56 194 rlineto
          -14 51 50 -12 50 hhcurveto
          65 50 61 55 27 -17 12 -41 hvcurveto
          hintmask 01101011
          -55 -74 -21 -39 -73 hvcurveto
          38 -64 -126 61 -87 hhcurveto
          15 callgsubr
          75 18 30 41 50 70 -12 -13 66 vhcurveto
          -65 -54 -36 -65 -23 -80 rrcurveto
          2 -16 -24 3 -15 hhcurveto
          -37 -19 -22 -26 -14 4 -11 6 -11 hvcurveto
          5 20 22 2 36 hhcurveto
          -225 -61 -25 -93 -51 hhcurveto
          -31 -17 31 41 hvcurveto
          hintmask 10110011
          40 16 16 9 vvcurveto
          6 -5 6 -9 -53 -61 -35 -66 -66 59 -35 83 vhcurveto
          hintmask 10100111
          121 97 119 246 72 hvcurveto
          -14 36 34 -9 26 hhcurveto
          56 26 37 43 8 -1 9 -2 8 hvcurveto
          -7 -13 -25 -3 -28 hhcurveto
          endchar
        </CharString>
        <CharString name="F.smcp">
          -122 13 -21 461 55 6 -20 hstemhm
          19 139 hintmask 00000000
          hintmask 11010000
          483 513 rmoveto
          -4 -55 -74 -1 -53 hhcurveto
          hintmask 10110000
          -119 -57 5 1 -19 hvcurveto
          -6 -16 -17 -14 -8 4 -7 11 -2 hvcurveto
          12 -2 27 -5 23 -7 -5 -68 -51 -116 -33 -80 rrcurveto
          -26 -64 -27 -55 -25 vvcurveto
          -45 27 -7 40 32 38 24 11 10 vhcurveto
          -6 9 -2 6 17 vvcurveto
          35 16 50 18 52 vhcurveto
          -3 25 29 -1 27 hhcurveto
          20 38 1 1 15 hvcurveto
          22 15 7 21 16 vvcurveto
          7 -1 6 -2 5 vhcurveto
          -6 -59 -59 -3 -39 hhcurveto
          23 61 22 63 20 69 rrcurveto
          hintmask 11010000
          3 16 37 2 15 hhcurveto
          23 16 -25 -38 -5 0 -6 -1 -5 hvcurveto
          -7 9 12 -3 12 hhcurveto
          4 4 0 1 4 hvcurveto
          30 32 33 80 32 vvcurveto
          endchar
        </CharString>
        <CharString name="F.smcp.titl">
          78 75 callsubr
          98 516 128 54 26 hstem
          -18 137 vstem
          640 156 callgsubr
          -658 -26 vlineto
          658 71 callgsubr
          -658 -26 vlineto
          658 54 callgsubr
          -658 -742 vlineto
          612 615 rmoveto
          -32 -33 -80 -30 -32 vhcurveto
          -1 -4 -4 241 callsubr
          5 0 6 5 vvcurveto
          38 -16 25 -23 -15 -37 -2 -3 -16 vhcurveto
          -20 -69 -22 -63 -23 -61 rrcurveto
          39 59 3 6 59 hvcurveto
          2 -5 1 -6 -7 vvcurveto
          -16 -7 -21 -22 -15 vhcurveto
          -1 -15 -38 -1 -20 hhcurveto
          -27 -29 1 3 -25 hvcurveto
          -18 -52 -16 -50 -35 vvcurveto
          -17 2 -6 6 -9 vhcurveto
          -11 -10 -38 -24 -32 hhcurveto
          -40 -27 7 45 25 24 55 29 64 hvcurveto
          36 80 48 116 5 68 -23 7 -27 5 -12 2 rrcurveto
          -11 2 -4 7 8 vvcurveto
          14 16 17 6 vhcurveto
          -1 19 57 -5 119 hhcurveto
          53 74 1 4 55 hvcurveto
          endchar
        </CharString>
        <CharString name="G">
          140 callsubr
          hstemhm
          13 136 -77 77 57 callsubr
          hintmask 1111001010000000
          465 218 rmoveto
          -61 callsubr
          hintmask 1110010100000000
          -80 callgsubr
          hintmask 1110101010000000
          -49 callsubr
        </CharString>
        <CharString name="G.alt">
          77 -298 71 203 90 540 61 hstem
          -87 133 22 152 342 127 vstem
          509 82 rmoveto
          41 41 47 57 60 vvcurveto
          34 -62 21 -14 -73 -52 -154 -61 -21 vhcurveto
          -1 -4 -2 -3 -1 -3 rrcurveto
          -3 -16 -18 -1 -19 254 callsubr
          65 hvcurveto
          1 147 140 245 91 37 rrcurveto
          62 -1 48 -38 -38 vvcurveto
          -15 -5 -16 -8 -14 vhcurveto
          13 callgsubr
          68 14 53 60 53 vvcurveto
          44 -56 41 -96 -244 -225 -310 -205 -118 78 -58 110 30 32 11 14 30 vhcurveto
          -114 -39 -45 -114 -71 hhcurveto
          -81 -66 54 51 hvcurveto
          20 20 27 13 vvcurveto
          2 -10 18 -3 -47 -93 -51 -83 -65 71 -57 115 232 116 196 184 62 vhcurveto
          endchar
        </CharString>
        <CharString name="G.smcp">
          -40 -18 76 -76 246 -223 -21 482 59 hstemhm
          12 132 271 107 hintmask 01011100
          418 151 rmoveto
          3 hlineto
          36 25 18 33 15 -8 12 -17 8 hvcurveto
          -5 -17 -24 -4 -19 hhcurveto
          -46 -46 3 2 -50 hvcurveto
          -2 -3 -2 -10 -10 vvcurveto
          -8 2 -8 3 -5 vhcurveto
          20 -9 15 -6 31 -6 -9 -38 -14 -23 -13 -27 rrcurveto
          hintmask 10011100
          0 -29 -22 -49 -36 -28 23 47 113 101 184 76 41 vhcurveto
          69 25 -19 -30 -8 -8 -16 -4 -6 hvcurveto
          207 callgsubr
          vvcurveto
          -7 18 -17 12 -1 vhcurveto
          52 10 38 31 38 vvcurveto
          54 -60 32 -80 -182 -188 -237 -169 -91 53 -46 96 58 61 44 0 vhcurveto
          hintmask 00111100
          0 0 -42 47 34 24 19 0 vhcurveto
          0 -6 30 13 vvcurveto
          28 26 41 13 36 vhcurveto
          endchar
        </CharString>
        <CharString name="G.smcp.titl">
          160 75 callsubr
          88 23 -21 244 238 59 111 156 callsubr
          122 367 244 -141 141 -101 101 hintmask 1111111010000000
          723 -106 rmoveto
          742 -733 -742 vlineto
          567 343 rmoveto
          17 -8 8 -12 -15 vvcurveto
          -33 -25 -18 -36 vhcurveto
          -3 hlineto
          hintmask 1111111100000000
          -13 -36 -26 -41 -28 vvcurveto
          -13 6 -30 0 vhcurveto
          0 -24 -19 -34 -47 0 42 0 0 -61 -44 -58 -96 -53 46 91 169 188 237 182 vhcurveto
          hintmask 1111111001000000
          80 60 -32 -54 -38 -38 -31 -52 -10 hvcurveto
          -12 1 -18 17 7 vvcurveto
          4 7 9 13 12 vvcurveto
          2 vlineto
          29 -26 18 -68 vhcurveto
          -76 -41 -101 -184 -113 vvcurveto
          -47 28 -23 36 49 29 22 0 vhcurveto
          13 27 14 23 9 38 -31 6 -15 6 -20 9 rrcurveto
          -3 5 -2 8 8 vvcurveto
          10 2 10 2 3 vhcurveto
          -2 50 46 -3 46 hhcurveto
          19 24 4 5 17 hvcurveto
          166 133 callgsubr
        </CharString>
        <CharString name="Gbreve">
          140 callsubr
          66 95 hstemhm
          13 136 -77 77 57 callsubr
          hintmask 1111100101000000
          766 921 -89 callsubr
          -301 -703 rmoveto
          -61 callsubr
          hintmask 1111001010000000
          -80 callgsubr
          hintmask 1111010101000000
          -49 callsubr
        </CharString>
        <CharString name="Gcircumflex">
          132 -280 57 198 48 0 95 303 185 0 66 283 -20 hstemhm
          13 136 57 callsubr
          hintmask 1010110101000000
          689 736 -107 callsubr
          -224 -518 rmoveto
          -68 -61 -60 -32 -47 hhcurveto
          -43 -22 29 53 169 178 237 100 63 40 -28 -40 -14 -7 -17 -12 -20 hvcurveto
          hintmask 1011010110100000
          -2 -2 0 -2 -2 vvcurveto
          -9 10 -12 10 -2 vhcurveto
          hintmask 1010111001000000
          -80 callgsubr
          56 19 26 13 vvcurveto
          6 -4 8 -12 -47 -92 -52 -93 -75 63 -35 115 vhcurveto
          hintmask 1100111010100000
          214 174 101 248 58 -9 57 -8 45 hvcurveto
          33 38 40 54 41 vvcurveto
          33 -44 26 -35 -55 -31 -63 -122 -4 vhcurveto
          endchar
        </CharString>
        <CharString name="Gcommaaccent">
          132 -570 -21 120 -20 155 -20 76 57 246 95 488 66 hstemhm
          13 136 -77 77 -77 160 -113 165 174 121 -121 177 -22 136 -41 callgsubr
          hintmask 1111110001101000
          49 -550 rmoveto
          -15 0 -26 34 118 83 139 92 6 -2 9 -5 3 vhcurveto
          4 -13 -15 2 -15 hhcurveto
          -31 -32 -9 -18 -21 hvcurveto
          -11 -10 -20 -30 -38 vvcurveto
          -7 1 -8 2 -6 vhcurveto
          -8 12 21 -1 21 hhcurveto
          -65 callsubr
          416 768 rmoveto
          hintmask 1111111000101000
          -61 callsubr
          hintmask 1111110010010000
          -80 callgsubr
          hintmask 1111110100101000
          -49 callsubr
        </CharString>
        <CharString name="Gdotaccent">
          140 callsubr
          82 141 hstemhm
          13 136 -77 77 309 121 34 136 hintmask 00000000
          hintmask 11111011
          692 764 163 callsubr
          66 32 vvcurveto
          11 -2 7 -4 -65 -84 -25 -23 -15 vhcurveto
          1 -8 0 -9 -10 vvcurveto
          -18 62 callgsubr
          -3 10 28 -3 29 hhcurveto
          30 31 3 7 14 hvcurveto
          -227 -546 rmoveto
          -61 callsubr
          -80 callgsubr
          56 19 26 13 vvcurveto
          6 -4 8 -12 -47 -92 -52 -93 -75 63 -35 115 214 174 101 248 58 -9 57 -8 45 vhcurveto
          hintmask 11110111
          33 38 40 54 41 vvcurveto
          33 -44 26 -35 -55 -31 -63 -122 -4 vhcurveto
          endchar
        </CharString>
        <CharString name="H">
          178 callsubr
          321 -20 hstemhm
          60 202 callsubr
          169 callsubr
          428 -10 rmoveto
          -31 callgsubr
          -72 -88 -212 -82 -34 vhcurveto
          42 callgsubr
          48 115 54 105 61 vvcurveto
          -30 callsubr
          hvcurveto
          -130 -188 -289 -104 vvcurveto
          hintmask 10111010
          -45 24 -14 43 67 27 41 0 vhcurveto
          hintmask 01111010
          3 callsubr
          endchar
        </CharString>
        <CharString name="H.alt">
          232 -20 110 -79 -21 287 80 217 120 hstemhm
          485 154 215 callgsubr
          399 357 rmoveto
          38 113 34 112 44 vvcurveto
          -104 -74 68 -83 hhcurveto
          -60 -38 -38 -58 -38 11 -37 12 -46 hvcurveto
          37 hlineto
          57 8 7 40 40 hhcurveto
          hintmask 01111000
          30 34 -13 -10 33 hvcurveto
          -249 -52 -45 -212 -149 hhcurveto
          -21 -22 4 9 -25 hvcurveto
          0 -10 -7 -18 vvcurveto
          -36 48 -62 91 90 56 72 76 30 vhcurveto
          15 39 21 53 20 57 59 4 70 11 63 16 rrcurveto
          -40 -107 -38 -93 -53 vvcurveto
          -50 28 -15 45 67 25 41 0 vhcurveto
          -2 -9 23 22 55 24 99 44 134 hvcurveto
          90 73 62 116 60 vvcurveto
          51 -64 11 -28 -74 -81 -225 -76 -26 vhcurveto
          hintmask 10111000
          -13 -62 -58 -4 -43 hhcurveto
          endchar
        </CharString>
        <CharString name="H.smcp">
          92 13 -21 29 -21 211 71 248 -20 hstemhm
          25 137 8 146 10 128 hintmask 00000000
          hintmask 10111110
          401 288 rmoveto
          -4 -21 -53 -2 -27 hhcurveto
          -20 -20 1 4 -21 hvcurveto
          23 54 rlineto
          28 63 26 61 36 vvcurveto
          5 -15 17 -6 -5 -3 -1 -1 -3 vhcurveto
          -4 -13 -23 -7 -34 hhcurveto
          -24 -39 3 3 -25 hvcurveto
          -6 -17 -18 -13 -7 6 -10 10 14 37 -12 -10 -52 -40 -88 -37 -80 hvcurveto
          -34 -72 -34 -74 -37 vvcurveto
          -39 23 -12 40 58 23 36 0 vhcurveto
          0 -7 14 14 vvcurveto
          43 17 40 27 72 vhcurveto
          88 94 24 0 hvcurveto
          -6 -20 -12 -22 -8 -22 rrcurveto
          -18 -50 -18 -60 -47 vvcurveto
          -6 19 -16 6 vhcurveto
          6 30 107 2 24 hhcurveto
          6 11 22 11 12 -5 4 -11 -14 -45 4 11 hvcurveto
          hintmask 01111110
          84 60 136 0 vhcurveto
          74 57 56 96 45 vvcurveto
          40 -57 8 -22 -60 -68 -154 -69 -28 vhcurveto
          endchar
        </CharString>
        <CharString name="H.smcp.titl">
          292 75 callsubr
          98 29 -21 510 126 -106 106 54 26 hstemhm
          -20 145 137 164 318 109 -41 callgsubr
          hintmask 1111011110000000
          853 156 callgsubr
          -873 -26 vlineto
          873 71 callgsubr
          -873 -26 vlineto
          873 54 callgsubr
          -873 -742 vlineto
          634 390 rmoveto
          0 -60 -136 -84 vvcurveto
          -11 45 -4 14 11 4 -4 -12 1 vhcurveto
          -1 -5 -32 -12 -24 -107 -2 -6 -30 vhcurveto
          -6 -19 16 6 47 18 60 18 50 hvcurveto
          8 22 12 22 6 20 rrcurveto
          0 -94 -24 -88 vhcurveto
          -27 -72 -17 -40 -43 vvcurveto
          -14 7 -14 0 vhcurveto
          0 -23 -36 -58 -40 -23 12 39 37 34 74 34 72 vhcurveto
          37 80 40 88 52 vvcurveto
          10 -37 12 -14 -10 -6 10 7 13 17 18 6 vhcurveto
          0 2 -1 1 vhcurveto
          -1 14 38 -4 33 hhcurveto
          34 23 7 4 13 hvcurveto
          1 3 3 1 5 hhcurveto
          6 15 -17 -5 -36 -26 -61 -28 -63 hvcurveto
          -23 -54 rlineto
          -4 21 20 -1 20 hhcurveto
          27 53 2 4 21 hvcurveto
          8 19 rlineto
          hintmask 1110111110000000
          69 28 68 154 60 hhcurveto
          22 57 -8 -40 -45 -56 -96 -77 -59 hvcurveto
          endchar
        </CharString>
        <CharString name="Hbar">
          178 callsubr
          66 56 -56 69 -69 229 26 -20 hstemhm
          60 202 callsubr
          hintmask 1011001110000000
          428 -10 rmoveto
          hintmask 0111001101000000
          -31 callgsubr
          -51 -60 -107 -91 -42 vhcurveto
          -193 6 rlineto
          hintmask 1010011110000000
          28 65 22 56 39 vvcurveto
          -30 callsubr
          -24 -7 -29 -10 -32 hvcurveto
          hintmask 1010101101000000
          2 -77 -6 0 -5 230 callsubr
          1 8 13 9 34 2 rrcurveto
          58 hlineto
          -56 -136 -91 -163 -72 vvcurveto
          -45 24 -14 43 67 27 41 0 vhcurveto
          3 callsubr
          86 391 rmoveto
          42 callgsubr
          8 20 8 19 9 19 195 1 rcurveline
          endchar
        </CharString>
        <CharString name="Hcircumflex">
          178 callsubr
          575 -20 hstemhm
          72 202 callsubr
          hintmask 00000000
          hintmask 01111010
          647 710 -107 callsubr
          -207 -720 rmoveto
          -31 callgsubr
          -72 -88 -212 -82 -34 vhcurveto
          42 callgsubr
          48 115 54 105 61 vvcurveto
          hintmask 10111010
          -30 callsubr
          hvcurveto
          -130 -188 -289 -104 vvcurveto
          -45 24 -14 43 vhcurveto
          hintmask 01111100
          67 27 41 0 hvcurveto
          3 callsubr
          endchar
        </CharString>
        <CharString name="I">
          -3 callgsubr
          23 116 callgsubr
          hintmask 11011000
          381 113 -105 callgsubr
          -72 -44 -43 -43 hvcurveto
          hintmask 00111000
          -12 3 -13 7 -11 vhcurveto
          -70 callsubr
        </CharString>
        <CharString name="I.alt">
          -96 -52 110 -63 129 378 139 -122 182 -110 110 hstemhm
          hintmask 00000000
          hintmask 10100000
          136 16 rmoveto
          -45 70 62 -23 67 hhcurveto
          46 44 23 61 33 -12 39 -4 1 hvcurveto
          -14 -10 0 -5 -8 hvcurveto
          -38 -2 -42 -4 -40 hhcurveto
          hintmask 10010000
          -20 -40 10 9 -18 hvcurveto
          120 106 1 267 75 87 rrcurveto
          -16 32 47 -19 35 hhcurveto
          44 37 54 30 hvcurveto
          hintmask 01001000
          32 -19 23 -45 -35 -45 -4 -9 -43 vhcurveto
          45 -70 -72 28 -67 hhcurveto
          -46 -40 -23 -61 -38 28 -60 21 6 11 4 5 1 hvcurveto
          38 2 19 25 40 hhcurveto
          hintmask 10100000
          20 43 -7 -9 18 hvcurveto
          -159 -133 23 -265 -48 -75 rrcurveto
          0 -80 22 -35 -44 -20 -40 -30 -32 11 -27 45 61 49 21 0 vhcurveto
          endchar
        </CharString>
        <CharString name="I.smcp">
          -122 -11 74 -61 78 342 82 -66 66 -66 79 hstemhm
          hintmask 00000000
          hintmask 01010000
          213 63 rmoveto
          10 vlineto
          102 75 155 38 99 vhcurveto
          -2 29 21 -5 17 hhcurveto
          46 14 21 32 28 -7 13 0 hvcurveto
          hintmask 10100000
          0 -53 -12 -45 vhcurveto
          -70 -80 13 -48 hhcurveto
          -36 -29 -23 -40 -14 5 -18 -8 callgsubr
          61 16 37 vhcurveto
          21 hlineto
          -29 -104 -78 -168 -17 -91 rrcurveto
          2 -21 -31 3 -17 hhcurveto
          -46 -14 -17 -32 -28 7 -13 -8 callgsubr
          53 12 45 vhcurveto
          hintmask 10001000
          70 80 -13 48 hhcurveto
          36 29 21 40 hvcurveto
          hintmask 10100000
          14 -5 14 0 vhcurveto
          hintmask 10010000
          0 -55 -15 -37 vhcurveto
          endchar
        </CharString>
        <CharString name="I.smcp.titl">
          78 75 callsubr
          95 -95 108 502 132 -119 119 156 callsubr
          66 -66 195 239 209 -80 80 -41 callgsubr
          hintmask 1101011010000000
          633 -206 203 callsubr
          896 203 callsubr
          54 callgsubr
          -643 -742 vlineto
          337 169 rmoveto
          37 55 15 0 hvcurveto
          hintmask 1100110110000000
          0 5 -14 -14 vvcurveto
          -40 -29 -21 -36 vhcurveto
          hintmask 1101011001000000
          -48 -80 13 -70 hhcurveto
          -45 -53 -12 -8 callgsubr
          -7 13 28 vvcurveto
          32 14 17 46 17 31 -3 -2 21 vhcurveto
          17 91 78 168 29 104 rrcurveto
          -21 hlineto
          -37 -61 -16 -8 callgsubr
          -5 18 14 vvcurveto
          hintmask 1101011010000000
          40 29 23 36 vhcurveto
          48 80 -13 70 hhcurveto
          hintmask 1011011010000000
          45 53 12 -8 callgsubr
          7 -13 -28 vvcurveto
          -32 -14 -21 -46 -17 -21 5 2 -29 vhcurveto
          hintmask 1101010110000000
          -38 -99 -75 -155 -102 vvcurveto
          -10 vlineto
          endchar
        </CharString>
        <CharString name="Iacute">
          -3 callgsubr
          156 111 hstemhm
          hintmask 00000000
          hintmask 11011000
          617 805 -104 callgsubr
          -236 -692 -105 callgsubr
          -72 -44 -43 -43 hvcurveto
          hintmask 00111000
          -12 3 -13 7 -11 vhcurveto
          -70 callsubr
        </CharString>
        <CharString name="Icircumflex">
          -3 callgsubr
          283 116 callgsubr
          hintmask 00111000
          515 713 -107 callsubr
          -134 -600 -105 callgsubr
          hintmask 11011000
          -72 -44 -43 -43 -12 3 -13 7 -11 hvcurveto
          -70 callsubr
        </CharString>
        <CharString name="Idieresis">
          -3 callgsubr
          86 141 hstemhm
          hintmask 00000000
          hintmask 11011000
          389 745 rmoveto
          -107 callgsubr
          196 hmoveto
          -107 callgsubr
          -204 -632 -105 callgsubr
          -72 -44 -43 -43 hvcurveto
          hintmask 00111000
          -12 3 -13 7 -11 vhcurveto
          -70 callsubr
        </CharString>
        <CharString name="Idotaccent">
          -3 callgsubr
          115 141 hstemhm
          hintmask 00000000
          hintmask 11011000
          501 774 163 callsubr
          66 32 vvcurveto
          11 -2 7 -4 -65 -84 -25 -23 -15 vhcurveto
          1 -8 0 -9 -10 vvcurveto
          -18 62 callgsubr
          -3 10 28 -3 29 hhcurveto
          30 31 3 7 14 hvcurveto
          -120 -661 -105 callgsubr
          -72 -44 -43 -43 hvcurveto
          hintmask 00111000
          -12 3 -13 7 -11 vhcurveto
          -70 callsubr
        </CharString>
        <CharString name="Igrave">
          -3 callgsubr
          12 32 201 116 callgsubr
          hintmask 11011100
          310 894 -102 callgsubr
          71 -781 -105 callgsubr
          -72 -44 -43 -43 hvcurveto
          hintmask 00111100
          -12 3 -13 7 -11 vhcurveto
          -70 callsubr
        </CharString>
        <CharString name="Imacron">
          -3 callgsubr
          99 93 11 116 callgsubr
          hintmask 11011000
          594 774 -78 callgsubr
          hintmask 11010100
          -54 callgsubr
          hintmask 00111000
          -46 callsubr
          -213 -661 -105 callgsubr
          hintmask 11011000
          -72 -44 -43 -43 -12 3 -13 7 -11 hvcurveto
          -70 callsubr
        </CharString>
        <CharString name="Iogonek">
          -116 -199 58 140 -21 23 96 463 110 23 -20 hstemhm
          205 87 hintmask 00000000
          276 573 rmoveto
          -88 -131 -54 -229 -14 -102 rrcurveto
          -67 -1 -73 -35 -67 vvcurveto
          -18 6 -12 14 vhcurveto
          134 callsubr
          43 hhcurveto
          55 54 -8 -3 44 hvcurveto
          -34 -35 -22 -42 -44 vvcurveto
          -39 28 -29 41 49 43 15 35 45 vhcurveto
          12 -9 17 -7 6 vhcurveto
          -12 -20 -31 -15 -18 hhcurveto
          -29 -5 21 22 33 14 34 23 30 hvcurveto
          20 11 13 22 27 vvcurveto
          14 -4 18 -9 19 vhcurveto
          -11 -24 -23 -2 -23 -11 -11 1 -12 hhcurveto
          2 107 120 304 37 51 rrcurveto
          65 1 76 34 68 vvcurveto
          18 -5 12 -14 vhcurveto
          -18 -25 -40 -5 -43 -69 -55 12 -65 hhcurveto
          -38 -29 -29 -41 hvcurveto
          hintmask 11111100
          -14 4 -18 9 -19 vhcurveto
          10 23 23 3 23 hhcurveto
          11 10 0 -1 10 hvcurveto
          endchar
        </CharString>
        <CharString name="Itilde">
          -3 callgsubr
          86 102 64 116 callgsubr
          hintmask 11011100
          611 899 -106 callsubr
          -230 -786 -105 callgsubr
          -72 -44 -43 -43 hvcurveto
          hintmask 00111100
          -12 3 -13 7 -11 vhcurveto
          -70 callsubr
        </CharString>
        <CharString name="J">
          148 callsubr
          hstemhm
          -160 139 85 69 hintmask 00000000
          hintmask 11001110
          374 531 13 callsubr
          hintmask 11010110
          42 29 32 66 22 -20 10 -20 198 callsubr
          hintmask 11100110
          15 callgsubr
          74 17 30 44 vhcurveto
          hintmask 11001110
          48 93 -35 -16 39 hvcurveto
          endchar
        </CharString>
        <CharString name="J.alt">
          -53 -279 78 -78 233 329 68 121 243 -214 87 -6 133 hstemhm
          -162 125 67 69 hintmask 00000000
          hintmask 10100111
          411 341 rmoveto
          hintmask 10101011
          15 56 14 58 15 58 rrcurveto
          76 25 58 52 27 vvcurveto
          31 -27 32 -28 -46 -41 -63 -29 -18 vhcurveto
          -99 -77 127 -113 hhcurveto
          15 callgsubr
          74 17 30 44 48 49 -78 -3 110 vhcurveto
          hintmask 01101011
          -31 -43 -29 -50 -24 -60 rrcurveto
          2 -16 -22 1 -39 230 callsubr
          10 1 18 10 45 12 10 -1 9 hhcurveto
          -225 -77 -51 -258 -74 hhcurveto
          -66 -28 41 22 hvcurveto
          36 18 38 9 vvcurveto
          5 -6 4 -10 -36 -91 -63 -75 -60 62 -35 64 235 109 250 302 85 vhcurveto
          hintmask 10110011
          -1 17 21 0 26 hhcurveto
          41 33 24 31 11 -9 18 0 hvcurveto
          -12 -14 -40 -3 -39 hhcurveto
          endchar
        </CharString>
        <CharString name="J.smcp">
          -72 -22 62 -62 208 154 193 -144 102 -64 106 hstemhm
          -5 116 hintmask 00000000
          hintmask 10010100
          355 409 rmoveto
          -70 -120 18 -299 -84 hhcurveto
          hintmask 10100100
          -48 -10 36 20 24 6 21 11 31 hvcurveto
          6 -10 8 -15 vhcurveto
          hintmask 10001100
          -38 -70 -54 -60 -57 42 -37 66 223 37 166 251 61 hvcurveto
          0 28 -6 13 39 26 18 54 vhcurveto
          hintmask 01010100
          22 -19 8 -28 -10 -31 -10 0 0 -156 52 -77 -67 -33 -33 -54 -67 33 -39 39 vhcurveto
          44 26 43 28 33 46 -8 -10 41 vhcurveto
          endchar
        </CharString>
        <CharString name="J.smcp.titl">
          128 75 callsubr
          84 555 103 156 callsubr
          105 -105 219 421 53 hintmask 00000000
          hintmask 11111010
          683 156 callgsubr
          -693 -26 vlineto
          693 71 callgsubr
          -693 -26 vlineto
          693 54 callgsubr
          -693 -742 vlineto
          534 501 rmoveto
          -251 -61 -37 -166 -223 hhcurveto
          -66 -42 37 57 60 70 54 38 15 10 -8 -6 hvcurveto
          -11 -31 -6 -21 -24 vvcurveto
          -20 10 -36 48 84 -18 299 70 120 vhcurveto
          10 -41 -46 8 -33 hhcurveto
          -28 -26 -43 -44 hvcurveto
          -39 -33 39 67 54 33 33 67 77 156 -52 0 hvcurveto
          hintmask 11110110
          0 31 10 10 28 19 -8 -22 -54 -26 -18 -39 -13 -28 6 0 vhcurveto
          endchar
        </CharString>
        <CharString name="Jcircumflex">
          148 callsubr
          268 -20 hstemhm
          -160 139 85 69 hintmask 00000000
          hintmask 11001111
          302 764 -107 callsubr
          hintmask 11100111
          72 -233 13 callsubr
          42 29 32 66 22 -20 10 -20 hvcurveto
          hintmask 11010111
          198 callsubr
          251 callsubr
          -44 25 -92 28 hvcurveto
          hintmask 11001111
          7 5 2 4 4 hvcurveto
          74 17 30 44 48 93 -35 -16 39 vhcurveto
          endchar
        </CharString>
        <CharString name="K">
          76 -20 94 -63 -21 545 130 1 116 callgsubr
          hintmask 10100000
          318 287 28 callgsubr
          hintmask 01010000
          0 callgsubr
          hintmask 10100000
          63 callsubr
        </CharString>
        <CharString name="K.alt">
          55 -185 129 67 -21 558 117 hstem
          317 278 rmoveto
          -204 51 197 -259 185 hhcurveto
          47 48 17 41 43 195 callsubr
          -51 -42 -50 -23 -52 hhcurveto
          -150 -173 183 232 -78 hvcurveto
          101 87 107 88 83 59 22 -20 12 hhcurveto
          6 1 4 2 8 vvcurveto
          20 -2 106 -109 -103 -154 -175 -181 -110 vhcurveto
          28 79 41 107 59 148 rrcurveto
          -30 callsubr
          hvcurveto
          -130 -188 -289 -104 vvcurveto
          -45 24 -14 43 67 35 151 callsubr
          9 0 10 2 12 vhcurveto
          5 39 37 69 53 72 rrcurveto
          endchar
        </CharString>
        <CharString name="K.smcp">
          -6 -8 82 319 129 -111 111 hstemhm
          249 237 hintmask 00000000
          hintmask 10110000
          451 87 rmoveto
          -7 -10 -8 -6 -20 hhcurveto
          hintmask 11010000
          -42 -25 101 114 -17 hvcurveto
          66 54 77 56 51 hhcurveto
          8 11 -6 -5 8 hvcurveto
          -4 6 -4 -3 15 hhcurveto
          13 31 28 47 28 -22 26 -45 -63 -115 -81 -150 -115 hvcurveto
          21 57 44 92 17 57 rrcurveto
          5 -14 20 -7 -4 -4 -1 -1 -4 vhcurveto
          -2 -13 -26 -4 -28 hhcurveto
          -34 -39 2 1 -11 hvcurveto
          -12 -15 -19 -12 -7 5 -10 12 13 38 -11 -10 -42 -56 -131 -50 -117 hvcurveto
          2 1 rlineto
          -47 -52 -39 -43 -24 vvcurveto
          -39 60 -9 20 47 46 86 76 33 vhcurveto
          55 71 rlineto
          -148 2 23 -85 95 hhcurveto
          78 39 51 29 15 -16 12 0 hvcurveto
          endchar
        </CharString>
        <CharString name="K.smcp.titl">
          194 75 callsubr
          98 522 122 54 26 hstemhm
          -15 103 498 162 -49 49 hintmask 00000000
          hintmask 11111100
          748 63 callgsubr
          585 205 rmoveto
          0 16 -12 -15 vvcurveto
          -29 -39 -51 -78 -95 -23 85 148 -2 vhcurveto
          -55 -71 rlineto
          -76 -33 -46 -86 -47 hhcurveto
          -20 -60 9 39 24 38 43 46 51 hvcurveto
          50 117 56 131 42 vvcurveto
          10 -38 11 -13 -12 -5 10 7 12 15 19 12 vhcurveto
          -1 11 39 -2 34 hhcurveto
          28 26 4 2 13 hvcurveto
          1 4 4 1 4 hhcurveto
          7 14 -20 -5 hvcurveto
          -17 -57 -44 -92 -21 -57 rrcurveto
          150 115 115 81 63 hhcurveto
          45 22 -26 -28 -47 -31 -28 -13 hvcurveto
          -18 -10 18 -16 hhcurveto
          -51 -77 -56 -66 -54 hvcurveto
          hintmask 11111010
          -114 17 25 -101 42 hhcurveto
          20 8 6 7 10 hvcurveto
          endchar
        </CharString>
        <CharString name="Kcommaaccent">
          76 -277 -21 278 94 -63 -21 545 130 1 -20 hstemhm
          118 165 hintmask 00000000
          hintmask 11010100
          48 -257 rmoveto
          -15 0 -26 34 118 83 139 92 6 -2 9 -5 3 vhcurveto
          4 -13 -15 2 -15 hhcurveto
          -31 -32 -9 -18 -21 hvcurveto
          -11 -10 -20 -30 -38 vvcurveto
          -7 1 -8 2 -6 vhcurveto
          -8 12 21 -1 21 hhcurveto
          -65 callsubr
          270 544 28 callgsubr
          hintmask 10101100
          0 callgsubr
          hintmask 11010100
          63 callsubr
        </CharString>
        <CharString name="L">
          171 callsubr
          hintmask 00000000
          hintmask 10010000
          187 290 -55 callgsubr
          hintmask 01100000
          -77 callgsubr
        </CharString>
        <CharString name="L.alt">
          -140 -234 120 92 170 379 180 -71 71 hstemhm
          hintmask 00000000
          hintmask 11010000
          167 320 rmoveto
          -8 -75 -15 -67 -20 -59 rrcurveto
          106 callgsubr
          136 -107 102 hhcurveto
          93 64 74 79 38 hvcurveto
          15 -2 -12 10 -18 hhcurveto
          -38 -29 -37 -20 -46 hhcurveto
          hintmask 11100000
          -74 -140 116 86 -93 hvcurveto
          82 43 54 80 118 vvcurveto
          222 vlineto
          69 9 16 36 73 28 -40 189 callsubr
          -36 22 -92 -112 -137 -70 -181 -19 hvcurveto
          endchar
        </CharString>
        <CharString name="L.smcp">
          -123 -19 93 -93 151 -127 90 415 -20 27 -20 hstemhm
          hintmask 01010000
          98 37 rmoveto
          -6 62 60 -50 65 hhcurveto
          69 35 59 82 0 -13 10 -24 hvcurveto
          -6 hlineto
          hintmask 10001000
          -40 -10 -47 -18 -28 hhcurveto
          -35 -50 11 3 -34 hvcurveto
          102 105 41 155 31 143 rrcurveto
          2 1 2 3 vvcurveto
          9 -3 10 -6 vhcurveto
          hintmask 00110000
          -10 -37 -7 -37 hhcurveto
          -42 -42 3 1 -6 223 callgsubr
          92 callgsubr
        </CharString>
        <CharString name="L.smcp.titl">
          77 75 callsubr
          87 -87 111 505 126 156 callsubr
          98 -98 219 280 144 hintmask 11011101
          633 -106 rmoveto
          742 -643 -742 vlineto
          499 228 rmoveto
          -82 -35 -59 -69 -65 -60 50 6 -62 vhcurveto
          hintmask 10111101
          -3 -3 -32 -29 -34 hhcurveto
          165 callgsubr
          vvcurveto
          hintmask 11011011
          41 -63 -27 33 vvcurveto
          14 15 17 10 vhcurveto
          -1 6 42 -3 42 37 37 7 10 hhcurveto
          6 3 -10 -9 hvcurveto
          -3 -1 -2 -2 vvcurveto
          -31 -143 -41 -155 -102 -105 rrcurveto
          -3 34 50 -11 35 hhcurveto
          28 47 18 40 10 hvcurveto
          6 hlineto
          24 13 -10 0 hvcurveto
          144 -328 203 callsubr
          71 callgsubr
          -643 -26 vlineto
          endchar
        </CharString>
        <CharString name="L_l">
          235 -101 118 -32 70 -70 165 -150 -21 558 163 -69 69 7 -20 hstemhm
          499 115 hintmask 00000000
          hintmask 01000101
          187 290 rmoveto
          -14 -81 -15 -39 -26 -51 rrcurveto
          15 -26 -22 16 -33 hhcurveto
          -50 -51 -76 -63 -20 12 -12 20 29 50 18 39 50 hvcurveto
          -98 61 60 -39 58 hhcurveto
          46 78 64 90 85 hvcurveto
          52 callsubr
          vhcurveto
          hintmask 10000101
          94 callsubr
          -2 -50 -32 -35 hhcurveto
          -12 -8 5 12 61 39 95 53 113 hvcurveto
          116 142 75 116 47 vvcurveto
          46 -69 8 -25 vhcurveto
          hintmask 10001001
          -77 -163 -387 -182 -50 hvcurveto
          -79 -67 -45 -35 -53 hhcurveto
          hintmask 00100011
          -45 -51 20 52 -76 hvcurveto
          74 51 65 53 12 124 22 221 rcurveline
          69 7 15 24 35 hhcurveto
          38 38 -25 -51 16 hvcurveto
          -9 3 4 -9 10 hhcurveto
          hintmask 00011001
          73 callsubr
          hvcurveto
          hintmask 10001001
          -112 -126 -57 -186 -31 hvcurveto
          endchar
        </CharString>
        <CharString name="Lacute">
          -47 -119 43 callsubr
          135 111 hstemhm
          hintmask 00000000
          hintmask 10011000
          688 842 -104 callgsubr
          -501 -552 -55 callgsubr
          hintmask 01101000
          -77 callgsubr
        </CharString>
        <CharString name="Lcaron">
          171 callsubr
          431 165 hintmask 00000000
          hintmask 10011000
          361 256 rmoveto
          -15 0 -26 34 118 83 139 92 6 -2 9 -5 3 vhcurveto
          4 -13 -15 2 -15 hhcurveto
          -31 -32 -9 -18 -21 hvcurveto
          -11 -10 -20 -30 -38 vvcurveto
          -7 1 -8 2 -6 vhcurveto
          -8 12 21 -1 21 hhcurveto
          -65 callsubr
          -174 34 -55 callgsubr
          hintmask 01101000
          -77 callgsubr
        </CharString>
        <CharString name="Lcommaaccent">
          -47 -324 -21 226 29 -29 43 callsubr
          hstemhm
          -50 246 -165 165 hintmask 00000000
          hintmask 11011001
          -39 -304 rmoveto
          -15 0 -26 34 118 83 139 92 6 -2 9 -5 3 vhcurveto
          4 -13 -15 2 -15 hhcurveto
          -31 -32 -9 -18 -21 hvcurveto
          -11 -10 -20 -30 -38 vvcurveto
          -7 1 -8 2 -6 vhcurveto
          -8 12 21 -1 21 hhcurveto
          -65 callsubr
          226 594 rmoveto
          -14 -81 -15 -39 -26 -51 rrcurveto
          15 -26 -22 16 -33 hhcurveto
          -50 -51 -76 -63 hvcurveto
          hintmask 10100110
          -20 12 -12 20 29 50 18 39 50 vhcurveto
          -43 callsubr
          hintmask 11011010
          -77 callgsubr
        </CharString>
        <CharString name="Lslash">
          171 callsubr
          hintmask 01100000
          103 233 rmoveto
          4 30 34 12 44 5 -13 -74 -15 -38 -25 -49 rrcurveto
          15 -26 -22 16 -33 hhcurveto
          -50 -51 -76 -63 -20 12 -12 20 29 50 18 39 50 hvcurveto
          hintmask 10010000
          -43 callsubr
          -54 -67 46 35 -58 hvcurveto
          68 47 60 48 19 104 rrcurveto
          68 5 59 15 56 vvcurveto
          19 -5 17 -12 17 vhcurveto
          -12 -12 -26 -19 -62 -7 16 159 rcurveline
          69 7 15 24 35 hhcurveto
          38 38 -25 -51 16 hvcurveto
          hintmask 10100000
          -9 3 4 -9 10 hhcurveto
          73 callsubr
          -112 -126 -57 -186 -31 hvcurveto
          -15 -89 rlineto
          -85 -4 -50 -18 -65 vvcurveto
          -38 26 -17 11 vhcurveto
          endchar
        </CharString>
        <CharString name="M">
          302 -21 95 -95 127 -107 -21 33 -21 704 -20 hstemhm
          242 154 -129 177 147 144 hintmask 00000000
          hintmask 01001101
          667 427 rmoveto
          -38 -107 -38 -105 166 callsubr
          -5 -15 -14 -3 -16 hhcurveto
          -31 -30 18 87 75 22 171 46 99 hvcurveto
          30 30 51 47 27 vvcurveto
          34 -44 28 -35 -41 -49 -68 -80 -21 vhcurveto
          -45 -52 -129 -130 -85 -96 -20 144 -52 82 -6 22 rrcurveto
          24 29 15 51 41 vvcurveto
          hintmask 00011011
          22 -4 18 -10 12 vhcurveto
          7 -6 -11 2 -13 hhcurveto
          -30 -39 -13 -7 -8 hvcurveto
          -24 -20 -9 -29 -36 vvcurveto
          -33 7 -38 11 -41 vhcurveto
          -123 -64 -140 -248 -79 hhcurveto
          hintmask 00101101
          -33 -33 16 -8 callgsubr
          -31 -17 -19 vvcurveto
          -50 28 -57 49 vhcurveto
          hintmask 10001101
          66 104 38 375 157 hvcurveto
          17 -63 17 -65 -58 vvcurveto
          -15 -2 -15 -2 -14 vhcurveto
          -26 -33 -21 -42 -30 vvcurveto
          -29 16 -38 36 53 72 74 81 12 0 11 -1 12 vhcurveto
          endchar
        </CharString>
        <CharString name="M.alt">
          681 -89 142 -105 105 -41 -21 475 243 -133 133 hstemhm
          268 69 299 166 -129 129 168 144 -41 callgsubr
          hintmask 1000111010000000
          1046 427 rmoveto
          -38 -107 -38 -135 166 callsubr
          -3 -14 -17 -5 -14 hhcurveto
          -31 -30 18 87 75 22 201 46 99 hvcurveto
          hintmask 1001010110000000
          30 30 41 31 27 vvcurveto
          hintmask 0011011010000000
          34 -44 28 -35 -41 -39 -52 -80 -21 vhcurveto
          -57 -65 -151 -136 -73 -97 -16 154 -33 69 -17 45 rrcurveto
          45 18 39 44 40 vvcurveto
          29 -52 25 -16 vhcurveto
          hintmask 0101011010000000
          -47 -45 -87 0 0 -175 128 -97 15 callgsubr
          74 17 30 44 42 105 -49 -16 88 vhcurveto
          -10 1 -9 2 -11 vhcurveto
          -115 -82 -239 -313 -158 hhcurveto
          175 callgsubr
          192 232 341 148 91 vhcurveto
          11 -63 13 -80 -100 vvcurveto
          -26 -33 -11 -36 -30 vvcurveto
          -29 16 -38 36 53 61 81 55 17 -1 7 -2 15 vhcurveto
          endchar
        </CharString>
        <CharString name="M.smcp">
          223 -17 83 -83 111 -91 -21 31 -21 533 -20 hstemhm
          199 138 -97 156 103 219 callgsubr
          196 hintmask 0010110010000000
          546 299 rmoveto
          -21 -64 -26 -86 -49 vvcurveto
          -81 31 -37 64 55 46 36 35 10 -4 9 0 vhcurveto
          hintmask 1000110100000000
          0 -18 -6 -13 -19 -11 14 63 55 18 133 33 76 vhcurveto
          24 23 27 23 21 vvcurveto
          28 -40 23 -31 -36 -29 -39 -64 -18 vhcurveto
          -59 -69 -75 -59 -58 -66 -13 59 -46 67 -20 45 rrcurveto
          19 23 11 37 32 vvcurveto
          24 -24 5 -27 -40 -47 -19 -43 -26 7 -37 9 -32 vhcurveto
          hintmask 0100101100000000
          -99 -64 -88 -170 -68 hhcurveto
          -7 -7 2 4 -7 hvcurveto
          0 -18 -25 -31 vvcurveto
          -28 12 -33 39 52 65 31 264 116 vhcurveto
          13 -36 27 -49 5 -53 rrcurveto
          -20 -26 -25 -43 -22 vvcurveto
          hintmask 0001101100000000
          -25 16 -32 34 45 61 59 65 vhcurveto
          28 vlineto
          endchar
        </CharString>
        <CharString name="M.smcp.titl">
          423 75 callsubr
          88 22 -21 30 -21 533 111 156 callsubr
          66 440 103 131 243 -178 178 -141 141 hintmask 1101111100100000
          973 -106 rmoveto
          742 -983 -742 vlineto
          506 250 rmoveto
          -28 vlineto
          -65 -61 -59 -45 -34 -16 32 25 22 25 43 20 26 vhcurveto
          -5 53 -27 49 -13 36 rrcurveto
          hintmask 1110111100100000
          -264 -116 -65 -31 -52 hhcurveto
          -39 -12 33 28 31 18 25 0 hvcurveto
          -4 7 7 -2 7 hhcurveto
          68 88 170 99 64 hvcurveto
          -9 32 -7 37 26 vvcurveto
          43 47 19 40 27 24 -5 -24 -32 -11 -37 -19 -23 vhcurveto
          20 -45 46 -67 13 -59 58 66 75 59 61 71 -2 -2 rcurveline
          64 18 29 39 36 hhcurveto
          31 40 -23 -28 -21 -27 -23 -24 -23 hvcurveto
          hintmask 1110111110000000
          -33 -76 -18 -133 -55 vvcurveto
          -63 11 -14 19 13 18 6 0 vhcurveto
          hintmask 1110111101000000
          0 4 -9 -10 vvcurveto
          -35 -46 -36 -55 -64 -31 37 81 49 26 86 21 64 vhcurveto
          327 -505 rmoveto
          26 -983 -26 vlineto
          983 71 callgsubr
          -983 -26 vlineto
          endchar
        </CharString>
        <CharString name="N">
          161 callgsubr
          hstemhm
          207 151 hintmask 00000000
          hintmask 10110000
          593 3 -89 callgsubr
          vhcurveto
          hintmask 01110000
          51 callgsubr
          hvcurveto
          -81 callgsubr
        </CharString>
        <CharString name="N.alt">
          282 -89 142 495 134 -106 133 hstemhm
          52 69 481 134 215 callgsubr
          618 153 rmoveto
          -10 -49 -6 -49 -46 vvcurveto
          -33 12 -13 17 39 66 68 49 19 -12 39 -17 47 vhcurveto
          277 51 147 86 57 hhcurveto
          5 4 -1 -1 3 hvcurveto
          14 29 6 25 19 vvcurveto
          44 -31 19 -40 -73 -119 -176 -201 -71 vhcurveto
          -35 83 -38 88 -24 62 rrcurveto
          11 33 11 16 33 vvcurveto
          43 -36 17 -16 vhcurveto
          hintmask 11011000
          -47 -52 -99 0 0 -175 128 -97 15 callgsubr
          74 17 30 44 48 130 -63 -7 93 vhcurveto
          5 -15 7 -16 7 -16 rrcurveto
          -128 -47 -119 -278 -149 hhcurveto
          hintmask 10111000
          175 callgsubr
          193 128 347 145 45 vhcurveto
          41 -80 51 -87 26 -83 rrcurveto
          endchar
        </CharString>
        <CharString name="N.smcp">
          56 -15 76 -62 -21 548 -20 hstemhm
          128 135 hintmask 10110000
          -52 callgsubr
          hintmask 01110000
          136 callgsubr
          endchar
        </CharString>
        <CharString name="N.smcp.titl">
          256 75 callsubr
          84 28 -21 541 110 156 callsubr
          60 -60 238 496 89 hintmask 11111101
          813 -106 rmoveto
          742 -823 -742 vlineto
          580 114 rmoveto
          0 0 -12 -4 -5 vhcurveto
          -9 -15 -18 -4 -33 hhcurveto
          -99 -90 224 46 -24 hvcurveto
          -157 -50 -49 -106 -71 hhcurveto
          -45 -22 26 26 16 9 13 -8 callgsubr
          16 -5 11 33 81 129 154 44 vhcurveto
          hintmask 11111011
          0 -16 62 35 vvcurveto
          58 14 27 40 60 21 -21 -24 -26 -9 -23 -7 -25 vhcurveto
          14 -34 44 -111 39 -98 37 -40 rlinecurve
          2 11 3 13 2 14 rrcurveto
          133 24 41 231 114 hhcurveto
          39 18 -29 -32 -8 -1 -9 -3 -8 hvcurveto
          1 -2 -3 0 -3 hhcurveto
          -32 -65 -52 -345 -73 hvcurveto
          3 -18 17 -9 8 -9 rrcurveto
          243 -214 rmoveto
          26 -823 -26 vlineto
          823 71 callgsubr
          -823 -26 vlineto
          endchar
        </CharString>
        <CharString name="Nacute">
          161 callgsubr
          117 111 hstemhm
          hintmask 00000000
          hintmask 10110000
          750 814 -104 callgsubr
          -157 -811 -89 callgsubr
          vhcurveto
          hintmask 01110000
          51 callgsubr
          hvcurveto
          -81 callgsubr
        </CharString>
        <CharString name="Ncaron">
          172 -29 98 -67 -21 598 118 240 -20 hstemhm
          207 151 215 callgsubr
          650 935 -104 callsubr
          -57 -932 rmoveto
          -13 11 -20 22 16 vvcurveto
          461 53 130 66 61 hhcurveto
          9 9 -2 -2 7 hvcurveto
          4 14 1 10 12 vvcurveto
          54 -40 32 -47 -34 -38 -16 -35 -30 vhcurveto
          -46 -54 -25 -129 -53 -263 rrcurveto
          hintmask 01111000
          -13 -64 -58 103 -42 116 -72 183 rlinecurve
          hintmask 10111000
          11 33 11 27 33 vvcurveto
          28 -24 25 -68 51 callgsubr
          vhcurveto
          -81 callgsubr
        </CharString>
        <CharString name="Ncommaaccent">
          172 -295 -21 297 88 510 118 hstem
          207 153 vstem
          125 -275 rmoveto
          -15 0 -26 34 118 83 139 92 6 -2 9 -5 3 vhcurveto
          4 -13 -15 2 -15 hhcurveto
          -31 -32 -9 -18 -21 hvcurveto
          -11 -10 -20 -30 -38 vvcurveto
          -7 1 -8 2 -6 vhcurveto
          -8 12 21 -1 21 hhcurveto
          -65 callsubr
          468 278 -89 callgsubr
          51 callgsubr
          vhcurveto
          -81 callgsubr
        </CharString>
        <CharString name="Ntilde">
          161 callgsubr
          26 102 64 -20 hstemhm
          207 151 169 callsubr
          722 887 -106 callsubr
          -129 -884 -89 callgsubr
          vhcurveto
          hintmask 01111100
          51 callgsubr
          hvcurveto
          -81 callgsubr
        </CharString>
        <CharString name="Ntilde.smcp">
          56 -15 76 -62 -21 580 102 64 -20 hstemhm
          128 135 hintmask 10111000
          -52 callgsubr
          hintmask 01111000
          136 callgsubr
          109 714 -48 callsubr
        </CharString>
        <CharString name="Numero">
          680 -19 88 -77 -21 55 91 -39 39 -39 69 36 76 244 73 28 133 hstemhm
          0 69 754 98 152 99 -41 callgsubr
          hintmask 0110011111100000
          957 259 105 callgsubr
          126 -101 rmoveto
          -28 -4 -19 -13 -36 -69 -84 30 -45 hhcurveto
          -43 -33 -49 -39 -7 hvcurveto
          hintmask 1000111111100000
          0 12 -10 9 vhcurveto
          4 7 29 20 51 81 -52 84 hhcurveto
          65 27 34 93 hvcurveto
          hintmask 0110011111100000
          0 -14 5 -6 vhcurveto
          -170 25 87 callgsubr
          -200 -198 rmoveto
          4 4 0 14 0 vvcurveto
          hintmask 1001011111100000
          -14 12 -20 17 -2 20 30 435 132 74 76 47 rrcurveto
          66 -43 23 -46 -144 6 -253 -323 -72 vhcurveto
          -82 126 -38 102 -58 187 rrcurveto
          47 12 31 50 44 vvcurveto
          hintmask 0110011111100000
          29 -63 26 -16 -47 -18 -86 0 0 -169 126 -97 23 callgsubr
          vhcurveto
          74 17 30 44 41 101 -47 -17 87 vhcurveto
          -277 -74 -107 -194 -48 hhcurveto
          -1 -11 -10 -1 -7 hhcurveto
          -4 -5 -4 -10 -11 vvcurveto
          -24 24 -36 49 86 52 170 222 71 vhcurveto
          38 -118 54 -122 53 -81 rrcurveto
          -49 33 42 -32 43 hhcurveto
          38 21 5 9 15 hvcurveto
          endchar
        </CharString>
        <CharString name="O">
          103 callsubr
          hstem
          60 callsubr
          vstem
          294 69 rmoveto
          -20 callgsubr
          -100 callgsubr
        </CharString>
        <CharString name="O.alt">
          111 -15 84 495 96 hstem
          70 134 52 107 175 135 vstem
          463 564 rmoveto
          56 -2 19 -53 -68 vvcurveto
          -236 -127 -136 -98 -61 -48 53 113 192 114 113 33 23 vhcurveto
          4 4 0 3 2 vvcurveto
          11 -22 17 -8 vhcurveto
          -146 -76 -109 -188 -162 vvcurveto
          -129 78 -60 107 185 233 191 322 47 -9 115 -114 -115 -179 -194 -218 -73 32 -33 47 32 36 20 39 19 vhcurveto
          -43 33 -16 47 50 vvcurveto
          95 58 106 42 32 vhcurveto
          endchar
        </CharString>
        <CharString name="O.alt02">
          91 -15 84 311 76 208 -20 hstem
          70 145 258 197 vstem
          847 463 rmoveto
          15 -2 -16 11 -5 hhcurveto
          -1 hlineto
          -24 -31 -39 -9 -34 hhcurveto
          -20 -18 3 5 -14 hvcurveto
          1 16 2 11 15 vvcurveto
          86 -37 72 -103 -6 -5 -2 -2 -5 vhcurveto
          -223 -221 -263 -244 -102 66 -66 104 193 168 193 207 51 hvcurveto
          -3 11 12 -2 12 hhcurveto
          60 73 35 48 27 hvcurveto
          -313 -27 rmoveto
          -197 -15 -121 -170 -104 hhcurveto
          -49 -30 59 85 163 111 189 148 19 hvcurveto
          -5 -1 -5 -5 vvcurveto
          -43 16 -50 45 -40 vhcurveto
          endchar
        </CharString>
        <CharString name="O.alt2">
          137 -15 85 497 97 hstem
          70 135 76 100 179 139 vstem
          367 635 167 callgsubr
          224 226 251 276 52 -17 100 -100 -148 -153 -215 -141 -57 31 -28 34 52 43 40 50 28 vhcurveto
          15 -2 -16 11 -5 hhcurveto
          -1 hlineto
          -10 -10 -14 -10 -13 hhcurveto
          -11 -16 11 38 94 65 84 26 21 hvcurveto
          57 31 -50 -69 -178 -124 -200 -128 -64 -39 55 92 225 143 133 39 26 hvcurveto
          2 1 1 3 2 vvcurveto
          11 -13 17 -9 vhcurveto
          endchar
        </CharString>
        <CharString name="O.smcp">
          -23 -12 76 362 92 hstem
          17 130 241 127 vstem
          258 420 rmoveto
          0 25 6 11 39 55 -17 -90 -97 -92 -158 -87 -33 -29 43 62 136 103 107 8 8 vhcurveto
          -91 -432 rmoveto
          169 179 196 215 70 -59 49 -68 -196 -175 -211 -184 -77 58 -58 92 hvcurveto
          endchar
        </CharString>
        <CharString name="O.smcp.titl">
          177 75 callsubr
          94 530 118 54 26 hstem
          -10 127 130 241 127 118 vstem
          56 callgsubr
          368 526 rmoveto
          -8 -8 -103 -107 -136 vvcurveto
          -62 29 -43 33 87 92 158 97 90 -55 17 -39 -11 -25 -6 0 vhcurveto
          -91 -432 rmoveto
          -92 -58 58 77 184 175 211 196 68 59 -49 -70 -215 -179 -196 -169 hvcurveto
          endchar
        </CharString>
        <CharString name="OE">
          303 -15 81 -69 -21 310 129 55 190 -87 87 -55 55 7 -20 hstemhm
          70 145 138 152 0 132 178 130 -41 callgsubr
          hintmask 1010100110100000
          358 89 rmoveto
          -12 -20 -21 -8 -23 hhcurveto
          -20 callgsubr
          1 61 27 45 57 18 -37 0 vhcurveto
          0 -27 -47 -55 vvcurveto
          -44 21 -28 0 vhcurveto
          -96 -51 -77 -79 -96 vvcurveto
          -17 1 -16 4 -14 vhcurveto
          hintmask 1010001110100000
          458 12 -28 callgsubr
          hintmask 1010010110100000
          155 callgsubr
          -76 -24 46 71 81 72 41 -8 callgsubr
          19 -19 45 vhcurveto
          hintmask 0111000110100000
          72 60 40 49 25 -18 15 -33 218 callsubr
          hvcurveto
          hintmask 1010010101100000
          117 callsubr
          -88 callgsubr
          13 callgsubr
          78 6 67 66 54 vvcurveto
          38 -34 33 -87 -137 -80 -60 0 0 -14 53 -65 -250 -208 -270 -237 -96 59 -72 111 vhcurveto
          hintmask 1011000110100000
          63 47 20 26 37 hvcurveto
          -38 34 56 -17 66 hhcurveto
          hintmask 1010001110100000
          113 117 57 68 43 hvcurveto
          endchar
        </CharString>
        <CharString name="Oacute">
          103 callsubr
          120 111 hstemhm
          70 145 211 241 -141 141 hintmask 00000000
          hintmask 11111000
          696 780 -104 callgsubr
          -402 -711 rmoveto
          -20 callgsubr
          hintmask 11110100
          -100 callgsubr
        </CharString>
        <CharString name="Ocircumflex">
          103 callsubr
          0 242 hstemhm
          60 callsubr
          215 callgsubr
          640 683 -107 callsubr
          -346 -614 rmoveto
          -49 -30 59 85 hvcurveto
          hintmask 11011000
          185 136 147 0 vhcurveto
          -100 callgsubr
        </CharString>
        <CharString name="Odieresis">
          103 callsubr
          54 141 hstem
          60 callsubr
          vstem
          504 724 rmoveto
          -107 callgsubr
          196 hmoveto
          -107 callgsubr
          -406 -655 rmoveto
          -20 callgsubr
          -100 callgsubr
        </CharString>
        <CharString name="Ograve">
          103 callsubr
          214 -20 hstem
          60 callsubr
          vstem
          405 874 -102 callgsubr
          -111 -805 rmoveto
          -20 callgsubr
          -100 callgsubr
        </CharString>
        <CharString name="Ohungarumlaut">
          103 callsubr
          272 -20 hstemhm
          60 callsubr
          -65 65 hintmask 00000000
          hintmask 11110100
          812 866 -76 callsubr
          -324 -797 rmoveto
          -20 callgsubr
          hintmask 11111000
          -100 callgsubr
        </CharString>
        <CharString name="Omacron">
          103 callsubr
          48 93 11 -20 hstemhm
          60 callsubr
          hintmask 00000000
          hintmask 11101100
          666 734 -78 callgsubr
          hintmask 11011100
          -54 callgsubr
          hintmask 11101100
          -46 callsubr
          -372 -665 rmoveto
          -20 callgsubr
          -100 callgsubr
        </CharString>
        <CharString name="Omega">
          286 0 180 -173 -21 22 -21 33 -21 610 77 hstemhm
          143 151 -151 220 298 164 hintmask 00000000
          hintmask 10001011
          721 -1 rmoveto
          27 20 4 24 11 hvcurveto
          49 139 rlineto
          9 -5 -13 5 -12 hhcurveto
          -8 -10 -2 -2 -5 hvcurveto
          -44 -77 -6 -2 -50 -4 -133 -10 rcurveline
          4 vlineto
          171 106 112 109 145 vvcurveto
          137 -80 102 -173 -248 -181 -192 -169 -94 52 -92 51 -52 vhcurveto
          -5 vlineto
          -140 10 rlineto
          -12 -4 2 16 hvcurveto
          71 vlineto
          4 -7 -8 3 -10 hhcurveto
          -11 -10 -2 -6 -10 hvcurveto
          -12 -49 -22 -78 -20 vvcurveto
          hintmask 00101011
          -18 3 -15 27 vhcurveto
          270 hlineto
          hintmask 01001101
          18 4 -13 11 hhcurveto
          14 16 13 19 hvcurveto
          48 -69 70 169 vvcurveto
          144 89 159 155 84 39 -48 -94 vhcurveto
          hintmask 00011101
          -269 -253 -134 -45 vvcurveto
          -19 14 -14 12 vhcurveto
          15 6 13 16 hhcurveto
          endchar
        </CharString>
        <CharString name="Oslash">
          105 -97 -21 103 84 485 106 80 -20 hstem
          60 callsubr
          vstem
          -25 -80 rmoveto
          -17 20 -21 13 2 1 1 1 2 vhcurveto
          116 135 rlineto
          -21 27 38 -13 46 hhcurveto
          213 214 251 276 34 -9 30 -16 24 hvcurveto
          32 34 29 29 23 21 rrcurveto
          23 -5 -19 33 -25 hhcurveto
          -2 -12 -17 -80 -67 hvcurveto
          11 -20 -23 6 -25 hhcurveto
          -250 -208 -270 -237 -36 8 -33 16 -27 hvcurveto
          200 12 rmoveto
          -31 -24 24 39 -13 hvcurveto
          93 107 106 122 95 106 rrcurveto
          4 -17 2 -19 -23 vvcurveto
          -128 -113 -211 -119 vhcurveto
          -79 144 rmoveto
          185 136 147 0 vhcurveto
          1 31 8 23 30 34 -7 -26 24 vhcurveto
          -278 -324 rlineto
          endchar
        </CharString>
        <CharString name="Otilde">
          103 callsubr
          59 102 64 -20 hstem
          60 callsubr
          vstem
          710 883 -106 callsubr
          -416 -814 rmoveto
          -20 callgsubr
          -100 callgsubr
        </CharString>
        <CharString name="P">
          25 11 -21 251 59 292 69 hstem
          60 155 327 134 vstem
          347 241 rmoveto
          222 17 107 136 113 vvcurveto
          83 -58 71 -113 vhcurveto
          -7 callgsubr
          71 33 -46 -55 -83 -74 -105 -131 -3 hvcurveto
          -4 -8 -1 -9 -8 vvcurveto
          -22 7 -12 8 vhcurveto
          endchar
        </CharString>
        <CharString name="P.alt">
          42 11 -21 317 78 248 72 hstemhm
          0 114 -17 155 319 143 hintmask 00000000
          hintmask 11101100
          233 395 rmoveto
          -7 -21 -17 -3 -15 hhcurveto
          -43 -23 29 39 113 136 67 123 103 95 -47 -107 -104 -77 -63 -120 -13 hvcurveto
          -2 -7 -3 -9 -8 vvcurveto
          hintmask 11110100
          -21 7 -13 8 vhcurveto
          151 6 179 94 152 vvcurveto
          148 -131 64 -150 -200 -233 -113 -175 -63 39 -47 80 22 25 3 8 28 vhcurveto
          -47 -110 -50 -109 -50 vvcurveto
          -45 27 124 callsubr
          66 50 139 49 128 vhcurveto
          hintmask 11101100
          60 59 30 42 27 vvcurveto
          26 -27 12 -52 -68 -20 -55 -48 -17 vhcurveto
          endchar
        </CharString>
        <CharString name="P.smcp">
          -30 13 -21 463 64 hstem
          28 139 246 130 vstem
          262 237 rmoveto
          -3 -6 -2 -9 -6 vvcurveto
          -20 9 -10 13 vhcurveto
          120 4 144 75 119 vvcurveto
          83 -51 52 -91 vhcurveto
          -59 -58 -5 -67 hhcurveto
          -64 19 1 4 -40 hvcurveto
          -10 -16 -19 -11 -8 5 -10 11 14 30 -11 -11 -53 -40 -95 -36 -83 hvcurveto
          -31 -72 -31 -72 -31 vvcurveto
          -39 25 -12 39 58 24 36 0 vhcurveto
          0 -7 14 14 vvcurveto
          44 37 93 35 85 vhcurveto
          29 68 25 67 11 41 rrcurveto
          1 9 31 0 4 hhcurveto
          45 20 -31 -51 -76 -53 -47 -98 -13 hvcurveto
          endchar
        </CharString>
        <CharString name="P.smcp.titl">
          170 75 callsubr
          98 522 122 54 26 hstem
          -10 138 515 80 vstem
          723 -106 rmoveto
          742 -733 -742 vlineto
          372 343 rmoveto
          98 13 53 47 76 vvcurveto
          51 -20 31 -45 -4 -31 0 -1 -9 vhcurveto
          -11 -41 -25 -67 -29 -68 rrcurveto
          -35 -85 -37 -93 -44 vvcurveto
          -14 7 -14 0 vhcurveto
          0 -24 -36 -58 -39 -25 12 39 31 31 72 31 72 vhcurveto
          36 83 40 95 53 vvcurveto
          11 -30 11 -14 -11 -5 10 8 11 16 19 10 vhcurveto
          4 hlineto
          -1 14 35 -4 32 67 58 5 59 hhcurveto
          91 51 -52 -83 -119 -144 -75 -120 -4 hvcurveto
          -13 -9 10 20 6 2 9 3 6 hvcurveto
          361 133 callgsubr
        </CharString>
        <CharString name="Puerto">
          704 11 -21 30 -21 106 143 -67 67 -67 79 226 61 -41 71 15 69 64 -20 hstemhm
          60 155 489 118 107 98 153 98 hintmask 1001001111111000
          918 717 rmoveto
          -20 -18 -32 -57 -37 -69 rrcurveto
          5 -16 -19 3 -20 hhcurveto
          -33 -37 -8 -14 -37 hvcurveto
          65 -21 -56 37 -85 -7 callgsubr
          66 30 -44 -69 hvcurveto
          -2 vlineto
          -46 -43 -69 -81 -71 vvcurveto
          -35 23 -17 29 88 77 115 79 27 vhcurveto
          7 17 4 17 2 19 rrcurveto
          18 34 32 11 32 hhcurveto
          7 7 -1 -1 7 hvcurveto
          -48 -102 -43 -108 -33 vvcurveto
          -57 35 -23 52 37 60 10 27 25 vhcurveto
          11 -13 30 -7 vhcurveto
          -1 hlineto
          -8 -13 -25 -3 -16 hhcurveto
          -12 -4 12 10 56 30 85 36 69 hvcurveto
          68 callsubr
          hintmask 0110010111111000
          -62 -53 -30 -62 hhcurveto
          -20 -20 3 8 -22 18 callgsubr
          250 -578 26 callsubr
          -38 -30 -33 -9 -59 -80 -247 34 -74 hhcurveto
          -70 -55 -56 -46 -11 hvcurveto
          0 19 -12 14 vhcurveto
          8 12 35 32 85 230 -61 116 hhcurveto
          87 60 41 99 25 hvcurveto
          hintmask 1000110111111000
          -104 121 rmoveto
          -22 -14 29 41 95 61 58 -8 callgsubr
          14 3 10 44 24 -13 -41 -65 -57 -107 -60 vhcurveto
          endchar
        </CharString>
        <CharString name="Q">
          131 -280 131 -3 112 123 89 410 78 hstemhm
          76 154 318 155 -155 181 169 callsubr
          207 -81 rmoveto
          199 71 297 205 285 vvcurveto
          118 -78 62 -100 -220 -229 -239 -209 -88 64 -41 68 107 72 96 0 vhcurveto
          -4 29 -26 5 0 vvcurveto
          -15 -13 -36 -26 -24 hhcurveto
          -21 -33 12 68 122 80 159 95 49 hvcurveto
          80 63 -41 -102 -279 -220 -142 -194 -70 hvcurveto
          0 -46 12 -21 -42 -25 -43 -32 vhcurveto
          hintmask 01111100
          -24 19 -13 17 19 40 16 0 vhcurveto
          -14 75 260 -130 143 hhcurveto
          105 51 87 109 hvcurveto
          hintmask 10111010
          3 -5 -11 3 -7 -6 -2 -1 -1 hhcurveto
          -49 -32 -20 -21 -52 hhcurveto
          -103 -194 41 21 -89 hvcurveto
          endchar
        </CharString>
        <CharString name="Q.alt">
          161 -280 131 161 -21 615 96 hstem
          70 135 77 102 223 135 vstem
          523 606 rmoveto
          55 29 -51 -69 -138 -86 -142 -85 -85 hvcurveto
          -22 33 -30 101 85 vvcurveto
          93 47 128 92 45 vhcurveto
          -156 35 167 callgsubr
          37 37 6 11 36 vhcurveto
          -124 80 156 -164 192 hhcurveto
          125 91 64 132 0 -13 6 -15 hvcurveto
          -3 -3 -1 -3 hhcurveto
          -65 -15 -57 -5 -56 hhcurveto
          -135 -149 109 105 -81 hvcurveto
          150 97 119 212 178 vvcurveto
          52 -11 98 -112 -140 -197 -236 -206 -69 19 -79 19 -35 vhcurveto
          -67 6 -48 56 94 vvcurveto
          199 143 149 39 26 vhcurveto
          2 1 1 3 2 vvcurveto
          11 -16 17 -6 vhcurveto
          endchar
        </CharString>
        <CharString name="Q.smcp">
          10 -216 110 -11 96 85 78 311 70 hstemhm
          28 138 235 140 169 callsubr
          509 -51 rmoveto
          -38 -24 -15 -17 -34 hhcurveto
          -43 -167 30 16 -76 hvcurveto
          155 59 236 154 220 vvcurveto
          95 -75 55 -83 -174 -181 -191 -164 -70 54 -34 57 89 60 79 0 vhcurveto
          -3 25 -35 7 0 vvcurveto
          -13 -10 -27 -20 -15 hhcurveto
          -11 -21 8 48 94 59 124 69 37 hvcurveto
          55 -1 52 -36 -74 vvcurveto
          hintmask 01111100
          -216 -172 -103 -146 -52 vhcurveto
          0 -38 8 -13 -38 -24 -36 -26 vhcurveto
          hintmask 10111100
          -22 20 -12 17 19 27 10 1 2 vhcurveto
          17 -3 34 -13 40 -17 rrcurveto
          -35 83 114 -42 78 hhcurveto
          87 43 71 88 0 -23 6 -19 hvcurveto
          endchar
        </CharString>
        <CharString name="Q.smcp.titl">
          210 75 callsubr
          24 37 109 -63 63 459 113 156 callsubr
          138 138 235 140 122 hintmask 1101111110000000
          763 -106 rmoveto
          742 -773 -742 339 vlineto
          -110 35 rlineto
          -1 -2 -27 -10 -19 hhcurveto
          -17 -20 12 22 26 8 23 38 13 38 -8 0 hvcurveto
          94 31 176 89 229 vvcurveto
          74 -52 36 -55 1 vhcurveto
          -69 -37 -59 -124 -94 vvcurveto
          -48 21 -8 11 15 27 20 13 10 vhcurveto
          0 35 -7 3 -25 vhcurveto
          0 -60 -79 -89 -57 -54 34 70 164 181 191 174 83 75 -55 -95 -239 -224 -121 -114 -46 vhcurveto
          hintmask 1110111110000000
          -5 50 47 -7 41 hhcurveto
          61 50 16 61 37 hvcurveto
          19 23 -6 0 -56 -18 -50 -35 -26 hvcurveto
          185 -100 rmoveto
          26 -773 -26 vlineto
          773 71 callgsubr
          -773 -26 vlineto
          endchar
        </CharString>
        <CharString name="R">
          160 callgsubr
          98 callgsubr
          hintmask 10101100
          657 103 rmoveto
          155 callsubr
          -99 callgsubr
          hvcurveto
          hintmask 01011100
          -10 callgsubr
        </CharString>
        <CharString name="R.alt">
          92 -160 94 77 -21 317 78 247 94 hstemhm
          0 114 -16 163 309 131 hintmask 11111010
          794 -37 rmoveto
          155 callsubr
          -112 -44 93 256 -46 hvcurveto
          124 61 64 96 86 vvcurveto
          141 -116 59 -137 -201 -247 -127 -182 -62 38 -48 80 24 28 5 9 32 vhcurveto
          hintmask 11110110
          -49 -113 -55 -112 -49 vvcurveto
          -43 27 -14 43 67 35 40 0 vhcurveto
          0 -9 17 19 vvcurveto
          75 41 144 46 112 vhcurveto
          62 61 31 42 28 vvcurveto
          26 -27 12 -52 -68 -22 -54 -49 -15 vhcurveto
          -7 -22 -8 -23 -9 -23 rrcurveto
          -7 -21 -17 -3 -15 hhcurveto
          hintmask 11111010
          -43 -23 29 39 114 136 65 124 102 94 -45 -100 -42 -22 -51 -55 -59 hvcurveto
          14 -13 -14 15 -23 hhcurveto
          -44 -37 -62 -32 -18 13 -6 16 9 10 3 3 8 hvcurveto
          -24 vlineto
          -169 52 -219 195 36 callsubr
          vhcurveto
          endchar
        </CharString>
        <CharString name="R.smcp">
          2 -16 82 -53 -21 465 62 hstemhm
          5 145 122 250 -138 138 hintmask 10110100
          278 456 rmoveto
          7 30 1 3 hhcurveto
          43 23 -32 -49 -44 -17 -31 -26 -27 hvcurveto
          -1 1 rlineto
          7 -10 -12 8 -15 hhcurveto
          -39 -33 -52 -26 -18 13 -5 19 4 2 0 1 4 hvcurveto
          hintmask 10111000
          -1 -10 0 -10 -9 vvcurveto
          -105 33 -72 92 77 40 51 29 16 -19 12 0 vhcurveto
          -13 -16 -21 -13 -23 hhcurveto
          -33 -21 62 92 -15 hvcurveto
          80 26 76 65 89 vvcurveto
          82 -62 37 -84 vhcurveto
          -51 -72 -5 -59 hhcurveto
          -24 -28 2 2 -19 hvcurveto
          1 -6 -14 0 -4 hhcurveto
          -9 -9 -7 -10 -10 vvcurveto
          -6 3 -11 8 -6 vhcurveto
          36 -3 15 -5 -15 vvcurveto
          -58 -41 -95 -38 -83 vhcurveto
          -30 -67 -31 -71 -29 vvcurveto
          hintmask 01111000
          -37 25 -12 39 57 31 35 0 vhcurveto
          0 -7 14 14 vvcurveto
          65 36 93 34 86 vhcurveto
          24 60 23 59 8 38 rrcurveto
          endchar
        </CharString>
        <CharString name="R.smcp.titl">
          202 75 callsubr
          98 13 -21 306 167 57 122 156 callsubr
          125 145 122 250 121 -41 callgsubr
          hintmask 1101111110000000
          753 63 callgsubr
          395 562 rmoveto
          -8 -38 -24 -58 -23 -61 rrcurveto
          -32 -86 -38 -93 -65 vvcurveto
          -14 7 -14 0 vhcurveto
          0 -31 -35 -57 -39 -25 12 37 29 31 71 30 67 vhcurveto
          38 83 41 95 58 vvcurveto
          15 -15 5 -36 3 vhcurveto
          -8 6 -3 11 6 vvcurveto
          10 7 10 9 9 vhcurveto
          -1 36 30 -4 29 59 72 5 51 hhcurveto
          84 62 -37 -82 -89 -76 -65 -80 -26 hvcurveto
          -92 15 21 -62 33 hhcurveto
          hintmask 1011111110000000
          23 21 13 13 16 hvcurveto
          0 19 -12 -16 vvcurveto
          -29 -40 -51 -77 -92 -33 72 105 vhcurveto
          hintmask 1101111110000000
          9 0 10 1 10 vhcurveto
          -1 -4 -2 0 -4 hhcurveto
          -19 -13 5 18 26 33 52 39 16 12 -8 -8 10 hvcurveto
          28 27 15 31 44 vvcurveto
          49 -23 32 -43 vhcurveto
          -3 -30 -1 -7 hhcurveto
          endchar
        </CharString>
        <CharString name="Racute">
          160 callgsubr
          131 111 98 callgsubr
          hintmask 10101110
          657 792 -104 callgsubr
          -689 vmoveto
          155 callsubr
          -99 callgsubr
          hvcurveto
          hintmask 01011110
          -10 callgsubr
        </CharString>
        <CharString name="Rcaron">
          160 callgsubr
          0 52 219 -20 98 callgsubr
          hintmask 10001111
          578 930 -104 callsubr
          79 -827 rmoveto
          155 callsubr
          hintmask 10100111
          -99 callgsubr
          hvcurveto
          hintmask 01010111
          -10 callgsubr
        </CharString>
        <CharString name="Rcommaaccent">
          105 -277 -21 278 94 -63 -21 374 231 12 54 98 callgsubr
          140 -257 rmoveto
          -15 0 -26 34 118 83 139 92 6 -2 9 -5 3 vhcurveto
          4 -13 -15 2 -15 hhcurveto
          -31 -32 -9 -18 -21 hvcurveto
          -11 -10 -20 -30 -38 vvcurveto
          -7 1 -8 2 -6 vhcurveto
          -8 12 21 -1 21 hhcurveto
          hintmask 11011110
          -65 callsubr
          517 360 rmoveto
          155 callsubr
          -99 callgsubr
          -18 13 -6 16 9 10 3 3 8 hvcurveto
          -1 -16 -1 -17 -16 vvcurveto
          hintmask 10111110
          -133 40 -90 110 36 callsubr
          vhcurveto
          endchar
        </CharString>
        <CharString name="S">
          -48 -23 142 callgsubr
          hstemhm
          25 121 6 235 callgsubr
          -21 121 hintmask 00000000
          hintmask 10111010
          452 441 rmoveto
          -12 callgsubr
          112 callsubr
          hintmask 10111100
          42 callsubr
          hintmask 01111100
          -4 callsubr
          hvcurveto
          -60 callsubr
          hvcurveto
          hintmask 10111010
          183 callgsubr
          vhcurveto
          101 callgsubr
        </CharString>
        <CharString name="S.alt">
          -24 -36 64 -64 246 -146 100 441 65 hstemhm
          0 97 52 140 161 121 hintmask 00000000
          hintmask 10111110
          314 85 rmoveto
          -40 -19 -44 -17 -43 hhcurveto
          -56 -55 29 45 8 1 8 4 9 hvcurveto
          1 4 4 0 5 hhcurveto
          41 78 -24 -19 80 hvcurveto
          112 -19 rmoveto
          -2 10 11 0 12 hhcurveto
          62 112 37 70 12 -2 14 -5 16 hvcurveto
          -24 -43 -48 -25 -75 hhcurveto
          6 1 6 6 125 -172 91 110 vvcurveto
          26 8 37 27 30 vhcurveto
          3 11 11 1 11 hhcurveto
          57 36 -39 -47 183 callgsubr
          hvcurveto
          hintmask 01011110
          -13 9 -8 8 -3 vhcurveto
          -12 callgsubr
          hintmask 10111110
          -120 112 -86 45 -73 vhcurveto
          11 -48 -48 11 -52 hhcurveto
          -106 -52 -54 -57 -65 67 -70 130 86 94 33 69 49 hvcurveto
          endchar
        </CharString>
        <CharString name="S.smcp">
          -105 -18 56 -56 194 290 59 hstemhm
          -6 113 -5 127 9 131 -25 112 hintmask 00000000
          hintmask 10101010
          351 339 rmoveto
          56 12 49 47 42 vvcurveto
          54 -47 31 -78 -117 -112 -54 -107 -66 44 -54 39 -46 vhcurveto
          28 -33 25 -29 -28 vvcurveto
          hintmask 10110100
          -43 -26 -27 -34 -38 -33 26 40 vhcurveto
          21 11 21 17 vvcurveto
          8 -4 5 -13 vhcurveto
          hintmask 01110100
          -71 -36 -45 -49 -59 54 -41 97 114 110 55 108 49 -38 44 -37 42 hvcurveto
          -34 39 -31 36 41 vvcurveto
          hintmask 10101010
          19 6 27 19 22 vhcurveto
          1 6 16 1 6 hhcurveto
          38 24 -29 -33 -15 -3 -12 -11 -14 hvcurveto
          -12 12 -9 9 -3 vhcurveto
          endchar
        </CharString>
        <CharString name="S.smcp.titl">
          95 75 callsubr
          88 543 111 156 callsubr
          104 -104 212 16 120 -9 115 25 184 -97 97 -41 callgsubr
          hintmask 1111100110000000
          653 156 callgsubr
          -663 -26 vlineto
          663 71 callgsubr
          -663 -26 vlineto
          663 54 callgsubr
          -663 -742 vlineto
          440 469 rmoveto
          11 14 3 12 15 vvcurveto
          33 -24 29 -38 -6 -16 -1 -1 -6 vhcurveto
          -19 -22 -6 -27 -19 -93 140 -58 -100 vvcurveto
          -108 -110 -55 -114 -97 -54 41 59 49 36 45 71 vhcurveto
          hintmask 1111011001000000
          13 4 -5 -8 hvcurveto
          -17 -11 -21 -21 vvcurveto
          -40 33 -26 38 34 26 27 43 vhcurveto
          61 -136 91 104 vvcurveto
          107 112 54 117 78 47 -31 -54 -42 -49 -47 -56 -12 vhcurveto
          -9 3 -12 9 12 vvcurveto
          endchar
        </CharString>
        <CharString name="S_t_g_o">
          1347 -292 72 -18 114 -2 60 -39 62 -62 239 -176 88 -56 75 -75 92 -81 -21 184 84 156 85 55 197 -92 50 -26 68 hstemhm
          -150 121 175 148 -67 149 72 136 -102 130 -102 124 581 97 -97 124 -124 182 21 60 89 117 227 76 hintmask 10100010011100110100100111000000
          721 474 rmoveto
          0 104 115 30 vvcurveto
          19 -43 38 -20 -41 -74 -74 -121 -50 vhcurveto
          -84 -6 rlineto
          -50 -4 -41 -33 -44 vvcurveto
          -33 17 -17 13 -4 vhcurveto
          20 34 31 16 60 12 rrcurveto
          -36 -76 -79 -171 -80 vvcurveto
          -57 43 -28 66 67 75 50 41 41 vhcurveto
          -56 6 30 -35 63 hhcurveto
          92 84 107 0 hvcurveto
          -21 -66 -22 -60 -30 -51 rrcurveto
          8 -76 -75 6 -76 hhcurveto
          hintmask 10100100011100110001100111000000
          -117 -88 -35 -76 -65 52 -50 124 95 94 37 91 89 hvcurveto
          hintmask 01010000111010110100100111000000
          -28 143 178 -46 148 hhcurveto
          116 85 110 102 0 -11 6 -11 hvcurveto
          -24 -11 -64 -80 -115 hhcurveto
          -146 -128 21 14 -122 hvcurveto
          59 82 55 110 50 146 rrcurveto
          56 63 66 91 70 vvcurveto
          43 -61 37 -28 -20 -48 -82 -32 -16 vhcurveto
          24 -16 -45 31 -43 hhcurveto
          -55 -57 -38 -55 -49 hvcurveto
          -18 39 -134 32 0 vvcurveto
          903 -303 rmoveto
          -4 22 21 -1 20 hhcurveto
          155 4 144 147 171 vvcurveto
          131 -99 82 -140 -145 -137 -111 -40 vhcurveto
          -2 vlineto
          -10 1 6 -8 11 hhcurveto
          2 hlineto
          3 19 95 118 125 hhcurveto
          125 61 -76 -106 -118 -95 -101 -116 -25 -16 5 -8 callgsubr
          25 58 60 vvcurveto
          75 -58 43 -67 -87 -54 -53 -66 -74 51 -59 68 -36 vhcurveto
          hintmask 10100100011100110100010111000000
          -94 -29 -64 -61 -50 hhcurveto
          -34 -21 41 59 hvcurveto
          hintmask 10100100011100110010001111000000
          94 58 63 17 vvcurveto
          10 -11 18 -10 -43 -118 -146 -131 212 callgsubr
          -1158 375 rmoveto
          77 6 68 63 54 vvcurveto
          40 -31 34 -90 -222 -123 -130 -124 vhcurveto
          hintmask 10010100011100101100100111000000
          -125 81 -88 -114 vvcurveto
          -146 -94 -57 -65 -58 -39 34 115 callgsubr
          hintmask 10001000011100101100100111000000
          6 -3 4 -8 -84 -42 -56 -60 -72 64 -51 119 177 166 122 175 vhcurveto
          hintmask 10100100011100110100100111000000
          118 -82 106 128 vvcurveto
          93 71 35 0 vhcurveto
          hintmask 10100100011001110010100111000000
          0 11 1 16 35 55 -4 -24 vhcurveto
          hintmask 10100001011100110100100111000000
          -37 -34 -35 0 vhcurveto
          13 callgsubr
          653 -155 rmoveto
          -44 -87 -19 -63 -14 -58 rrcurveto
          0 -85 -99 -65 -22 -8 25 17 107 93 145 89 56 vhcurveto
          0 50 -7 25 -36 vhcurveto
          -269 -15 rmoveto
          -53 -67 -40 -85 -14 -71 rrcurveto
          hintmask 10100010011100110010100111000000
          -31 -36 -54 -55 -42 hhcurveto
          hintmask 10100100011100110100100111000000
          -22 -6 8 17 29 14 100 97 179 hvcurveto
          5 4 1 5 hhcurveto
          50 45 -19 -6 47 hvcurveto
          38 -524 rmoveto
          -44 -45 -59 -26 -82 hhcurveto
          hintmask 10100100011100110001100111000000
          -54 -15 21 28 22 19 23 52 53 84 -15 -9 47 hvcurveto
          669 427 rmoveto
          -49 16 -31 31 47 vvcurveto
          17 11 16 15 29 34 -24 -50 -24 -9 -29 0 vhcurveto
          endchar
        </CharString>
        <CharString name="Sacute">
          -48 -23 142 callgsubr
          133 111 hstemhm
          25 121 6 235 callgsubr
          -129 229 -121 121 -41 callgsubr
          hintmask 1011110100000000
          615 803 -104 callgsubr
          -163 -362 rmoveto
          -12 callgsubr
          112 callsubr
          hintmask 1011111000000000
          42 callsubr
          hintmask 0111111000000000
          -4 callsubr
          hvcurveto
          -60 callsubr
          hvcurveto
          hintmask 1011110010000000
          183 callgsubr
          vhcurveto
          101 callgsubr
        </CharString>
        <CharString name="Scaron">
          -48 -23 142 callgsubr
          -65 106 219 -20 hstemhm
          25 121 6 235 callgsubr
          -21 121 -41 callgsubr
          hintmask 1001111010000000
          602 928 -104 callsubr
          -150 -487 rmoveto
          64 15 58 58 52 vvcurveto
          hintmask 0110111100000000
          107 callgsubr
          vhcurveto
          hintmask 1010111100000000
          -58 -35 35 55 hvcurveto
          36 16 28 14 vvcurveto
          6 -3 4 -8 -4 callsubr
          vhcurveto
          hintmask 1010111010000000
          -60 callsubr
          183 callgsubr
          hvcurveto
          101 callgsubr
        </CharString>
        <CharString name="Scedilla">
          -48 -225 49 153 142 callgsubr
          hstemhm
          25 121 -89 61 34 140 -95 80 51 146 -21 121 hintmask 1101101001000000
          452 441 rmoveto
          -12 callgsubr
          hintmask 1101101010000000
          112 callsubr
          94 callgsubr
          hintmask 1011101010000000
          6 -3 4 -8 -84 -42 -56 -60 -60 43 -44 83 -14 vhcurveto
          -5 -5 -5 -5 -3 -4 rrcurveto
          hintmask 1101010110000000
          -93 callsubr
          4 4 8 6 vhcurveto
          139 2 123 68 135 vvcurveto
          hintmask 1101101001000000
          -60 callsubr
          183 callgsubr
          hvcurveto
          101 callgsubr
        </CharString>
        <CharString name="Scircumflex">
          -48 -23 61 567 65 272 -20 hstemhm
          25 121 6 235 callgsubr
          -21 121 hintmask 00000000
          hintmask 11111010
          539 723 -107 callsubr
          -87 -282 rmoveto
          64 15 58 58 52 vvcurveto
          hintmask 11111100
          107 callgsubr
          -58 -35 35 55 vhcurveto
          36 16 28 14 vvcurveto
          6 -3 4 -8 -4 callsubr
          vhcurveto
          hintmask 11111010
          -60 callsubr
          183 callgsubr
          hvcurveto
          101 callgsubr
        </CharString>
        <CharString name="Scommaaccent">
          -48 -304 -21 302 142 callgsubr
          hstemhm
          25 121 -63 165 -96 235 callgsubr
          -21 121 -41 callgsubr
          hintmask 1101010010000000
          13 -284 rmoveto
          -15 0 -26 34 118 83 139 92 6 -2 9 -5 3 vhcurveto
          4 -13 -15 2 -15 hhcurveto
          -31 -32 -9 -18 -21 hvcurveto
          -11 -10 -20 -30 -38 vvcurveto
          -7 1 -8 2 -6 vhcurveto
          -8 12 21 -1 21 hhcurveto
          -65 callsubr
          439 725 rmoveto
          -12 callgsubr
          hintmask 1101101100000000
          112 callsubr
          42 callsubr
          hintmask 1011101100000000
          -4 callsubr
          hvcurveto
          -60 callsubr
          hvcurveto
          hintmask 1101101010000000
          183 callgsubr
          vhcurveto
          101 callgsubr
        </CharString>
        <CharString name="T">
          -4 -63 64 -64 230 327 77 callgsubr
          -23 66 511 69 -41 callgsubr
          hintmask 1000100110000000
          406 541 rmoveto
          8 callsubr
          109 callsubr
          -59 57 -47 102 vhcurveto
          hintmask 0101001010000000
          127 callgsubr
          hvcurveto
          -22 callsubr
          81 callsubr
          hvcurveto
          hintmask 1010001010000000
          64 21 25 38 vhcurveto
          hintmask 1000011010000000
          237 callgsubr
          hvcurveto
          endchar
        </CharString>
        <CharString name="T.alt">
          53 -25 76 201 80 166 217 -201 143 -60 118 hstemhm
          45 117 -103 103 -103 151 270 107 -41 callgsubr
          hintmask 1101000110000000
          496 529 rmoveto
          -9 37 36 -6 31 hhcurveto
          56 39 20 61 37 -20 25 -35 -38 -55 -36 -22 -47 hvcurveto
          52 -75 -146 64 -107 hhcurveto
          -73 -54 -29 -84 -54 41 -50 56 8 15 7 4 hvcurveto
          -2 9 -1 12 6 vvcurveto
          28 18 33 51 vhcurveto
          hintmask 1110010010000000
          39 72 -25 -22 76 hvcurveto
          -207 -107 -152 -128 -165 vvcurveto
          -120 103 -55 115 145 165 88 160 61 -32 48 -56 vhcurveto
          hintmask 1100101010000000
          -49 -40 -37 -36 -1 hvcurveto
          -6 1 -1 2 47 21 -29 -35 -59 -58 -78 -96 -61 -55 38 85 147 113 132 173 76 vhcurveto
          endchar
        </CharString>
        <CharString name="T.smcp">
          -39 -22 61 -61 168 222 117 -39 39 -39 93 hstemhm
          -14 93 hintmask 00000000
          hintmask 10010100
          382 382 rmoveto
          -9 30 30 -5 29 hhcurveto
          84 40 39 62 38 -42 27 0 hvcurveto
          -37 -19 -33 -12 -32 -107 -100 54 -113 hhcurveto
          -55 -37 -37 -47 -74 55 -2 0 hvcurveto
          35 22 32 28 vhcurveto
          hintmask 01100100
          50 40 -18 -21 55 hvcurveto
          -66 -53 -32 -99 -17 -90 rrcurveto
          -57 -10 -16 -69 -16 hhcurveto
          -32 -39 35 22 hvcurveto
          16 14 16 8 vvcurveto
          6 -8 4 -9 -21 -69 -44 -43 -37 35 -44 86 vhcurveto
          hintmask 10001100
          120 79 60 344 76 hvcurveto
          endchar
        </CharString>
        <CharString name="T.smcp.titl">
          161 75 callsubr
          84 507 151 -97 97 156 callsubr
          86 -86 157 538 38 hintmask 00000000
          hintmask 11101101
          723 -206 168 callsubr
          733 54 callgsubr
          -733 -742 vlineto
          hintmask 11011101
          482 488 rmoveto
          hintmask 11101101
          -344 -76 -79 -60 -120 hhcurveto
          -86 -35 44 37 43 69 44 21 9 8 -4 -6 hvcurveto
          -8 -14 -16 -16 vvcurveto
          -22 39 -35 32 16 16 69 57 10 vhcurveto
          17 90 32 99 66 53 rrcurveto
          21 -55 -40 18 -50 hhcurveto
          -28 -22 -32 -35 hvcurveto
          0 -55 2 74 vvcurveto
          47 37 37 55 vhcurveto
          113 100 -54 107 hhcurveto
          32 33 12 37 19 hvcurveto
          0 42 -27 -38 vvcurveto
          hintmask 11011011
          -62 -40 -39 -84 -29 -30 5 9 -30 vhcurveto
          endchar
        </CharString>
        <CharString name="T_h">
          563 -63 64 -64 230 -175 68 -49 -21 491 22 -22 120 -97 199 -104 104 hstemhm
          -30 115 -23 66 693 -20 callsubr
          hintmask 0010101010001000
          475 517 rmoveto
          -17 48 79 -19 74 hhcurveto
          16 16 1 2 17 hvcurveto
          -19 -80 -30 -92 -36 -74 rrcurveto
          0 -106 88 callgsubr
          -28 55 -10 25 32 callsubr
          vhcurveto
          -3 callsubr
          vvcurveto
          hintmask 0001101010010000
          10 callgsubr
          -16 15 -2 vhcurveto
          hintmask 0010101010100000
          -2 -38 -32 -31 hhcurveto
          0 0 5 -10 7 vhcurveto
          hintmask 1000101010000100
          76 113 171 102 vvcurveto
          46 -26 36 -50 151 callgsubr
          -5 4 32 62 33 66 27 60 rlinecurve
          37 28 25 38 50 vvcurveto
          26 -49 24 -49 -33 -29 -51 -39 -6 vhcurveto
          hintmask 1000010010100000
          -7 -38 -25 -2 -35 hhcurveto
          hintmask 1000101001100000
          -206 -156 102 -123 hhcurveto
          -63 -39 -36 -53 81 callsubr
          hvcurveto
          hintmask 1000100110100000
          64 21 25 38 237 callgsubr
          vhcurveto
          8 callsubr
          hintmask 0100101010100000
          109 callsubr
          -59 57 -47 102 127 callgsubr
          vhcurveto
          endchar
        </CharString>
        <CharString name="Tbar">
          -4 -63 64 -64 230 89 69 169 77 callgsubr
          -23 66 511 69 hintmask 1010100101000000
          510 275 rmoveto
          17 12 9 22 11 vvcurveto
          8 -3 2 -3 vhcurveto
          -4 -34 -33 -1 -35 hhcurveto
          16 56 16 64 15 72 rrcurveto
          -14 42 41 -9 40 hhcurveto
          69 41 44 63 59 -25 77 -28 -7 -5 -2 -4 -4 hvcurveto
          hintmask 1010010101000000
          -74 -17 -30 -44 vhcurveto
          hintmask 1010001011000000
          -119 -140 76 -155 hhcurveto
          -63 -39 -36 -53 81 callsubr
          hvcurveto
          64 21 25 38 237 callgsubr
          vhcurveto
          -53 -42 -34 -82 -26 -89 -64 6 rcurveline
          -27 -23 -12 -28 -15 vvcurveto
          -7 2 -5 6 vhcurveto
          75 hlineto
          -132 -33 -19 -123 -39 hhcurveto
          hintmask 0111000101000000
          -47 -50 48 39 hvcurveto
          36 22 22 9 vvcurveto
          109 callsubr
          -59 57 -47 102 105 95 81 245 80 vhcurveto
          35 3 33 4 33 5 rrcurveto
          endchar
        </CharString>
        <CharString name="Tcaron">
          -4 -63 64 -64 230 327 133 -133 222 -222 243 -138 104 232 -20 hstemhm
          -30 115 -23 66 511 69 -41 callgsubr
          hintmask 1001001101000000
          647 933 -104 callsubr
          -241 -392 rmoveto
          8 callsubr
          109 callsubr
          vhcurveto
          hintmask 1000011101000000
          -59 57 -47 102 127 callgsubr
          vhcurveto
          -22 callsubr
          hvcurveto
          hintmask 1010001101000000
          81 callsubr
          vhcurveto
          hintmask 0100101101000000
          64 21 25 38 vhcurveto
          hintmask 1000011011000000
          237 callgsubr
          hvcurveto
          endchar
        </CharString>
        <CharString name="Tcommaaccent">
          -4 -335 -21 293 64 -64 230 327 77 callgsubr
          -45 165 -143 66 511 69 -41 callgsubr
          hintmask 1101000010100000
          -30 -315 rmoveto
          -15 0 -26 34 118 83 139 92 6 -2 9 -5 3 vhcurveto
          4 -13 -15 2 -15 hhcurveto
          -31 -32 -9 -18 -21 hvcurveto
          hintmask 1101000100100000
          -11 -10 -20 -30 -38 vvcurveto
          -7 1 -8 2 -6 vhcurveto
          hintmask 1100001010100000
          -8 12 21 -1 21 hhcurveto
          -65 callsubr
          436 856 rmoveto
          hintmask 1100010001100000
          8 callsubr
          109 callsubr
          -59 57 -47 102 vhcurveto
          hintmask 1010100100100000
          127 callgsubr
          hvcurveto
          -22 callsubr
          81 callsubr
          hvcurveto
          hintmask 1101000100100000
          64 21 25 38 vhcurveto
          hintmask 1100001100100000
          237 callgsubr
          hvcurveto
          endchar
        </CharString>
        <CharString name="Thorn">
          29 -10 200 -57 57 294 69 54 48 10 -20 hstemhm
          60 163 284 134 hintmask 00000000
          hintmask 01101110
          231 138 rmoveto
          -2 15 27 -3 39 hhcurveto
          223 106 153 113 83 -58 71 -113 -22 -40 0 -6 -22 hvcurveto
          15 38 7 32 1 23 rrcurveto
          hintmask 10110110
          10 -11 15 -5 vhcurveto
          -21 -49 -10 -31 hhcurveto
          -44 -49 5 1 -22 hvcurveto
          -9 -7 -6 -11 -13 vvcurveto
          -7 2 -12 6 -4 vhcurveto
          51 -4 20 -7 -25 -140 -181 -289 -95 vvcurveto
          -43 27 -14 43 67 35 40 0 vhcurveto
          0 -9 17 19 vvcurveto
          hintmask 01110110
          21 3 28 5 23 vhcurveto
          13 54 rmoveto
          28 96 50 105 38 89 rrcurveto
          1 7 27 1 9 hhcurveto
          71 33 -46 -55 -127 -124 -66 -108 -11 -10 1 1 -10 hvcurveto
          endchar
        </CharString>
        <CharString name="U">
          51 callsubr
          686 -20 -9 callsubr
          hintmask 00000000
          hintmask 10011101
          451 187 -91 callgsubr
          hintmask 00111101
          -50 callgsubr
          hintmask 10011110
          -98 callgsubr
          hvcurveto
          hintmask 01011110
          95 callgsubr
          vhcurveto
          -97 callgsubr
        </CharString>
        <CharString name="U.smcp">
          43 -11 71 -71 99 -81 -21 539 -20 hstemhm
          29 135 -18 141 41 104 -104 208 hintmask 01011010
          448 226 rmoveto
          97 127 34 84 34 vvcurveto
          21 -30 33 -26 -76 -62 -103 -185 -34 vhcurveto
          -76 -48 -92 -73 -33 hhcurveto
          -8 -6 9 10 35 26 65 27 62 hvcurveto
          hintmask 10010110
          33 76 37 86 55 vvcurveto
          21 -17 12 -14 vhcurveto
          -4 -47 -12 -1 -8 -25 -25 5 -28 hhcurveto
          -9 -13 -21 -17 -6 1 -5 4 -4 hvcurveto
          31 -2 15 -4 6 -12 rrcurveto
          -58 -31 -74 -30 -69 vhcurveto
          hintmask 10011001
          -28 -64 -28 -68 -40 vvcurveto
          -54 26 -32 74 97 102 135 9 7 vhcurveto
          -1 -5 -6 -39 -13 vvcurveto
          hintmask 00111001
          -63 37 -27 51 52 68 24 27 10 -10 16 -11 7 vhcurveto
          hintmask 10011010
          -8 -27 -10 -2 -18 hhcurveto
          -18 -10 25 28 20 7 60 9 33 hvcurveto
          endchar
        </CharString>
        <CharString name="U.smcp.titl">
          243 75 callsubr
          92 24 -21 536 111 156 callsubr
          139 135 164 208 167 -124 124 hintmask 1111111100000000
          803 -106 rmoveto
          742 -813 -742 vlineto
          560 334 rmoveto
          -11 -35 -7 -60 -20 vvcurveto
          -28 10 -25 18 18 10 2 8 27 vhcurveto
          11 -7 10 -16 -10 vvcurveto
          -27 -68 -24 -52 -51 -37 27 63 13 6 40 1 4 vhcurveto
          -9 -7 -102 -135 -97 hhcurveto
          -74 -26 32 54 40 27 69 29 63 hvcurveto
          27 70 34 73 58 vvcurveto
          -6 12 -15 4 -31 2 rrcurveto
          -4 4 -1 5 6 vvcurveto
          17 13 21 9 vhcurveto
          28 25 -5 25 hhcurveto
          8 12 1 4 47 hvcurveto
          14 17 -12 -21 -55 -37 -86 -33 -76 hvcurveto
          -27 -62 -26 -65 -35 vvcurveto
          -10 6 -9 8 33 92 73 76 48 vhcurveto
          185 34 62 103 76 hhcurveto
          hintmask 1111111010000000
          26 30 -33 -21 -34 -34 -84 -97 -127 hvcurveto
          255 -432 rmoveto
          26 -813 -26 vlineto
          813 71 callgsubr
          -813 -26 vlineto
          endchar
        </CharString>
        <CharString name="Uacute">
          51 callsubr
          819 111 35 callsubr
          hintmask 00000000
          hintmask 10011110
          713 802 -104 callgsubr
          -262 -615 -91 callgsubr
          hintmask 00111110
          -50 callgsubr
          hintmask 10011110
          -98 callgsubr
          hvcurveto
          hintmask 01011110
          95 callgsubr
          vhcurveto
          -97 callgsubr
        </CharString>
        <CharString name="Ubreve">
          51 callsubr
          774 95 -9 callsubr
          hintmask 00000000
          hintmask 10011101
          674 940 -89 callsubr
          -223 -753 -91 callgsubr
          hintmask 00111101
          -50 callgsubr
          hintmask 10011110
          -98 callgsubr
          hvcurveto
          hintmask 01011110
          95 callgsubr
          vhcurveto
          -97 callgsubr
        </CharString>
        <CharString name="Ucircumflex">
          141 -17 80 -55 -21 935 -20 -9 callsubr
          169 callsubr
          603 703 -107 callsubr
          -152 -516 rmoveto
          -10 -37 -3 -28 -29 vvcurveto
          -78 42 -32 59 63 81 28 31 12 -9 16 -8 6 vhcurveto
          hintmask 10111010
          1 callgsubr
          hintmask 01111100
          -90 -53 -132 -238 -71 hvcurveto
          -100 -64 -97 -98 -46 hhcurveto
          -98 callgsubr
          95 callgsubr
          hvcurveto
          -97 callgsubr
        </CharString>
        <CharString name="Udieresis">
          51 callsubr
          728 141 35 callsubr
          hintmask 00000000
          hintmask 10011110
          462 721 rmoveto
          -107 callgsubr
          196 hmoveto
          -107 callgsubr
          -207 -534 -91 callgsubr
          hintmask 00111110
          -50 callgsubr
          hintmask 10011110
          -98 callgsubr
          hvcurveto
          hintmask 01011110
          95 callgsubr
          vhcurveto
          -97 callgsubr
        </CharString>
        <CharString name="Ugrave">
          141 -13 76 -59 -21 686 23 201 -20 143 callgsubr
          -63 63 53 109 -109 245 -41 callgsubr
          hintmask 1011101100000000
          394 893 -102 callgsubr
          57 -706 rmoveto
          -10 -37 -3 -28 -29 vvcurveto
          -78 42 -32 59 vhcurveto
          hintmask 1011110010000000
          63 81 28 31 12 -9 16 -8 6 hvcurveto
          -9 -22 -19 -4 -17 hhcurveto
          -37 -24 22 56 26 10 78 13 46 hvcurveto
          124 163 44 107 45 vvcurveto
          hintmask 0111110010000000
          -50 callgsubr
          hintmask 1011110100000000
          -98 callgsubr
          95 callgsubr
          hvcurveto
          -97 callgsubr
        </CharString>
        <CharString name="Uhungarumlaut">
          51 callsubr
          956 -20 -9 callsubr
          hintmask 00000000
          hintmask 10011101
          782 873 -76 callsubr
          -137 -686 -91 callgsubr
          hintmask 00111101
          -50 callgsubr
          hintmask 10011110
          -98 callgsubr
          hvcurveto
          hintmask 01011101
          95 callgsubr
          vhcurveto
          -97 callgsubr
        </CharString>
        <CharString name="Umacron">
          141 -17 80 -55 -21 750 93 11 -20 -9 callsubr
          hintmask 00000000
          hintmask 10101101
          660 763 -78 callgsubr
          hintmask 10011110
          -54 callgsubr
          hintmask 10101110
          -46 callsubr
          -209 -576 rmoveto
          -10 -37 -3 -28 -29 vvcurveto
          -78 42 -32 59 63 81 28 31 12 -9 16 -8 6 vhcurveto
          hintmask 10101101
          1 callgsubr
          hintmask 01101110
          -90 -53 -132 -238 -71 hvcurveto
          -100 -64 -97 -98 -46 hhcurveto
          -98 callgsubr
          95 callgsubr
          hvcurveto
          -97 callgsubr
        </CharString>
        <CharString name="Uogonek">
          141 -200 59 128 154 callsubr
          686 -20 35 callsubr
          -57 87 -87 193 hintmask 1001111100000000
          451 187 rmoveto
          -10 -37 -3 -28 -29 vvcurveto
          -78 42 -32 59 vhcurveto
          hintmask 1100111010000000
          -30 -34 -19 -39 -41 -85 callsubr
          31 12 31 20 29 hvcurveto
          hintmask 1100111001000000
          41 10 33 19 20 vvcurveto
          12 -9 16 -8 6 vhcurveto
          -9 -22 -19 -4 -17 hhcurveto
          hintmask 1010111100000000
          -37 -24 22 56 26 10 78 13 46 hvcurveto
          124 163 44 107 45 vvcurveto
          -50 callgsubr
          -98 callgsubr
          95 callgsubr
          hvcurveto
          -97 callgsubr
        </CharString>
        <CharString name="Uring">
          141 -17 80 -55 -21 725 51 0 108 0 50 -9 callsubr
          -176 98 -41 callgsubr
          hintmask 1001011001000000
          535 763 -34 callsubr
          hintmask 1010111100000000
          149 91 -34 callgsubr
          -233 -667 rmoveto
          -10 -37 -3 -28 -29 vvcurveto
          -78 42 -32 59 63 81 28 31 12 -9 16 -8 6 vhcurveto
          hintmask 1001011010000000
          1 callgsubr
          hintmask 0101011100000000
          -90 -53 -132 -238 -71 hvcurveto
          -100 -64 -97 -98 -46 hhcurveto
          -98 callgsubr
          95 callgsubr
          hvcurveto
          -97 callgsubr
        </CharString>
        <CharString name="Utilde">
          51 callsubr
          768 102 64 -20 -9 callsubr
          -41 callgsubr
          hintmask 1001111010000000
          719 915 -106 callsubr
          -268 -728 -91 callgsubr
          hintmask 0011111010000000
          -50 callgsubr
          hintmask 1001111100000000
          -98 callgsubr
          hvcurveto
          hintmask 0101111100000000
          95 callgsubr
          vhcurveto
          -97 callgsubr
        </CharString>
        <CharString name="V">
          -13 -3 -21 620 67 7 -20 hstemhm
          253 callsubr
          248 128 hintmask 00000000
          hintmask 11011000
          85 31 rmoveto
          -30 21 -25 27 36 61 34 49 13 vhcurveto
          176 135 245 273 121 vvcurveto
          59 -27 23 -50 -29 -28 -8 0 vhcurveto
          0 6 -30 -33 vvcurveto
          -98 -131 -232 -151 -131 vhcurveto
          47 callsubr
          hvcurveto
          hintmask 10111000
          -76 -5 -93 -13 -99 vhcurveto
          0 -42 -17 -2 -28 vhcurveto
          endchar
        </CharString>
        <CharString name="V.smcp">
          -64 2 -21 477 62 5 -20 hstemhm
          106 129 171 118 hintmask 00000000
          hintmask 11011000
          401 513 rmoveto
          0 5 -22 -26 vvcurveto
          -69 -87 -160 -107 -102 vhcurveto
          0 23 144 75 vvcurveto
          125 -47 42 -55 -71 -49 -33 -10 -9 10 -11 10 -8 vhcurveto
          5 13 16 4 12 hhcurveto
          18 14 -65 -123 -58 -4 -70 -9 -76 hvcurveto
          -14 -9 -20 -13 -19 vvcurveto
          -23 21 -21 26 29 51 31 37 14 vhcurveto
          137 105 187 210 93 vvcurveto
          hintmask 10111000
          49 -24 19 -45 -26 -21 -6 0 vhcurveto
          endchar
        </CharString>
        <CharString name="V.smcp.titl">
          136 75 callsubr
          87 544 111 156 callsubr
          169 -169 216 129 171 118 68 hintmask 11111011
          692 -106 rmoveto
          742 -702 -742 vlineto
          518 625 rmoveto
          0 21 6 26 45 24 -19 -49 -93 -187 -210 -137 -105 vhcurveto
          hintmask 11110111
          -37 -14 -51 -31 -29 hhcurveto
          hintmask 11111011
          193 callsubr
          hintmask 11110111
          9 76 4 70 58 vvcurveto
          123 -14 65 -18 -12 -16 -4 -5 -13 vhcurveto
          -10 8 -10 11 9 vvcurveto
          10 49 33 71 55 47 -42 -125 -75 -23 -144 0 vhcurveto
          107 102 87 160 69 vvcurveto
          26 -5 22 0 vhcurveto
          191 -719 rmoveto
          26 -702 -26 vlineto
          702 71 callgsubr
          -702 -26 vlineto
          endchar
        </CharString>
        <CharString name="W">
          320 -13 -21 630 71 9 -20 hstemhm
          132 141 203 128 -128 144 224 138 hintmask 00000000
          hintmask 11011010
          578 72 rmoveto
          176 135 228 192 192 vvcurveto
          59 -36 26 -48 -47 -24 -18 -8 vhcurveto
          hintmask 11010110
          -7 17 -21 -46 vvcurveto
          -140 -109 -165 -151 -131 vhcurveto
          11 101 9 120 86 39 16 72 53 vvcurveto
          43 -18 13 -38 -74 -34 -27 -39 -20 16 -39 4 -75 vhcurveto
          -49 -109 -84 -130 -104 -90 rrcurveto
          47 callsubr
          -76 -5 -80 -13 -99 hvcurveto
          -26 -16 -18 -24 -21 vvcurveto
          -26 32 -29 36 36 31 25 73 29 vhcurveto
          86 76 66 67 92 118 -1 -64 -5 -96 -11 -81 rrcurveto
          -26 -20 -19 -16 -28 vvcurveto
          hintmask 10110110
          -34 40 -27 28 36 35 30 76 23 vhcurveto
          endchar
        </CharString>
</ttFont>
